<svg width="1301" height="279" viewBox="0 0 1301 279" fill="none" xmlns="http://www.w3.org/2000/svg">
<path d="M1 160H1239V278H1V160Z" fill="#267D7A"/>
<path d="M1 160H1239V278H1V160Z" stroke="black" stroke-width="2"/>
<rect x="41" y="183" width="164" height="18" fill="#F2BB05" stroke="black" stroke-width="2"/>
<path d="M46.4091 225.727C47.125 225.727 47.5795 226.023 47.8523 226.693L54.3636 242.591H54.6364L61.1477 226.693C61.4205 226.023 61.875 225.727 62.5909 225.727H65.4545C66.2614 225.727 66.7045 226.17 66.7045 226.977V247.75C66.7045 248.557 66.2614 249 65.4545 249H63.9091C63.1023 249 62.6591 248.557 62.6591 247.75V233.011H62.4432L56.4091 247.955C56.1364 248.614 55.6818 248.932 54.9659 248.932H54.0341C53.3182 248.932 52.8523 248.614 52.5909 247.955L46.5568 232.977H46.3409V247.75C46.3409 248.557 45.8977 249 45.0909 249H43.5455C42.7386 249 42.2955 248.557 42.2955 247.75V226.977C42.2955 226.17 42.7386 225.727 43.5455 225.727H46.4091ZM71.2955 226.977C71.2955 226.17 71.7386 225.727 72.5455 225.727H85.1818C85.9886 225.727 86.4318 226.17 86.4318 226.977V228.011C86.4318 228.818 85.9886 229.261 85.1818 229.261H75.5114V235.58H84.3977C85.2045 235.58 85.6477 236.023 85.6477 236.83V237.864C85.6477 238.67 85.2045 239.114 84.3977 239.114H75.5114V245.466H85.2727C86.0795 245.466 86.5227 245.909 86.5227 246.716V247.75C86.5227 248.557 86.0795 249 85.2727 249H72.5455C71.7386 249 71.2955 248.557 71.2955 247.75V226.977ZM94.8466 225.727C95.5625 225.727 96.017 226.023 96.2898 226.693L102.801 242.591H103.074L109.585 226.693C109.858 226.023 110.312 225.727 111.028 225.727H113.892C114.699 225.727 115.142 226.17 115.142 226.977V247.75C115.142 248.557 114.699 249 113.892 249H112.347C111.54 249 111.097 248.557 111.097 247.75V233.011H110.881L104.847 247.955C104.574 248.614 104.119 248.932 103.403 248.932H102.472C101.756 248.932 101.29 248.614 101.028 247.955L94.9943 232.977H94.7784V247.75C94.7784 248.557 94.3352 249 93.5284 249H91.983C91.1761 249 90.733 248.557 90.733 247.75V226.977C90.733 226.17 91.1761 225.727 91.983 225.727H94.8466ZM119.733 226.977C119.733 226.17 120.176 225.727 120.983 225.727H128.46C133.812 225.727 136.665 228.989 136.665 233.432C136.665 237.909 133.778 241.136 128.403 241.136H123.949V247.75C123.949 248.557 123.506 249 122.699 249H120.983C120.176 249 119.733 248.557 119.733 247.75V226.977ZM123.949 237.67H127.835C130.972 237.67 132.369 235.909 132.369 233.432C132.369 230.955 130.972 229.25 127.812 229.25H123.949V237.67ZM161.122 237.364C161.122 244.886 156.531 249.318 150.429 249.318C144.315 249.318 139.736 244.875 139.736 237.364C139.736 229.841 144.315 225.409 150.429 225.409C156.531 225.409 161.122 229.841 161.122 237.364ZM143.974 237.364C143.974 242.659 146.645 245.534 150.429 245.534C154.224 245.534 156.884 242.659 156.884 237.364C156.884 232.068 154.224 229.193 150.429 229.193C146.645 229.193 143.974 232.068 143.974 237.364ZM185.903 237.364C185.903 244.886 181.312 249.318 175.21 249.318C169.097 249.318 164.517 244.875 164.517 237.364C164.517 229.841 169.097 225.409 175.21 225.409C181.312 225.409 185.903 229.841 185.903 237.364ZM168.756 237.364C168.756 242.659 171.426 245.534 175.21 245.534C179.006 245.534 181.665 242.659 181.665 237.364C181.665 232.068 179.006 229.193 175.21 229.193C171.426 229.193 168.756 232.068 168.756 237.364ZM189.889 226.977C189.889 226.17 190.332 225.727 191.139 225.727H192.855C193.662 225.727 194.105 226.17 194.105 226.977V245.466H203.105C203.912 245.466 204.355 245.909 204.355 246.716V247.75C204.355 248.557 203.912 249 203.105 249H191.139C190.332 249 189.889 248.557 189.889 247.75V226.977Z" fill="black"/>
<path d="M1225.07 15.4438L1226.07 15.6412L1226.25 14.635C1227.6 6.88805 1234.37 1 1242.5 1C1249.2 1 1254.97 4.99627 1257.56 10.7402L1257.87 11.4424L1258.63 11.3167C1259.89 11.1084 1261.18 11 1262.5 11C1274.1 11 1283.73 19.4022 1285.65 30.4516L1285.77 31.1401L1286.46 31.2646C1294.16 32.6586 1300 39.3984 1300 47.5C1300 56.6127 1292.61 64 1283.5 64C1281.18 64 1278.97 63.5217 1276.97 62.6592L1274.66 61.6631L1275.66 63.9734C1276.52 65.9738 1277 68.1797 1277 70.5C1277 79.6127 1269.61 87 1260.5 87C1254.31 87 1248.91 83.588 1246.09 78.5363L1245.6 77.6724L1244.73 78.1462C1241.4 79.9657 1237.57 81 1233.5 81C1222.99 81 1214.1 74.1052 1211.09 64.5911L1210.26 61.9786L1209.21 64.5089C1205.68 73.0188 1197.29 79 1187.5 79C1182.15 79 1177.22 77.2137 1173.27 74.2046L1173 74H1172.67H1151H1150V75V95H1106V58C1106 54.134 1109.13 51 1113 51H1163.62H1164.42L1164.59 50.2236C1166.79 40.6569 1174.83 33.3175 1184.74 32.1597L1185.9 32.0245L1185.59 30.9004C1185.21 29.5006 1185 28.0253 1185 26.5C1185 17.3873 1192.39 10 1201.5 10C1206.35 10 1210.71 12.0894 1213.73 15.42L1214.13 15.8652L1214.71 15.7177C1216.56 15.2492 1218.5 15 1220.5 15C1222.06 15 1223.59 15.1527 1225.07 15.4438Z" fill="#F0F0F0" stroke="black" stroke-width="2"/>
<path d="M1068.06 277L1077.94 105H1176.06L1185.94 277H1068.06Z" fill="#88BEA6" stroke="black" stroke-width="2"/>
<path d="M1173 86H1080C1075.03 86 1071 90.0294 1071 95V98C1071 102.971 1075.03 107 1080 107H1173C1177.97 107 1182 102.971 1182 98V95C1182 90.0294 1177.97 86 1173 86Z" fill="#88BEA6" stroke="black" stroke-width="2"/>
<path d="M1071 223H1183L1184 243H1070L1071 223Z" fill="black"/>
</svg>
