<svg width="1140" height="391" viewBox="0 0 1140 391" fill="none" xmlns="http://www.w3.org/2000/svg">
<g filter="url(#filter0_i_477_9926)">
<ellipse cx="570" cy="228.5" rx="570" ry="89.5" fill="#A0CDB9"/>
</g>
<path d="M1139 228.5C1139 234.216 1135.31 239.99 1127.81 245.744C1120.33 251.483 1109.24 257.061 1094.86 262.4C1066.11 273.073 1024.45 282.704 972.896 290.798C869.811 306.984 727.366 317 570 317C412.634 317 270.189 306.984 167.104 290.798C115.554 282.704 73.893 273.073 45.1414 262.4C30.76 257.061 19.6677 251.483 12.1891 245.744C4.69035 239.99 1 234.216 1 228.5C1 222.784 4.69035 217.01 12.1891 211.256C19.6677 205.517 30.76 199.939 45.1414 194.6C73.893 183.927 115.554 174.296 167.104 166.202C270.189 150.016 412.634 140 570 140C727.366 140 869.811 150.016 972.896 166.202C1024.45 174.296 1066.11 183.927 1094.86 194.6C1109.24 199.939 1120.33 205.517 1127.81 211.256C1135.31 217.01 1139 222.784 1139 228.5Z" stroke="black" stroke-width="2"/>
<path d="M1 233.752V233.628C1.0204 233.659 1.04095 233.689 1.06164 233.719C2.4 235.679 4.38771 237.728 7.01176 239.847C12.2593 244.084 20.1665 248.692 30.8754 253.481C52.3022 263.063 85.1082 273.442 130.717 283.023C221.945 302.187 364.518 318.185 570 318.185C775.487 318.185 918.049 301.055 1009.27 281.325C1054.88 271.461 1087.67 260.942 1109.1 251.576C1119.8 246.895 1127.7 242.487 1132.94 238.571C1135.56 236.614 1137.55 234.756 1138.9 233.022C1138.92 232.986 1138.95 232.95 1138.98 232.914C1138.93 246.047 1138.95 262.294 1138.98 277.169C1138.99 284.944 1139 292.344 1139 298.729C1139 303.477 1135.38 308.606 1127.84 313.971C1120.35 319.299 1109.25 324.677 1094.86 329.976C1066.1 340.571 1024.43 350.776 972.881 359.673C869.796 377.465 727.354 390 570 390C412.646 390 270.204 377.465 167.119 359.673C115.57 350.776 73.9007 340.571 45.1391 329.976C30.752 324.677 19.6483 319.299 12.1601 313.971C4.61896 308.606 1 303.477 1 298.729V298.612V298.495V298.379V298.262V298.145V298.028V297.911V297.794V297.677V297.56V297.443V297.326V297.209V297.092V296.975V296.858V296.741V296.624V296.507V296.39V296.273V296.156V296.038V295.921V295.804V295.687V295.569V295.452V295.335V295.218V295.1V294.983V294.865V294.748V294.63V294.513V294.396V294.278V294.16V294.043V293.925V293.808V293.69V293.572V293.454V293.337V293.219V293.101V292.983V292.865V292.747V292.629V292.511V292.393V292.275V292.157V292.039V291.921V291.803V291.685V291.566V291.448V291.33V291.211V291.093V290.975V290.856V290.737V290.619V290.5V290.382V290.263V290.144V290.025V289.907V289.788V289.669V289.55V289.431V289.312V289.193V289.074V288.955V288.835V288.716V288.597V288.477V288.358V288.239V288.119V288V287.88V287.76V287.641V287.521V287.401V287.281V287.161V287.041V286.921V286.801V286.681V286.561V286.441V286.32V286.2V286.08V285.959V285.839V285.718V285.598V285.477V285.356V285.235V285.114V284.994V284.873V284.752V284.63V284.509V284.388V284.267V284.145V284.024V283.903V283.781V283.659V283.538V283.416V283.294V283.172V283.05V282.928V282.806V282.684V282.562V282.44V282.317V282.195V282.073V281.95V281.827V281.705V281.582V281.459V281.336V281.213V281.09V280.967V280.844V280.721V280.597V280.474V280.35V280.227V280.103V279.979V279.856V279.732V279.608V279.484V279.36V279.235V279.111V278.987V278.862V278.738V278.613V278.488V278.364V278.239V278.114V277.989V277.864V277.739V277.613V277.488V277.363V277.237V277.111V276.986V276.86V276.734V276.608V276.482V276.356V276.23V276.103V275.977V275.85V275.724V275.597V275.47V275.343V275.216V275.089V274.962V274.835V274.708V274.58V274.453V274.325V274.197V274.069V273.942V273.814V273.685V273.557V273.429V273.3V273.172V273.043V272.915V272.786V272.657V272.528V272.399V272.269V272.14V272.011V271.881V271.752V271.622V271.492V271.362V271.232V271.102V270.971V270.841V270.711V270.58V270.449V270.318V270.187V270.056V269.925V269.794V269.663V269.531V269.4V269.268V269.136V269.004V268.872V268.74V268.608V268.475V268.343V268.21V268.077V267.944V267.811V267.678V267.545V267.412V267.278V267.145V267.011V266.877V266.743V266.609V266.475V266.341V266.206V266.072V265.937V265.802V265.667V265.532V265.397V265.262V265.127V264.991V264.855V264.72V264.584V264.448V264.311V264.175V264.039V263.902V263.765V263.629V263.492V263.354V263.217V263.08V262.942V262.805V262.667V262.529V262.391V262.253V262.115V261.976V261.838V261.699V261.56V261.421V261.282V261.143V261.003V260.864V260.724V260.584V260.444V260.304V260.164V260.024V259.883V259.743V259.602V259.461V259.32V259.179V259.037V258.896V258.754V258.612V258.47V258.328V258.186V258.044V257.901V257.758V257.615V257.473V257.329V257.186V257.043V256.899V256.755V256.611V256.467V256.323V256.179V256.034V255.89V255.745V255.6V255.455V255.31V255.164V255.018V254.873V254.727V254.581V254.435V254.288V254.142V253.995V253.848V253.701V253.554V253.407V253.259V253.111V252.964V252.816V252.668V252.519V252.371V252.222V252.073V251.924V251.775V251.626V251.476V251.327V251.177V251.027V250.877V250.727V250.576V250.425V250.275V250.124V249.973V249.821V249.67V249.518V249.366V249.214V249.062V248.91V248.757V248.604V248.451V248.298V248.145V247.992V247.838V247.684V247.53V247.376V247.222V247.068V246.913V246.758V246.603V246.448V246.293V246.137V245.981V245.825V245.669V245.513V245.356V245.2V245.043V244.886V244.729V244.571V244.414V244.256V244.098V243.94V243.782V243.623V243.464V243.305V243.146V242.987V242.828V242.668V242.508V242.348V242.188V242.027V241.867V241.706V241.545V241.384V241.222V241.061V240.899V240.737V240.575V240.412V240.25V240.087V239.924V239.761V239.598V239.434V239.27V239.106V238.942V238.778V238.613V238.449V238.284V238.118V237.953V237.787V237.622V237.456V237.29V237.123V236.957V236.79V236.623V236.456V236.288V236.121V235.953V235.785V235.616V235.448V235.279V235.11V234.941V234.772V234.602V234.433V234.263V234.093V233.922V233.752Z" fill="#4C8A88" stroke="black" stroke-width="2"/>
<rect x="475" y="337" width="190" height="38" rx="4" fill="black"/>
<path d="M496.291 350.612C496.291 350.158 496.54 349.909 496.994 349.909H504.102C504.556 349.909 504.805 350.158 504.805 350.612V351.194C504.805 351.648 504.556 351.897 504.102 351.897H498.663V355.451H503.661C504.115 355.451 504.364 355.7 504.364 356.154V356.736C504.364 357.19 504.115 357.439 503.661 357.439H498.663V361.012H504.153C504.607 361.012 504.857 361.261 504.857 361.715V362.297C504.857 362.751 504.607 363 504.153 363H496.994C496.54 363 496.291 362.751 496.291 362.297V350.612ZM509.436 362.297C509.436 362.751 509.187 363 508.733 363H507.826C507.372 363 507.123 362.751 507.123 362.297V353.885C507.123 353.431 507.372 353.182 507.826 353.182H508.631C509.085 353.182 509.334 353.431 509.334 353.885V354.85H509.449C509.897 353.757 510.907 353.054 512.377 353.054C514.403 353.054 515.745 354.396 515.739 356.749V362.297C515.739 362.751 515.49 363 515.036 363H514.128C513.674 363 513.425 362.751 513.425 362.297V357.107C513.425 355.796 512.709 355.01 511.514 355.01C510.293 355.01 509.436 355.828 509.436 357.247V362.297ZM522.994 354.268C522.994 354.722 522.745 354.972 522.291 354.972H521.057V360.047C521.057 360.98 521.524 361.185 522.105 361.185H522.118C522.342 361.185 522.828 361.319 522.924 361.754L523.026 362.227C523.122 362.668 522.949 362.994 522.502 363.07C522.304 363.102 522.074 363.128 521.811 363.134C520.073 363.185 518.73 362.278 518.743 360.43V354.972H518.053C517.599 354.972 517.35 354.722 517.35 354.268V353.885C517.35 353.431 517.599 353.182 518.047 353.182H518.743V351.533C518.743 351.079 518.993 350.83 519.446 350.83H520.354C520.808 350.83 521.057 351.079 521.057 351.533V353.182H522.291C522.745 353.182 522.994 353.431 522.994 353.885V354.268ZM529.17 363.192C526.211 363.192 524.402 361.229 524.402 358.148C524.402 355.119 526.236 353.054 529.049 353.054C531.465 353.054 533.536 354.569 533.536 358.014V358.021C533.536 358.474 533.287 358.724 532.833 358.724H526.697C526.716 360.405 527.706 361.389 529.202 361.389C529.969 361.389 530.602 361.134 530.992 360.635C531.241 360.309 531.471 360.143 531.868 360.188L532.648 360.277C533.14 360.335 533.395 360.603 533.236 360.967C532.635 362.329 531.177 363.192 529.17 363.192ZM526.703 357.164H531.318C531.305 355.828 530.41 354.857 529.081 354.857C527.7 354.857 526.773 355.911 526.703 357.164ZM535.494 353.885C535.494 353.431 535.743 353.182 536.197 353.182H537.034C537.488 353.182 537.737 353.431 537.737 353.885V354.818H537.839C538.197 353.68 539.137 353.041 540.262 353.041H540.428C540.869 353.06 541.093 353.335 541.093 353.776V354.479C541.093 354.959 540.901 355.176 540.562 355.131C540.384 355.112 540.192 355.099 540.019 355.099C538.747 355.099 537.808 355.982 537.808 357.228V362.297C537.808 362.751 537.558 363 537.104 363H536.197C535.743 363 535.494 362.751 535.494 362.297V353.885ZM543.794 351.788C543.052 351.788 542.451 351.226 542.451 350.536C542.451 349.839 543.052 349.276 543.794 349.276C544.529 349.276 545.13 349.839 545.13 350.536C545.13 351.226 544.529 351.788 543.794 351.788ZM542.63 362.297V353.885C542.63 353.431 542.88 353.182 543.333 353.182H544.241C544.695 353.182 544.944 353.431 544.944 353.885V362.297C544.944 362.751 544.695 363 544.241 363H543.333C542.88 363 542.63 362.751 542.63 362.297ZM549.638 362.297C549.638 362.751 549.388 363 548.934 363H548.027C547.573 363 547.324 362.751 547.324 362.297V353.885C547.324 353.431 547.573 353.182 548.027 353.182H548.832C549.286 353.182 549.535 353.431 549.535 353.885V354.85H549.65C550.098 353.757 551.108 353.054 552.578 353.054C554.604 353.054 555.947 354.396 555.94 356.749V362.297C555.94 362.751 555.691 363 555.237 363H554.329C553.876 363 553.626 362.751 553.626 362.297V357.107C553.626 355.796 552.91 355.01 551.715 355.01C550.494 355.01 549.638 355.828 549.638 357.247V362.297ZM562.562 366.886C560.504 366.886 559.181 366.138 558.542 365.103C558.292 364.688 558.51 364.336 558.983 364.221L559.731 364.042C560.127 363.946 560.37 364.087 560.638 364.393C561.003 364.796 561.604 365.135 562.601 365.135C563.917 365.135 564.876 364.54 564.876 363.096V361.236H564.761C564.403 361.958 563.617 362.859 561.936 362.859C559.673 362.859 557.89 361.261 557.89 358.059C557.89 354.831 559.673 353.054 561.942 353.054C563.675 353.054 564.41 354.096 564.761 354.805H564.889V353.885C564.889 353.431 565.138 353.182 565.592 353.182H566.468C566.922 353.182 567.171 353.431 567.171 353.885V363.16C567.171 365.672 565.215 366.886 562.562 366.886ZM560.248 358.046C560.248 359.855 561.054 361.044 562.581 361.044C564.058 361.044 564.889 359.919 564.889 358.046C564.889 356.186 564.071 354.952 562.581 354.952C561.041 354.952 560.248 356.263 560.248 358.046ZM574.11 350.612C574.11 350.158 574.359 349.909 574.813 349.909H581.921C582.374 349.909 582.624 350.158 582.624 350.612V351.194C582.624 351.648 582.374 351.897 581.921 351.897H576.481V355.451H581.48C581.933 355.451 582.183 355.7 582.183 356.154V356.736C582.183 357.19 581.933 357.439 581.48 357.439H576.481V361.012H581.972C582.426 361.012 582.675 361.261 582.675 361.715V362.297C582.675 362.751 582.426 363 581.972 363H574.813C574.359 363 574.11 362.751 574.11 362.297V350.612ZM587.255 362.297C587.255 362.751 587.006 363 586.552 363H585.644C585.19 363 584.941 362.751 584.941 362.297V350.612C584.941 350.158 585.19 349.909 585.644 349.909H586.552C587.006 349.909 587.255 350.158 587.255 350.612V362.297ZM593.981 363.192C591.021 363.192 589.212 361.229 589.212 358.148C589.212 355.119 591.047 353.054 593.859 353.054C596.276 353.054 598.347 354.569 598.347 358.014V358.021C598.347 358.474 598.097 358.724 597.643 358.724H591.507C591.526 360.405 592.517 361.389 594.013 361.389C594.78 361.389 595.413 361.134 595.803 360.635C596.052 360.309 596.282 360.143 596.678 360.188L597.458 360.277C597.95 360.335 598.206 360.603 598.046 360.967C597.445 362.329 595.988 363.192 593.981 363.192ZM591.513 357.164H596.129C596.116 355.828 595.221 354.857 593.891 354.857C592.511 354.857 591.584 355.911 591.513 357.164ZM605.501 362.431C605.367 362.815 605.105 363 604.695 363H603.34C602.931 363 602.669 362.815 602.535 362.431L599.531 353.987C599.358 353.501 599.582 353.182 600.1 353.182H601.097C601.506 353.182 601.768 353.367 601.889 353.763L603.967 360.475H604.069L606.153 353.763C606.274 353.367 606.536 353.182 606.945 353.182H607.936C608.454 353.182 608.678 353.501 608.505 353.987L605.501 362.431ZM612.938 363.198C611.065 363.198 609.653 362.175 609.653 360.245C609.653 358.033 611.474 357.464 613.379 357.26C615.111 357.075 615.808 357.043 615.808 356.378V356.339C615.808 355.374 615.22 354.825 614.146 354.825C613.322 354.825 612.753 355.131 612.414 355.553C612.165 355.879 611.941 356.045 611.538 355.988L610.765 355.879C610.273 355.809 610.036 355.47 610.273 355.023C610.969 353.719 612.376 353.054 614.133 353.054C616.006 353.054 618.122 353.834 618.122 356.429V362.297C618.122 362.751 617.873 363 617.419 363H616.601C616.147 363 615.898 362.757 615.898 362.322V361.651H615.821C615.399 362.476 614.479 363.198 612.938 363.198ZM611.883 360.207C611.883 361.057 612.574 361.498 613.539 361.498C614.932 361.498 615.814 360.571 615.814 359.478V358.321C615.514 358.564 614.3 358.717 613.692 358.8C612.657 358.947 611.883 359.318 611.883 360.207ZM625.351 354.268C625.351 354.722 625.102 354.972 624.648 354.972H623.415V360.047C623.415 360.98 623.881 361.185 624.463 361.185H624.476C624.699 361.185 625.185 361.319 625.281 361.754L625.383 362.227C625.479 362.668 625.307 362.994 624.859 363.07C624.661 363.102 624.431 363.128 624.169 363.134C622.43 363.185 621.088 362.278 621.101 360.43V354.972H620.41C619.956 354.972 619.707 354.722 619.707 354.268V353.885C619.707 353.431 619.956 353.182 620.404 353.182H621.101V351.533C621.101 351.079 621.35 350.83 621.804 350.83H622.711C623.165 350.83 623.415 351.079 623.415 351.533V353.182H624.648C625.102 353.182 625.351 353.431 625.351 353.885V354.268ZM631.464 363.192C628.587 363.192 626.759 361.165 626.759 358.129C626.759 355.087 628.587 353.054 631.464 353.054C634.34 353.054 636.168 355.087 636.168 358.129C636.168 361.165 634.34 363.192 631.464 363.192ZM629.105 358.123C629.105 359.919 629.885 361.338 631.477 361.338C633.043 361.338 633.822 359.919 633.822 358.123C633.822 356.327 633.043 354.888 631.477 354.888C629.885 354.888 629.105 356.327 629.105 358.123ZM638.132 353.885C638.132 353.431 638.382 353.182 638.835 353.182H639.673C640.127 353.182 640.376 353.431 640.376 353.885V354.818H640.478C640.836 353.68 641.776 353.041 642.901 353.041H643.067C643.508 353.06 643.732 353.335 643.732 353.776V354.479C643.732 354.959 643.54 355.176 643.201 355.131C643.022 355.112 642.83 355.099 642.658 355.099C641.386 355.099 640.446 355.982 640.446 357.228V362.297C640.446 362.751 640.197 363 639.743 363H638.835C638.382 363 638.132 362.751 638.132 362.297V353.885Z" fill="white"/>
<g filter="url(#filter1_i_477_9926)">
<ellipse cx="569.998" cy="220.52" rx="386.207" ry="56.0624" fill="#4C8A88"/>
</g>
<path d="M150.166 0H991.122L955.192 221.984C955.192 221.984 935.539 277.03 569.998 276.77C204.457 276.51 184.513 221.984 184.513 221.984L150.166 0Z" fill="url(#paint0_linear_477_9926)"/>
<defs>
<filter id="filter0_i_477_9926" x="0" y="139" width="1140" height="183" filterUnits="userSpaceOnUse" color-interpolation-filters="sRGB">
<feFlood flood-opacity="0" result="BackgroundImageFix"/>
<feBlend mode="normal" in="SourceGraphic" in2="BackgroundImageFix" result="shape"/>
<feColorMatrix in="SourceAlpha" type="matrix" values="0 0 0 0 0 0 0 0 0 0 0 0 0 0 0 0 0 0 127 0" result="hardAlpha"/>
<feOffset dy="4"/>
<feGaussianBlur stdDeviation="2"/>
<feComposite in2="hardAlpha" operator="arithmetic" k2="-1" k3="1"/>
<feColorMatrix type="matrix" values="0 0 0 0 0 0 0 0 0 0 0 0 0 0 0 0 0 0 0.25 0"/>
<feBlend mode="normal" in2="shape" result="effect1_innerShadow_477_9926"/>
</filter>
<filter id="filter1_i_477_9926" x="183.791" y="164.458" width="772.415" height="116.125" filterUnits="userSpaceOnUse" color-interpolation-filters="sRGB">
<feFlood flood-opacity="0" result="BackgroundImageFix"/>
<feBlend mode="normal" in="SourceGraphic" in2="BackgroundImageFix" result="shape"/>
<feColorMatrix in="SourceAlpha" type="matrix" values="0 0 0 0 0 0 0 0 0 0 0 0 0 0 0 0 0 0 127 0" result="hardAlpha"/>
<feMorphology radius="6" operator="erode" in="SourceAlpha" result="effect1_innerShadow_477_9926"/>
<feOffset dy="4"/>
<feGaussianBlur stdDeviation="5"/>
<feComposite in2="hardAlpha" operator="arithmetic" k2="-1" k3="1"/>
<feColorMatrix type="matrix" values="0 0 0 0 0.0745098 0 0 0 0 0.298039 0 0 0 0 0.298039 0 0 0 1 0"/>
<feBlend mode="normal" in2="shape" result="effect1_innerShadow_477_9926"/>
</filter>
<linearGradient id="paint0_linear_477_9926" x1="570.644" y1="-128.812" x2="570.644" y2="221.984" gradientUnits="userSpaceOnUse">
<stop stop-color="white" stop-opacity="0"/>
<stop offset="1" stop-color="#267D7A" stop-opacity="0.3"/>
</linearGradient>
</defs>
</svg>
