<svg width="187" height="215" viewBox="0 0 187 215" fill="none" xmlns="http://www.w3.org/2000/svg">
<rect x="-0.5" y="0.5" width="39" height="155" transform="matrix(-1 0 0 1 39 58)" fill="#F2BB05" stroke="black"/>
<rect x="-0.5" y="0.5" width="5" height="30" transform="matrix(-1 0 0 1 44 81)" fill="#FC3A25" stroke="black"/>
<path d="M25.9886 103.455C25.9886 107.686 23.4062 110.179 19.9737 110.179C16.5348 110.179 13.9588 107.68 13.9588 103.455C13.9588 99.223 16.5348 96.7301 19.9737 96.7301C23.4062 96.7301 25.9886 99.223 25.9886 103.455ZM16.343 103.455C16.343 106.433 17.8452 108.05 19.9737 108.05C22.1087 108.05 23.6044 106.433 23.6044 103.455C23.6044 100.476 22.1087 98.8587 19.9737 98.8587C17.8452 98.8587 16.343 100.476 16.343 103.455ZM14.2912 119.612C14.2912 119.158 14.5405 118.909 14.9943 118.909H19.2003C22.2109 118.909 23.8153 120.744 23.8153 123.243C23.8153 125.761 22.1918 127.577 19.1683 127.577H16.6626V131.297C16.6626 131.751 16.4134 132 15.9595 132H14.9943C14.5405 132 14.2912 131.751 14.2912 131.297V119.612ZM16.6626 125.627H18.8487C20.6129 125.627 21.3991 124.636 21.3991 123.243C21.3991 121.849 20.6129 120.891 18.8359 120.891H16.6626V125.627ZM14.2912 141.612C14.2912 141.158 14.5405 140.909 14.9943 140.909H22.1023C22.5561 140.909 22.8054 141.158 22.8054 141.612V142.194C22.8054 142.648 22.5561 142.897 22.1023 142.897H16.6626V146.451H21.6612C22.1151 146.451 22.3643 146.7 22.3643 147.154V147.736C22.3643 148.19 22.1151 148.439 21.6612 148.439H16.6626V152.012H22.1534C22.6072 152.012 22.8565 152.261 22.8565 152.715V153.297C22.8565 153.751 22.6072 154 22.1534 154H14.9943C14.5405 154 14.2912 153.751 14.2912 153.297V141.612ZM25.049 175.297C25.049 175.751 24.7997 176 24.3459 176H23.483C23.1058 176 22.8501 175.859 22.6328 175.553L16.7713 167.083H16.6626V175.297C16.6626 175.751 16.4134 176 15.9595 176H14.9943C14.5405 176 14.2912 175.751 14.2912 175.297V163.612C14.2912 163.158 14.5405 162.909 14.9943 162.909H15.87C16.2472 162.909 16.5092 163.05 16.7202 163.357L22.5753 171.832H22.6903V163.612C22.6903 163.158 22.9396 162.909 23.3935 162.909H24.3459C24.7997 162.909 25.049 163.158 25.049 163.612V175.297Z" fill="black"/>
<path d="M46.0689 90.8322C45.5688 83.5 72.0688 86.8322 77.97 90.8323L77.5688 112.332C73.1412 114.351 66.1212 116.215 60.1893 106.903C57.0585 101.988 56.232 98.9083 56.572 96.4998C56.8285 94.6837 46.069 93.4998 46.0689 90.8322Z" fill="#F7EED4" stroke="black"/>
<path d="M77.5688 112.333L78.0688 90.3325L92.0688 87.8325L107.069 73.3325L121.069 107.833C91.4916 122.412 87.9209 120.049 77.5688 112.333Z" fill="#C6C2AB" stroke="black"/>
<path d="M124.069 15.8326C111.42 14.6123 106.974 23.6977 104.569 25.3325C101.872 27.1657 97.5687 25.8325 95.5687 27.3325C93.5687 28.8325 93.5687 35.8324 91.0687 37.8324C84.1176 43.3934 81.6425 43.8086 79.5687 52.8324C79.5687 52.8324 81.159 53.9826 81.0687 55.8324C80.9791 57.6687 79.5687 58.3324 79.5687 58.3324C79.5687 58.3324 81.6216 74.6276 100.069 75.3325C100.069 75.3325 95.5687 96 95.5687 108.333C95.5687 122.459 102.069 138 102.069 138H177.07C182.001 108.957 182.569 73.456 158.569 49.8325C152.445 43.8052 147.155 38.6849 140.569 34.8325C140.417 25.1067 136.717 17.0529 124.069 15.8326Z" fill="#C6C2AB"/>
<path d="M100.069 75.3325C81.6216 74.6276 79.5687 58.3324 79.5687 58.3324C79.5687 58.3324 80.9791 57.6687 81.0687 55.8324C81.159 53.9826 79.5687 52.8324 79.5687 52.8324C81.6425 43.8086 84.1176 43.3934 91.0687 37.8324C93.5687 35.8324 93.5687 28.8325 95.5687 27.3325C97.5687 25.8325 101.872 27.1657 104.569 25.3325C106.974 23.6977 111.42 14.6123 124.069 15.8326C136.717 17.0529 140.417 25.1067 140.569 34.8325C147.155 38.6849 152.445 43.8052 158.569 49.8325C182.569 73.456 182.001 108.957 177.07 138H102.069C102.069 138 95.5687 122.459 95.5687 108.333C95.5687 96 100.069 75.3325 100.069 75.3325ZM100.069 75.3325C103.069 75.3325 109.069 71.8325 110.069 70.3325" stroke="black"/>
<path d="M147.5 214C164.553 214 158.302 203.652 155.568 197.714L123 197.714L121.5 200.5C119.5 203.5 98.8992 198.367 98.6773 207.83C98.4858 216 126.499 214 147.5 214Z" fill="#F7EED4" stroke="black"/>
<path d="M99.5698 106.545L95.5698 104.5V109.955L98.5698 112L99.5698 106.545Z" fill="#134C4C"/>
<path d="M133.204 9.26383C122.134 4.91935 109.655 10.2285 105.082 21.1324L145.721 37.082C149.799 25.9838 144.273 13.6083 133.204 9.26383Z" fill="#F2BB05" stroke="black"/>
<path d="M147.31 32.609L107.349 16.9255L106.365 19.4284L146.693 35.2558L147.31 32.609Z" fill="black"/>
<path d="M111.082 16.7291C112.03 14.3164 110.582 11.3181 107.604 9.92339L103.897 19.3501C107.029 20.3536 110.133 19.1418 111.082 16.7291Z" fill="#F4E9BD" stroke="black"/>
<path fill-rule="evenodd" clip-rule="evenodd" d="M95.0702 115.001C95.0702 123.501 109.07 161.001 112.07 166.501C114.655 171.24 115.432 173.822 116.998 179.021C118.187 182.972 119.831 188.434 123.069 197.501H155.569C159.076 188.538 160.459 181.701 162.081 173.675C162.54 171.404 163.019 169.038 163.57 166.501C187.07 144.5 191.57 120.999 179.57 82.4996C168.118 45.7591 146.07 47.5 113.57 72.0005L100.57 101.001L96.0698 98.5C95.028 103.633 95.0372 105.839 95.0616 111.693C95.0657 112.681 95.0702 113.773 95.0702 115.001ZM154.07 128.501C138.066 132.916 118.57 124.001 118.57 107.501C118.57 88.0007 123.438 70.4119 139.442 65.9961C160.57 60.1665 170.075 64.0007 177.255 90.0236C184.009 114.501 179.59 121.459 154.07 128.501Z" fill="#267D7A" stroke="black"/>
<path d="M161.57 137.5C160.768 133.612 146.106 133.058 142.57 135.5C138.07 138.606 137.76 144.413 142.57 151C146.779 156.764 149.96 156.125 153.042 155.506L153.07 155.5C166.104 154.234 162.572 142.36 161.57 137.5Z" fill="#F7EED4" stroke="black"/>
<path d="M169.5 98.0414C167.439 90.1035 158.921 77.619 158.921 77.619C158.921 77.619 152.561 67 140.07 70.5C124.422 74.8844 125.709 85.251 125.709 85.251C123.847 95.7883 132.111 110.653 141.578 115.885L142.081 135.333C142.081 135.333 147.833 138.95 151.976 139.217C155.616 139.451 161.117 137.297 161.117 137.297C161.117 137.297 173.612 113.88 169.5 98.0414Z" fill="#C6C2AB" stroke="black"/>
</svg>
