<svg width="64" height="52" viewBox="0 0 64 52" fill="none" xmlns="http://www.w3.org/2000/svg">
<path d="M56.3881 12.8875L56.3888 12.8887C59.415 18.4347 58.7992 26.2609 55.6955 32.9746C52.5921 39.6876 47.0838 45.1134 40.5282 45.9976L40.5046 46.0007L40.4815 46.0061C39.6284 46.205 38.2371 46.1376 36.5217 45.8368C34.8258 45.5395 32.8762 45.026 30.9416 44.3832C29.0074 43.7405 27.0992 42.9722 25.4852 42.1692C23.8596 41.3605 22.5743 40.5368 21.8498 39.796L21.6214 39.5624L21.3157 39.6779C20.0405 40.1595 18.3999 40.6229 16.8544 40.8972C15.2829 41.1761 13.9033 41.2415 13.0978 41.0024L13.0979 41.0023L13.0872 40.9994C9.68724 40.0712 7.23683 36.8606 6.13569 33.0094C5.03568 29.1623 5.3303 24.8276 7.25378 21.8024C7.78234 20.9712 8.29455 20.5137 8.83432 20.2116C9.39088 19.9002 10.001 19.738 10.7886 19.5323L10.7895 19.5321C10.9216 19.4976 11.0583 19.4619 11.1985 19.4244C12.2269 19.1696 13.3974 18.8816 14.562 18.7082C15.7331 18.5338 16.857 18.4823 17.7938 18.6774L17.8012 18.6789L17.8087 18.6802C18.1797 18.7458 18.5387 18.8382 18.8855 18.9553C19.3037 19.0965 19.705 19.2738 20.0892 19.4835L20.5677 19.7448L20.7867 19.2455C21.3107 18.0512 21.9209 16.8847 22.6149 15.7677C25.8258 10.6001 30.8154 6.5117 37.3753 5.56551C41.1142 5.1527 45.594 6.70207 49.2763 8.01747C49.6571 8.16539 50.0484 8.30198 50.4365 8.43747L50.4408 8.43897C52.6001 9.19267 54.8069 9.97032 56.3881 12.8875ZM9.95484 14.5813L9.95482 14.5812L9.94567 14.5837L9.90904 14.5935C9.78478 14.6268 9.66138 14.659 9.52535 14.6945L9.40447 14.726L9.52994 15.21L9.40447 14.726L9.39346 14.7288C8.69934 14.9087 7.53018 15.2118 6.39276 15.8483C5.02927 16.6112 3.94075 17.6945 3.0346 19.1194L3.03459 19.1194C0.146997 23.6608 -0.0508473 29.5604 1.32834 34.384C2.69364 39.159 6.03481 44.2369 11.7292 45.8115C13.7425 46.3917 16.1199 46.1057 17.7282 45.8202C18.6912 45.6493 19.6756 45.4201 20.6168 45.1573C21.4702 45.7115 22.3792 46.2086 23.258 46.6458C25.1192 47.5718 27.2508 48.4256 29.3651 49.1281C31.4765 49.8297 33.6686 50.4128 35.6582 50.7617C37.3996 51.067 39.5326 51.2981 41.3774 50.9274C50.1761 49.6569 56.7584 42.5908 60.234 35.0727C63.7298 27.5108 64.8257 17.9176 60.7808 10.4991C58.2711 5.87385 54.4868 4.55443 52.2028 3.75813L52.194 3.75503L52.0886 3.71828C51.6813 3.57613 51.3705 3.46711 51.0822 3.355L50.901 3.82099L51.0822 3.355L51.0304 3.33482L51.0304 3.33464L51.0173 3.32996L50.9649 3.31123L50.784 3.24658L50.7433 3.23202C47.3238 2.00968 41.8163 0.0409311 36.8148 0.597007L36.751 0.604105L36.743 0.604993L36.7351 0.606136L36.6715 0.61528C28.0732 1.8519 21.8398 7.29508 18.0513 13.6537C16.5216 13.4527 15.0226 13.5845 13.8256 13.7627C12.4058 13.9741 11.0266 14.3158 10.0277 14.5633L10.0208 14.565L10.141 15.0503L10.0208 14.565L9.95484 14.5813Z" fill="white" stroke="black"/>
<path d="M49.0272 8.7388L49.0273 8.73887C49.3126 8.84078 49.5858 8.93648 49.848 9.02835C51.0816 9.46054 52.0738 9.80815 52.9557 10.3205C53.9934 10.9233 54.878 11.7588 55.7312 13.2634C58.858 18.9035 57.9184 26.9315 54.5146 33.6076C51.1069 40.2916 45.353 45.3879 39.0972 45.3879C37.2542 45.3879 33.6164 44.5409 30.0631 43.2563C28.2964 42.6177 26.5727 41.8787 25.1266 41.0978C23.6686 40.3106 22.5385 39.5048 21.9147 38.7481L21.9146 38.748C18.4616 34.562 18.3842 27.3878 20.9987 20.7505C23.6053 14.1334 28.8109 8.2611 35.6327 6.65354L35.6327 6.65354C39.9845 5.62785 43.9201 6.91242 49.0272 8.7388Z" fill="#F2BB05" stroke="black"/>
<path d="M31.7502 22.0109L29.0046 26.3218L27.8662 25.5977L32.3274 18.5931L33.3435 22.4321L32.4402 21.8576L32.0186 21.5894L31.7502 22.0109ZM35.3973 25.8426L38.1428 21.5317L39.2812 22.2558L34.8201 29.2604L33.8039 25.4213L34.7072 25.9959L35.1288 26.2641L35.3973 25.8426Z" fill="black" stroke="black"/>
<path d="M56.3886 12.8877L56.3893 12.8889C59.4154 18.4349 58.7997 26.2612 55.696 32.9748C52.5926 39.6878 47.0843 45.1136 40.5286 45.9978L40.5051 46.0009L40.482 46.0063C39.5975 46.2125 38.1371 46.1322 36.3417 45.8047C34.5671 45.4811 32.5312 44.929 30.5328 44.2454C28.5344 43.5618 26.5857 42.7507 24.9836 41.9135C23.3627 41.0665 22.1594 40.2244 21.5871 39.4992L21.5745 39.4833L21.5607 39.4685C19.7234 37.4933 18.7006 34.5602 18.4964 31.1806C18.2925 27.8065 18.9086 24.0305 20.3008 20.4255C23.088 13.2087 28.9362 6.78303 37.3758 5.56572C41.1147 5.15291 45.5945 6.70228 49.2768 8.01768C49.6703 8.17058 50.0685 8.31023 50.4675 8.45015C52.6271 9.20751 54.8084 9.97249 56.3886 12.8877ZM49.5461 16.3182L49.0482 16.3645C49.2877 18.9353 49.1012 21.528 48.4962 24.038L48.3885 24.4851L48.825 24.6298C49.666 24.9085 50.217 25.136 50.6557 25.3284C50.7069 25.3508 50.7571 25.3731 50.8066 25.3951C50.7464 25.3914 50.6887 25.3886 50.6311 25.3857C50.2332 25.3658 49.8467 25.3465 48.741 25.0838L48.2721 24.9723L48.1435 25.4369C47.3892 28.1626 46.2948 30.7826 44.8863 33.2351L44.5835 33.7623L45.1591 33.9576C45.4754 34.065 45.8443 34.2091 46.2544 34.3692C46.4041 34.4277 46.5593 34.4883 46.7194 34.5501C46.5877 34.5418 46.4673 34.5368 46.3503 34.532C45.8933 34.5131 45.4878 34.4963 44.6613 34.2927L44.3133 34.2069L44.1203 34.509C42.8679 36.4694 41.346 38.2439 39.5993 39.7804L39.0467 40.2665L39.7022 40.6012C40.1273 40.8182 40.5031 41.0058 40.8386 41.1686C40.725 41.1505 40.6167 41.1342 40.5121 41.1185C39.9359 41.0318 39.4697 40.9616 38.8246 40.7001L38.5936 40.6065L38.3797 40.7347C37.5256 41.2467 36.6238 41.6659 35.6899 41.9877C40.0193 40.2005 44.245 35.8535 47.1886 28.0844L47.1886 28.0844L47.1914 28.0768C49.7417 21.0054 49.5982 15.4762 47.7333 11.7276C48.246 12.7069 48.61 13.7648 48.8067 14.8673L48.8569 15.149L49.1253 15.2484C49.9759 15.5634 50.5583 15.8165 51.0271 16.0267C51.0529 16.0382 51.0784 16.0497 51.1037 16.0611C50.9647 16.0393 50.8276 16.0183 50.6936 15.9977C50.3054 15.938 49.9431 15.8824 49.6358 15.8263L49.5461 16.3182ZM44.6404 7.81839C44.6247 7.90807 44.6359 7.98501 44.6509 8.0402C44.6305 8.02549 44.6102 8.01086 44.5898 7.9963C40.1849 4.85622 33.4607 5.66838 27.6799 10.4857L27.6789 10.4866C24.4733 13.1726 22.0017 16.6281 20.4956 20.5296C18.9895 24.4311 18.4981 28.651 19.0673 32.7942L19.1195 32.7907L19.0683 32.7984C19.9495 38.626 24.9367 42.9078 30.7544 42.9635C30.7857 42.9638 30.8171 42.9639 30.8484 42.964V43.2609V43.2634V43.774L31.282 43.7649C34.0423 44.6565 36.3144 45.2659 38.4982 45.3294C40.7253 45.3942 42.8312 44.8916 45.2607 43.6084L46.1108 43.1595L45.2552 42.7212C45.0543 42.6184 44.8617 42.5227 44.6767 42.4336C45.0873 42.5069 45.5963 42.6099 46.3225 42.8032L46.9511 42.9705V42.5792C49.1557 41.0303 51.0534 39.0842 52.5465 36.8397L52.8957 36.3148L52.3051 36.0943C51.8251 35.9151 51.3886 35.7569 50.9904 35.6172C50.9954 35.6178 51.0004 35.6184 51.0054 35.619C51.2357 35.6462 51.4583 35.6709 51.6708 35.6945C52.1107 35.7434 52.5074 35.7875 52.84 35.8386L53.416 35.9272V35.4807C54.9076 32.9876 56.0357 30.2942 56.766 27.4817L56.8843 27.0261L56.4367 26.8806C55.92 26.7126 55.4552 26.5639 55.0358 26.4322C55.4716 26.4786 55.9646 26.5251 56.5273 26.5729L56.971 26.6106L57.0596 26.1742C57.5991 23.5174 57.6606 20.7858 57.2414 18.1074L57.1933 17.7997L56.8958 17.7073C56.5248 17.5919 56.0874 17.4325 55.6072 17.2574C55.5077 17.2212 55.4063 17.1842 55.3033 17.1468C55.6394 17.1834 56.0114 17.22 56.4262 17.2575L56.9712 17.3069V16.7596V16.7571V16.698L56.9575 16.6406C56.2102 13.5216 54.988 11.8008 53.5171 10.7234C52.4303 9.92747 51.2055 9.49489 50.0686 9.09333C49.7152 8.96853 49.3703 8.84672 49.0407 8.71793L49.0407 8.71783L49.0309 8.71422C47.764 8.24959 46.8951 7.93399 46.3157 7.73078C46.0264 7.6293 45.8053 7.55444 45.6411 7.50266C45.4901 7.455 45.3527 7.41543 45.251 7.40153C45.2234 7.39775 45.177 7.39265 45.1231 7.39573L45.1219 7.3958C45.0899 7.39761 44.9401 7.40608 44.8062 7.52329C44.7235 7.5957 44.6613 7.69784 44.6404 7.81839Z" fill="black" stroke="black"/>
<path d="M41.8905 30.0418C43.6013 26.8537 44.8264 23.2796 45.207 19.9863C45.0037 22.6927 44.2585 25.5519 43.0979 28.1216C41.8678 30.8052 39.6608 34.2324 37.0148 36.7079C34.8446 38.7382 32.4741 40.0464 30.1458 39.9248C31.5659 39.9594 32.9886 39.4977 34.3473 38.6972C37.2145 37.008 39.9 33.7512 41.8905 30.0418Z" fill="black" stroke="black"/>
<path d="M12.9281 40.517L12.9274 40.5168C8.69896 39.1914 6.44663 34.7177 6.01227 30.1487C5.7966 27.8799 6.0386 25.6442 6.68185 23.8539C7.32631 22.0603 8.34375 20.7866 9.6309 20.2882C11.8563 19.5913 14.1536 19.149 16.4787 18.9698C20.7564 18.9807 23.7739 22.729 24.9914 27.2125C25.5954 29.4367 25.7331 31.7808 25.3651 33.8134C24.9962 35.8513 24.131 37.5221 22.7814 38.488C21.9234 39.1011 20.0334 39.7981 18.0111 40.2457C17.0116 40.4669 16.0036 40.6219 15.1053 40.6759C14.1968 40.7305 13.4426 40.6791 12.9281 40.517Z" fill="#F2BB05" stroke="black"/>
<path d="M17.5088 28.6365L17.391 28.6616L16.9023 28.7656L17.006 29.2545L17.5961 32.0343L17.2057 32.1174L16.3166 27.9287L17.5088 28.6365ZM20.0475 29.895L20.1653 29.8699L20.6541 29.7659L20.5503 29.2771L19.9603 26.4972L20.3507 26.4141L21.2397 30.6028L20.0475 29.895Z" fill="black" stroke="black"/>
<path d="M7.23756 21.7922C6.98635 22.1824 6.7491 22.642 6.52349 23.186M7.23756 21.7922L13.3118 41.0561M7.23756 21.7922L6.83207 21.5343L7.23758 21.7922L7.23756 21.7922ZM6.52349 23.186C6.42738 23.4077 6.3382 23.6339 6.25587 23.8641M6.52349 23.186C6.49022 23.2663 6.4572 23.3483 6.42443 23.4323L6.25587 23.8641M6.52349 23.186C6.73366 22.7013 6.97693 22.2384 7.254 21.8026L6.54817 24.1069M6.25587 23.8641L6.16429 24.0987L6.17473 24.099M6.25587 23.8641C6.22804 23.9419 6.201 24.0202 6.17473 24.099M6.17473 24.099C5.26888 26.8143 5.29128 30.0557 6.1359 33.0096C6.49632 34.2702 7.00129 35.4621 7.6368 36.5278M6.17473 24.099L6.54817 24.1069M7.6368 36.5278C8.18184 37.4649 8.85733 38.3227 9.64484 39.0745L9.8228 39.2444L9.86248 39.2383M7.6368 36.5278C7.40262 36.1251 7.19252 35.7078 7.00797 35.278L7.46741 35.0807L7.40743 34.8461C7.32725 34.847 7.25144 34.8487 7.18001 34.8516L6.82297 34.8658L6.69389 34.5326C6.08657 32.965 5.70685 31.3185 5.56629 29.6432L6.01115 29.6059L5.98707 29.3733L5.53719 29.3608L5.52123 28.891C5.46764 27.3137 5.67965 25.7387 6.14839 24.2317L6.57328 24.3639L6.54817 24.1069M7.6368 36.5278C8.20906 37.4874 8.88716 38.3448 9.66087 39.0577C9.72737 39.119 9.79457 39.1792 9.86248 39.2383M9.86248 39.2383C9.96269 39.3255 10.0644 39.4104 10.1677 39.4928M9.86248 39.2383L10.066 39.207C10.1008 39.2017 10.1347 39.1966 10.1677 39.1918M10.1677 39.4928V40.0323L10.6021 39.8497C11.3319 40.379 12.0745 40.8065 13.0835 41.0138C13.087 41.0145 13.0906 41.0153 13.0941 41.016C13.1439 41.0261 13.1944 41.0357 13.2455 41.0448C13.2675 41.0487 13.2896 41.0525 13.3118 41.0561M10.1677 39.4928V39.2797V39.2762V39.1918M10.1677 39.4928C10.2379 39.5489 10.3088 39.6038 10.3805 39.6575L10.6651 39.2797L10.6667 39.2774L10.6662 39.2762L10.607 39.1353C10.4795 39.1491 10.335 39.1673 10.1677 39.1918M13.3118 41.0561C13.6091 41.1184 13.9711 41.1493 14.3866 41.1494C13.9982 41.1426 13.6425 41.111 13.3118 41.0561ZM6.54817 24.1069L7.67857 35.5429C8.25317 36.7278 9.03564 37.8016 9.9901 38.7128C10.052 38.7033 10.1111 38.6946 10.1677 38.6866V39.1918M18.4692 40.2626C18.8625 40.2858 19.2553 40.2764 19.6437 40.2352C19.1539 40.3794 18.6438 40.5146 18.1293 40.6346L18.1116 40.2198C18.224 40.2367 18.3375 40.2505 18.452 40.2613L18.4606 40.2621L18.4692 40.2626ZM15.4995 18.5963C15.023 18.7151 14.5817 18.8838 14.1746 19.0961C14.1668 19.0795 14.1579 19.0628 14.1478 19.046C14.063 18.9051 13.9389 18.8475 13.8677 18.8243C14.0987 18.7819 14.3305 18.7429 14.5622 18.7084C14.879 18.6612 15.1924 18.623 15.4995 18.5963ZM8.00996 20.8386C8.3263 20.5226 8.64528 20.3041 8.97716 20.1358C8.84334 20.2073 8.71134 20.2863 8.58169 20.3743C8.38373 20.5086 8.19338 20.6619 8.00996 20.8386ZM10.6299 39.838L10.8615 39.7406C10.9574 39.7003 11.0539 39.6617 11.1512 39.625C12.4423 40.5061 13.7633 40.9365 16.7614 40.4429C17.1312 40.5533 17.5104 40.6355 17.896 40.688L10.6299 39.838ZM10.746 38.7093L10.6397 38.6292C10.8022 38.6129 10.9377 38.6032 11.0582 38.5954C10.9535 38.6315 10.8494 38.6695 10.746 38.7093ZM12.9245 38.7091C13.0737 38.6941 13.2232 38.6804 13.3658 38.6673C13.5239 38.6528 13.6734 38.639 13.8044 38.6252L12.9245 38.7091ZM10.3495 34.5676C10.47 34.5687 10.576 34.575 10.6825 34.5813C10.9417 34.5966 11.2033 34.6121 11.6809 34.5533L10.3495 34.5676Z" fill="black" stroke="black"/>
<mask id="path-9-inside-1_903_6847" fill="white">
<path d="M23.8734 28.1346C23.0056 25.005 25.6535 33.569 21.5162 37.1319C17.0639 41.0934 12.5881 32.3093 12.8837 26.257C13.2422 19.6032 19.5278 17.9608 23.0125 25.8936C23.4762 26.9719 23.6354 27.6093 23.6873 27.5955C23.6153 26.9816 23.4629 26.3798 23.2339 25.8057C20.8206 19.2689 15.7517 18.936 13.6699 21.9542C10.88 25.8625 12.4539 33.153 16.0542 37.2004C19.9998 41.6236 25.9172 35.5539 23.8734 28.1346Z"/>
</mask>
<path d="M23.8734 28.1346C23.0056 25.005 25.6535 33.569 21.5162 37.1319C17.0639 41.0934 12.5881 32.3093 12.8837 26.257C13.2422 19.6032 19.5278 17.9608 23.0125 25.8936C23.4762 26.9719 23.6354 27.6093 23.6873 27.5955C23.6153 26.9816 23.4629 26.3798 23.2339 25.8057C20.8206 19.2689 15.7517 18.936 13.6699 21.9542C10.88 25.8625 12.4539 33.153 16.0542 37.2004C19.9998 41.6236 25.9172 35.5539 23.8734 28.1346Z" fill="black"/>
<path d="M23.8734 28.1346L24.8375 27.8691L24.8371 27.8674L23.8734 28.1346ZM21.5162 37.1319L20.8636 36.3741L20.8575 36.3794L20.8514 36.3848L21.5162 37.1319ZM12.8837 26.257L11.8851 26.2032L11.8849 26.2082L12.8837 26.257ZM23.0125 25.8936L23.9312 25.4986L23.928 25.4914L23.0125 25.8936ZM23.6873 27.5955L23.9449 28.5617L24.7812 28.3387L24.6805 27.4791L23.6873 27.5955ZM23.2339 25.8057L22.2958 26.1521L22.3003 26.1642L22.3051 26.1762L23.2339 25.8057ZM13.6699 21.9542L14.4838 22.5352L14.4885 22.5286L14.4931 22.522L13.6699 21.9542ZM16.0542 37.2004L15.307 37.865L15.3079 37.8661L16.0542 37.2004ZM24.8371 27.8674C24.7407 27.5197 24.6713 27.2535 24.6449 27.171C24.6441 27.1687 24.6233 27.1003 24.5873 27.0259C24.5767 27.004 24.5523 26.955 24.5133 26.8978C24.4993 26.8771 24.3797 26.6903 24.1385 26.5677C23.9986 26.5095 23.6558 26.4597 23.4611 26.4848C23.277 26.5464 22.9952 26.7356 22.8968 26.8443C22.7361 27.0501 22.7045 27.2612 22.7001 27.2864C22.6804 27.3977 22.685 27.4891 22.6852 27.4976C22.6862 27.5271 22.6882 27.5511 22.6894 27.5637C22.6918 27.5901 22.6949 27.6142 22.6968 27.6286C22.7035 27.6795 22.7184 27.7759 22.7314 27.8646C22.7901 28.2636 22.9038 29.1041 22.921 30.1401C22.9567 32.2972 22.566 34.9081 20.8636 36.3741L22.1687 37.8896C24.6037 35.7927 24.9577 32.3402 24.9207 30.107C24.9015 28.9478 24.7746 28.0115 24.7101 27.5736C24.6924 27.453 24.6838 27.399 24.6795 27.3664C24.6787 27.3599 24.6798 27.3672 24.681 27.3812C24.6816 27.3876 24.6833 27.4065 24.6842 27.4319C24.6843 27.4365 24.6889 27.5249 24.6696 27.6344C24.6653 27.6587 24.6339 27.8691 24.4736 28.0746C24.3753 28.1831 24.0936 28.3721 23.9097 28.4338C23.7152 28.4588 23.3725 28.409 23.2328 28.3509C22.992 28.2286 22.8729 28.0422 22.8594 28.0223C22.821 27.9658 22.7971 27.9179 22.7872 27.8974C22.7658 27.8531 22.753 27.8179 22.7498 27.8092C22.7448 27.7955 22.7416 27.7855 22.7405 27.7821C22.738 27.7742 22.7397 27.7791 22.7496 27.8151C22.7581 27.8459 22.7692 27.8868 22.7841 27.9418C22.8134 28.0503 22.8546 28.2029 22.9098 28.4019L24.8371 27.8674ZM20.8514 36.3848C19.9718 37.1674 19.2295 37.2372 18.5751 37.0102C17.829 36.7516 17.015 36.0399 16.2515 34.8949C14.7309 32.6144 13.7452 29.1166 13.8825 26.3057L11.8849 26.2082C11.7266 29.4498 12.831 33.3702 14.5875 36.0044C15.4625 37.3167 16.5838 38.4366 17.9199 38.8999C19.3476 39.3949 20.8344 39.0771 22.1809 37.8789L20.8514 36.3848ZM13.8822 26.3108C14.0483 23.2288 15.5306 21.7649 16.897 21.5979C18.2876 21.428 20.4211 22.4809 22.0969 26.2958L23.928 25.4914C22.1192 21.3736 19.3675 19.2812 16.6545 19.6127C13.9172 19.9472 12.0776 22.6313 11.8851 26.2032L13.8822 26.3108ZM22.0938 26.2887C22.3135 26.7995 22.4611 27.2058 22.5624 27.4899C22.6095 27.622 22.6574 27.7591 22.695 27.8542C22.7113 27.8956 22.7444 27.9782 22.7905 28.0602C22.8093 28.0937 22.8661 28.1936 22.9656 28.2941C23.0244 28.3535 23.39 28.7097 23.9449 28.5617L23.4296 26.6293C23.9781 26.483 24.3363 26.8359 24.3868 26.8869C24.4781 26.9791 24.5258 27.0657 24.5343 27.0809C24.5599 27.1265 24.5684 27.1531 24.5553 27.1199C24.5339 27.0657 24.5034 26.9786 24.4462 26.8183C24.339 26.5176 24.1752 26.066 23.9311 25.4986L22.0938 26.2887ZM24.6805 27.4791C24.5983 26.7781 24.4243 26.0909 24.1628 25.4353L22.3051 26.1762C22.5016 26.6688 22.6323 27.1851 22.6941 27.7119L24.6805 27.4791ZM24.1721 25.4594C22.8935 21.9963 20.8313 19.9727 18.6025 19.3354C16.3569 18.6932 14.129 19.5274 12.8467 21.3864L14.4931 22.522C15.2926 21.3628 16.64 20.8543 18.0527 21.2583C19.4822 21.6671 21.1611 23.0784 22.2958 26.1521L24.1721 25.4594ZM12.856 21.3732C11.2455 23.6293 10.9611 26.7393 11.4808 29.6981C12.0038 32.6761 13.3696 35.687 15.307 37.865L16.8013 36.5358C15.1385 34.6664 13.9171 32.0083 13.4507 29.3522C12.9808 26.6768 13.3044 24.1874 14.4838 22.5352L12.856 21.3732ZM15.3079 37.8661C16.4632 39.1611 17.8554 39.7751 19.2862 39.6915C20.688 39.6096 21.9632 38.8681 22.9503 37.7805C24.9216 35.6084 25.9404 31.8728 24.8375 27.8691L22.9094 28.4002C23.8502 31.8157 22.9322 34.8246 21.4693 36.4364C20.7394 37.2407 19.9231 37.6509 19.1696 37.6949C18.445 37.7372 17.618 37.4512 16.8004 36.5347L15.3079 37.8661Z" fill="black" mask="url(#path-9-inside-1_903_6847)"/>
</svg>
