<svg width="64" height="64" viewBox="0 0 64 64" fill="none" xmlns="http://www.w3.org/2000/svg">
<path fill-rule="evenodd" clip-rule="evenodd" d="M17.5555 48.6668C16.3282 48.6668 15.3333 47.6719 15.3333 46.4446V17.5557C15.3333 16.3284 16.3282 15.3335 17.5555 15.3335H46.4444C47.6717 15.3335 48.6666 16.3284 48.6666 17.5557V46.4446C48.6666 47.6719 47.6717 48.6668 46.4444 48.6668H17.5555ZM18.6666 45.3335V18.6668H29.7777V45.3335H18.6666ZM34.2221 18.6668H45.3333V45.3335H34.2221V18.6668Z" fill="black"/>
<path fill-rule="evenodd" clip-rule="evenodd" d="M64 32C64 49.6731 49.6731 64 32 64C14.3269 64 0 49.6731 0 32C0 14.3269 14.3269 0 32 0C49.6731 0 64 14.3269 64 32ZM53.3516 52.1137C48.0025 57.7899 40.415 61.3333 32 61.3333C15.7996 61.3333 2.66667 48.2004 2.66667 32C2.66667 24.3682 5.58117 17.4172 10.3579 12.1992L53.3516 52.1137ZM55.092 50.0908L12.2469 10.3142C17.4596 5.56342 24.3915 2.66667 32 2.66667C48.2004 2.66667 61.3333 15.7996 61.3333 32C61.3333 38.8257 59.0019 45.107 55.092 50.0908Z" fill="#FC3A25"/>
</svg>
