<svg width="194" height="226" viewBox="0 0 194 226" fill="none" xmlns="http://www.w3.org/2000/svg">
<path d="M10.0692 118.087C9.21575 114.217 19.5412 107.531 23.097 105.111C28.7847 101.241 35.8333 112.622 34.1206 120.582C32.6174 127.569 30.7877 127.562 27.7058 128.253C15.2596 132.399 11.136 122.925 10.0692 118.087Z" fill="#F7EED4" stroke="black"/>
<path d="M113.778 6.25378C103.52 14.4862 107.608 18.9059 111.009 25.1642L132.488 26.9011C134.942 22.7041 137.501 15.9169 128.806 9.10044C120.757 2.78993 117.633 4.08163 113.778 6.25378Z" fill="#F7EED4" stroke="black"/>
<path d="M132.487 26.9005L110.5 25.2121L106.611 38.8686L90.6563 52.3266L123.663 69.6579C141.15 41.7296 139.15 37.9485 132.487 26.9005Z" fill="#C6C2AB" stroke="black"/>
<path d="M109.732 177.196C109.732 155.564 89.1036 154.836 83.1755 161.226L53.7582 179.692L42.4123 169.032L30.062 190.173C32.0381 197.055 37.4559 206.506 53.7582 208.471C80.3129 211.673 108.25 190.307 109.732 177.196Z" fill="#267D7A" stroke="black"/>
<path d="M22.706 169.044C32.191 154.885 39.667 163.144 42.4664 169.044L30.1162 190.184L27.1521 189.693C23.6941 187.234 10.3558 210.833 2.94561 204.933C-4.46453 199.034 10.8498 186.743 22.706 169.044Z" fill="#F7EED4" stroke="black"/>
<path d="M97.2509 33.7394C109.529 30.373 115.481 38.5455 118.136 39.7413C121.114 41.082 125.133 39.034 127.366 40.1665C129.598 41.2989 130.802 48.1823 133.614 49.7208C141.433 53.9986 143.948 53.9829 147.547 62.5014C147.547 62.5014 146.175 63.9048 146.582 65.7083C146.987 67.4987 148.493 67.9098 148.493 67.9098C148.493 67.9098 149.269 84.2853 131.177 88.1381C131.177 88.1381 135.829 107.316 134.534 118.965C132.975 132.979 119.839 148.363 119.839 148.363L45.0354 136.518L49.0422 109.986L33.2265 121.342C33.2265 121.342 26.8509 118.959 24.1246 115.829C21.729 113.079 20.1087 107.407 20.1087 107.407C20.1087 107.407 31.2021 83.3287 46.3293 77.0219C53.9105 73.8611 69.0366 73.0825 69.0366 73.0825C74.0459 66.1066 78.388 60.1655 84.2282 55.2491C82.7051 45.6594 84.9732 37.1058 97.2509 33.7394Z" fill="#C6C2AB"/>
<path d="M131.177 88.1381C149.269 84.2853 148.493 67.9098 148.493 67.9098C148.493 67.9098 146.987 67.4987 146.582 65.7083C146.175 63.9048 147.547 62.5014 147.547 62.5014C143.948 53.9829 141.433 53.9986 133.614 49.7208C130.802 48.1823 129.598 41.2989 127.366 40.1665C125.133 39.034 121.114 41.082 118.136 39.7413C115.481 38.5455 109.529 30.373 97.2509 33.7394C84.9732 37.1058 82.7051 45.6594 84.2282 55.2491C78.388 60.1655 74.0459 66.1066 69.0366 73.0825C69.0366 73.0825 53.9105 73.8611 46.3293 77.0219C31.2021 83.3287 20.1087 107.407 20.1087 107.407C20.1087 107.407 21.729 113.079 24.1246 115.829C26.8509 118.959 33.2265 121.342 33.2265 121.342L49.0422 109.986M131.177 88.1381C128.216 88.652 121.69 86.2379 120.445 84.9342M131.177 88.1381C131.177 88.1381 135.829 107.316 134.534 118.965C132.975 132.979 119.839 148.363 119.839 148.363L45.0354 136.518L49.0422 109.986M49.0422 109.986C58.9595 114.345 75.8291 111.925 83.1032 104.077" stroke="black"/>
<path d="M163.418 212.873C150.59 224.12 145.503 214.22 144.325 207.801L162.345 189.673C171.38 193.754 185.461 174.718 191.797 183.268C197.43 190.871 179.453 198.816 163.418 212.873Z" fill="#F7EED4" stroke="black"/>
<path d="M87.1029 28.8459C97.2854 22.6772 110.519 25.7613 116.908 35.6992L79.5281 58.3444C73.5941 48.1304 76.9203 35.0145 87.1029 28.8459Z" fill="#F2BB05" stroke="black"/>
<path d="M77.19 54.2186L113.946 31.9515L115.348 34.2442L78.2548 56.7155L77.19 54.2186Z" fill="black"/>
<path d="M110.227 32.3976C108.875 30.1883 109.789 26.9913 112.491 25.1092L117.771 33.7436C114.851 35.2677 111.578 34.6069 110.227 32.3976Z" fill="#F4E9BD" stroke="black"/>
<path d="M71.8903 69.0413L68.543 73.1682C82.9825 80.1195 95.4635 93.3209 93.6638 106.298C92.1819 116.984 61.9739 120.746 46.663 122.557C46.0516 125.459 44.9808 134.299 44.5419 136.603C36.7386 173.419 77.5373 187.618 102.978 185.737C110.945 184.76 134.033 200.444 144.58 208.408L162.648 189.57C153.629 172.897 136.82 161.122 129.543 157.318C134.307 155.479 139.694 122.126 139.47 118.108C138.996 109.579 133.883 93.9167 130.684 88.2238L127.55 87.7543L134.467 109.858L113.454 108.944C106.855 89.8248 81.9647 72.3595 71.8903 69.0413Z" fill="#267D7A"/>
<path d="M129.543 157.318C134.307 155.479 139.694 122.126 139.47 118.108C138.996 109.579 133.883 93.9167 130.684 88.2238L127.55 87.7543L134.467 109.858L113.454 108.944C106.855 89.8248 81.9647 72.3595 71.8903 69.0413L68.543 73.1682C82.9825 80.1195 95.4635 93.3209 93.6638 106.298C92.1819 116.984 61.9739 120.746 46.663 122.557C46.0516 125.459 44.9808 134.299 44.5419 136.603C36.7386 173.419 77.5373 187.618 102.978 185.737C110.945 184.76 134.033 200.444 144.58 208.408L162.648 189.57C153.629 172.897 136.82 161.122 129.543 157.318ZM129.543 157.318L105.351 149.864" stroke="black"/>
<path d="M135.287 123.128L114.743 119.635V130.115L132.781 132.611L135.287 123.128Z" fill="#134C4C" stroke="black"/>
</svg>
