<svg width="300" height="275" viewBox="0 0 300 275" fill="none" xmlns="http://www.w3.org/2000/svg">
<mask id="path-1-inside-1_578_3401" fill="white">
<path fill-rule="evenodd" clip-rule="evenodd" d="M69.8235 239.25C64.2465 234.182 59.0879 228.663 54.4054 222.75H34.7859C39.741 228.71 45.2052 234.232 51.112 239.25H69.8235ZM76.2612 244.75H58.036C64.1082 249.255 70.5763 253.258 77.3787 256.697H93.7367C87.5969 253.159 81.756 249.161 76.2612 244.75ZM127.929 270.655C113.684 269.635 100.057 266.384 87.3957 261.25H102.329C110.448 265.191 119.014 268.358 127.929 270.655ZM26.1086 156.75C26.896 162.366 28.0229 167.873 29.4679 173.25H8.84485C7.35426 167.878 6.19131 162.371 5.37885 156.75H26.1086ZM10.5005 178.75H31.0706C32.8519 184.417 34.9906 189.926 37.4602 195.25H17.1145C14.5585 189.936 12.3443 184.426 10.5005 178.75ZM19.9187 200.75C23.0303 206.518 26.5542 212.031 30.451 217.25H50.2688C46.5295 212.011 43.1488 206.499 40.1625 200.75H19.9187ZM25.4501 151.25C25.0007 146.728 24.7706 142.141 24.7706 137.5C24.7706 136.581 24.7796 135.665 24.7976 134.75H4.02778C4.00929 135.665 4 136.581 4 137.5C4 142.143 4.23718 146.73 4.70011 151.25H25.4501ZM25.0142 129.25H4.25097C4.5927 123.65 5.28001 118.143 6.29185 112.75H26.994C26.0122 118.147 25.3457 123.653 25.0142 129.25ZM28.1116 107.25C29.3786 101.611 30.9923 96.1033 32.9291 90.7499H12.422C10.4213 96.0959 8.75388 101.604 7.44487 107.25H28.1116ZM35.0545 85.2499H14.6216C17.0569 79.5346 19.8796 74.0236 23.0567 68.75H43.181C40.1198 74.0375 37.4009 79.5475 35.0545 85.2499ZM46.5398 63.25C50.2807 57.4353 54.448 51.9206 58.9977 46.75H39.6181C34.8474 51.8905 30.4768 57.407 26.5559 63.25H46.5398ZM64.1087 41.25C70.0728 35.1712 76.5973 29.6434 83.5988 24.7501H66.0392C58.4857 29.5469 51.447 35.0807 45.0245 41.25H64.1087ZM127.929 4.34537C115.184 7.62847 103.153 12.6903 92.1194 19.2501H75.5415C91.3924 10.9266 109.122 5.69143 127.929 4.34537ZM271.229 137.5C271.229 207.055 217.99 264.19 150 270.434C82.0104 264.19 28.7706 207.055 28.7706 137.5C28.7706 67.9452 82.0104 10.8095 150 4.56591C217.99 10.8095 271.229 67.9452 271.229 137.5ZM256.819 68.75C259.88 74.0375 262.599 79.5475 264.945 85.2499H285.378C282.943 79.5346 280.12 74.0236 276.943 68.75H256.819ZM271.888 107.25C270.621 101.611 269.008 96.1033 267.071 90.7499H287.578C289.579 96.0959 291.246 101.604 292.555 107.25H271.888ZM273.006 112.75C273.988 118.147 274.654 123.653 274.986 129.25H295.749C295.407 123.65 294.72 118.143 293.708 112.75H273.006ZM275.229 137.5C275.229 136.581 275.22 135.665 275.202 134.75H295.972C295.991 135.665 296 136.581 296 137.5C296 142.143 295.763 146.73 295.3 151.25H274.55C274.999 146.728 275.229 142.141 275.229 137.5ZM273.891 156.75C273.104 162.366 271.977 167.873 270.532 173.25H291.155C292.646 167.878 293.809 162.371 294.621 156.75H273.891ZM262.54 195.25C265.009 189.926 267.148 184.417 268.929 178.75H289.499C287.656 184.426 285.441 189.936 282.885 195.25H262.54ZM259.837 200.75C256.851 206.499 253.47 212.011 249.731 217.25H269.549C273.446 212.031 276.97 206.518 280.081 200.75H259.837ZM253.46 63.25H273.444C269.523 57.407 265.153 51.8905 260.382 46.75H241.002C245.552 51.9206 249.719 57.4353 253.46 63.25ZM235.891 41.25H254.975C248.553 35.0807 241.514 29.5469 233.961 24.7501H216.401C223.403 29.6434 229.927 35.1712 235.891 41.25ZM172.071 4.34537C190.878 5.69143 208.608 10.9266 224.458 19.2501H207.881C196.846 12.6903 184.816 7.62847 172.071 4.34537ZM230.176 239.25C235.753 234.182 240.912 228.663 245.595 222.75H265.214C260.259 228.71 254.795 234.232 248.888 239.25H230.176ZM223.739 244.75C218.729 248.772 213.431 252.45 207.881 255.75H224.459C230.59 252.53 236.441 248.848 241.964 244.75H223.739ZM172.071 270.655C180.987 268.358 189.552 265.191 197.672 261.25H212.605C199.944 266.384 186.317 269.635 172.071 270.655ZM150 274.451C145.92 274.814 141.789 275 137.615 275C61.6122 275 0 213.439 0 137.5C0 61.5608 61.6122 0 137.615 0C141.789 0 145.92 0.185716 150 0.549329C154.08 0.185716 158.211 0 162.385 0C238.388 0 300 61.5608 300 137.5C300 213.439 238.388 275 162.385 275C158.211 275 154.08 274.814 150 274.451Z"/>
</mask>
<path fill-rule="evenodd" clip-rule="evenodd" d="M69.8235 239.25C64.2465 234.182 59.0879 228.663 54.4054 222.75H34.7859C39.741 228.71 45.2052 234.232 51.112 239.25H69.8235ZM76.2612 244.75H58.036C64.1082 249.255 70.5763 253.258 77.3787 256.697H93.7367C87.5969 253.159 81.756 249.161 76.2612 244.75ZM127.929 270.655C113.684 269.635 100.057 266.384 87.3957 261.25H102.329C110.448 265.191 119.014 268.358 127.929 270.655ZM26.1086 156.75C26.896 162.366 28.0229 167.873 29.4679 173.25H8.84485C7.35426 167.878 6.19131 162.371 5.37885 156.75H26.1086ZM10.5005 178.75H31.0706C32.8519 184.417 34.9906 189.926 37.4602 195.25H17.1145C14.5585 189.936 12.3443 184.426 10.5005 178.75ZM19.9187 200.75C23.0303 206.518 26.5542 212.031 30.451 217.25H50.2688C46.5295 212.011 43.1488 206.499 40.1625 200.75H19.9187ZM25.4501 151.25C25.0007 146.728 24.7706 142.141 24.7706 137.5C24.7706 136.581 24.7796 135.665 24.7976 134.75H4.02778C4.00929 135.665 4 136.581 4 137.5C4 142.143 4.23718 146.73 4.70011 151.25H25.4501ZM25.0142 129.25H4.25097C4.5927 123.65 5.28001 118.143 6.29185 112.75H26.994C26.0122 118.147 25.3457 123.653 25.0142 129.25ZM28.1116 107.25C29.3786 101.611 30.9923 96.1033 32.9291 90.7499H12.422C10.4213 96.0959 8.75388 101.604 7.44487 107.25H28.1116ZM35.0545 85.2499H14.6216C17.0569 79.5346 19.8796 74.0236 23.0567 68.75H43.181C40.1198 74.0375 37.4009 79.5475 35.0545 85.2499ZM46.5398 63.25C50.2807 57.4353 54.448 51.9206 58.9977 46.75H39.6181C34.8474 51.8905 30.4768 57.407 26.5559 63.25H46.5398ZM64.1087 41.25C70.0728 35.1712 76.5973 29.6434 83.5988 24.7501H66.0392C58.4857 29.5469 51.447 35.0807 45.0245 41.25H64.1087ZM127.929 4.34537C115.184 7.62847 103.153 12.6903 92.1194 19.2501H75.5415C91.3924 10.9266 109.122 5.69143 127.929 4.34537ZM271.229 137.5C271.229 207.055 217.99 264.19 150 270.434C82.0104 264.19 28.7706 207.055 28.7706 137.5C28.7706 67.9452 82.0104 10.8095 150 4.56591C217.99 10.8095 271.229 67.9452 271.229 137.5ZM256.819 68.75C259.88 74.0375 262.599 79.5475 264.945 85.2499H285.378C282.943 79.5346 280.12 74.0236 276.943 68.75H256.819ZM271.888 107.25C270.621 101.611 269.008 96.1033 267.071 90.7499H287.578C289.579 96.0959 291.246 101.604 292.555 107.25H271.888ZM273.006 112.75C273.988 118.147 274.654 123.653 274.986 129.25H295.749C295.407 123.65 294.72 118.143 293.708 112.75H273.006ZM275.229 137.5C275.229 136.581 275.22 135.665 275.202 134.75H295.972C295.991 135.665 296 136.581 296 137.5C296 142.143 295.763 146.73 295.3 151.25H274.55C274.999 146.728 275.229 142.141 275.229 137.5ZM273.891 156.75C273.104 162.366 271.977 167.873 270.532 173.25H291.155C292.646 167.878 293.809 162.371 294.621 156.75H273.891ZM262.54 195.25C265.009 189.926 267.148 184.417 268.929 178.75H289.499C287.656 184.426 285.441 189.936 282.885 195.25H262.54ZM259.837 200.75C256.851 206.499 253.47 212.011 249.731 217.25H269.549C273.446 212.031 276.97 206.518 280.081 200.75H259.837ZM253.46 63.25H273.444C269.523 57.407 265.153 51.8905 260.382 46.75H241.002C245.552 51.9206 249.719 57.4353 253.46 63.25ZM235.891 41.25H254.975C248.553 35.0807 241.514 29.5469 233.961 24.7501H216.401C223.403 29.6434 229.927 35.1712 235.891 41.25ZM172.071 4.34537C190.878 5.69143 208.608 10.9266 224.458 19.2501H207.881C196.846 12.6903 184.816 7.62847 172.071 4.34537ZM230.176 239.25C235.753 234.182 240.912 228.663 245.595 222.75H265.214C260.259 228.71 254.795 234.232 248.888 239.25H230.176ZM223.739 244.75C218.729 248.772 213.431 252.45 207.881 255.75H224.459C230.59 252.53 236.441 248.848 241.964 244.75H223.739ZM172.071 270.655C180.987 268.358 189.552 265.191 197.672 261.25H212.605C199.944 266.384 186.317 269.635 172.071 270.655ZM150 274.451C145.92 274.814 141.789 275 137.615 275C61.6122 275 0 213.439 0 137.5C0 61.5608 61.6122 0 137.615 0C141.789 0 145.92 0.185716 150 0.549329C154.08 0.185716 158.211 0 162.385 0C238.388 0 300 61.5608 300 137.5C300 213.439 238.388 275 162.385 275C158.211 275 154.08 274.814 150 274.451Z" fill="#267D7A"/>
<path d="M54.4054 222.75L55.1894 222.129L54.8891 221.75H54.4054V222.75ZM69.8235 239.25V240.25H72.4109L70.496 238.51L69.8235 239.25ZM34.7859 222.75V221.75H32.6541L34.017 223.389L34.7859 222.75ZM51.112 239.25L50.4645 240.012L50.7446 240.25H51.112V239.25ZM58.036 244.75V243.75H55.0099L57.4401 245.553L58.036 244.75ZM76.2612 244.75L76.8872 243.97L76.6129 243.75H76.2612V244.75ZM77.3787 256.697L76.9276 257.589L77.1403 257.697H77.3787V256.697ZM93.7367 256.697V257.697H97.4752L94.236 255.83L93.7367 256.697ZM87.3957 261.25V260.25L87.0199 262.177L87.3957 261.25ZM127.929 270.655L127.858 271.652L128.179 269.686L127.929 270.655ZM102.329 261.25L102.765 260.35L102.559 260.25H102.329V261.25ZM29.4679 173.25V174.25H30.7721L30.4336 172.99L29.4679 173.25ZM26.1086 156.75L27.0989 156.611L26.9781 155.75H26.1086V156.75ZM8.84485 173.25L7.88127 173.517L8.08457 174.25H8.84485V173.25ZM5.37885 156.75V155.75H4.22391L4.38913 156.893L5.37885 156.75ZM31.0706 178.75L32.0245 178.45L31.8045 177.75H31.0706V178.75ZM10.5005 178.75V177.75H9.12417L9.54937 179.059L10.5005 178.75ZM37.4602 195.25V196.25H39.0264L38.3674 194.829L37.4602 195.25ZM17.1145 195.25L16.2133 195.683L16.4858 196.25H17.1145V195.25ZM30.451 217.25L29.6497 217.848L29.9497 218.25H30.451V217.25ZM19.9187 200.75V199.75H18.243L19.0386 201.225L19.9187 200.75ZM50.2688 217.25V218.25H52.2112L51.0827 216.669L50.2688 217.25ZM40.1625 200.75L41.0499 200.289L40.7699 199.75H40.1625V200.75ZM25.4501 151.25V152.25H26.5544L26.4452 151.151L25.4501 151.25ZM24.7976 134.75L25.7974 134.77L25.8174 133.75H24.7976V134.75ZM4.02778 134.75V133.75H3.0478L3.02799 134.73L4.02778 134.75ZM4.70011 151.25L3.70531 151.352L3.79728 152.25H4.70011V151.25ZM4.25097 129.25L3.25283 129.189L3.18809 130.25H4.25097V129.25ZM25.0142 129.25V130.25H25.9567L26.0125 129.309L25.0142 129.25ZM6.29185 112.75V111.75H5.46203L5.309 112.566L6.29185 112.75ZM26.994 112.75L27.9778 112.929L28.1923 111.75H26.994V112.75ZM32.9291 90.7499L33.8695 91.0902L34.3543 89.7499H32.9291V90.7499ZM28.1116 107.25V108.25H28.9119L29.0873 107.469L28.1116 107.25ZM12.422 90.7499V89.7499H11.7285L11.4854 90.3995L12.422 90.7499ZM7.44487 107.25L6.47071 107.024L6.18648 108.25H7.44487V107.25ZM14.6216 85.2499L13.7016 84.858L13.1085 86.2499H14.6216V85.2499ZM35.0545 85.2499V86.2499H35.7244L35.9793 85.6305L35.0545 85.2499ZM23.0567 68.75V67.75H22.4917L22.2001 68.2339L23.0567 68.75ZM43.181 68.75L44.0464 69.251L44.9155 67.75H43.181V68.75ZM58.9977 46.75L59.7485 47.4106L61.2097 45.75H58.9977V46.75ZM46.5398 63.25V64.25H47.0856L47.3808 63.791L46.5398 63.25ZM39.6181 46.75V45.75H39.1819L38.8852 46.0698L39.6181 46.75ZM26.5559 63.25L25.7256 62.6928L24.6806 64.25H26.5559V63.25ZM83.5988 24.7501L84.1716 25.5697L86.7752 23.7501H83.5988V24.7501ZM64.1087 41.25V42.25H64.5285L64.8225 41.9504L64.1087 41.25ZM66.0392 24.7501V23.7501H65.7485L65.5031 23.9059L66.0392 24.7501ZM45.0245 41.25L44.3317 40.5288L42.5399 42.25H45.0245V41.25ZM92.1194 19.2501V20.2501H92.3942L92.6304 20.1096L92.1194 19.2501ZM127.929 4.34537L128.179 5.31376L127.858 3.34792L127.929 4.34537ZM75.5415 19.2501L75.0766 18.3647L75.5415 20.2501V19.2501ZM150 270.434L149.909 271.43L150 271.438L150.091 271.43L150 270.434ZM150 4.56591L150.091 3.5701L150 3.5617L149.909 3.5701L150 4.56591ZM264.945 85.2499L264.021 85.6305L264.276 86.2499H264.945V85.2499ZM256.819 68.75V67.75H255.084L255.954 69.251L256.819 68.75ZM285.378 85.2499V86.2499H286.891L286.298 84.858L285.378 85.2499ZM276.943 68.75L277.8 68.2339L277.508 67.75H276.943V68.75ZM267.071 90.7499V89.7499H265.646L266.13 91.0902L267.071 90.7499ZM271.888 107.25L270.913 107.469L271.088 108.25H271.888V107.25ZM287.578 90.7499L288.515 90.3995L288.271 89.7499H287.578V90.7499ZM292.555 107.25V108.25H293.813L293.529 107.024L292.555 107.25ZM274.986 129.25L273.987 129.309L274.043 130.25H274.986V129.25ZM273.006 112.75V111.75H271.808L272.022 112.929L273.006 112.75ZM295.749 129.25V130.25H296.812L296.747 129.189L295.749 129.25ZM293.708 112.75L294.691 112.566L294.538 111.75H293.708V112.75ZM275.202 134.75V133.75H274.183L274.203 134.77L275.202 134.75ZM295.972 134.75L296.972 134.73L296.952 133.75H295.972V134.75ZM295.3 151.25V152.25H296.203L296.295 151.352L295.3 151.25ZM274.55 151.25L273.555 151.151L273.446 152.25H274.55V151.25ZM270.532 173.25L269.566 172.99L269.228 174.25H270.532V173.25ZM273.891 156.75V155.75H273.022L272.901 156.611L273.891 156.75ZM291.155 173.25V174.25H291.915L292.119 173.517L291.155 173.25ZM294.621 156.75L295.611 156.893L295.776 155.75H294.621V156.75ZM268.929 178.75V177.75H268.195L267.975 178.45L268.929 178.75ZM262.54 195.25L261.633 194.829L260.974 196.25H262.54V195.25ZM289.499 178.75L290.451 179.059L290.876 177.75H289.499V178.75ZM282.885 195.25V196.25H283.514L283.787 195.683L282.885 195.25ZM259.837 200.75V199.75H259.23L258.95 200.289L259.837 200.75ZM249.731 217.25L248.917 216.669L247.789 218.25H249.731V217.25ZM269.549 217.25V218.25H270.05L270.35 217.848L269.549 217.25ZM280.081 200.75L280.961 201.225L281.757 199.75H280.081V200.75ZM273.444 63.25V64.25H275.319L274.274 62.6928L273.444 63.25ZM253.46 63.25L252.619 63.791L252.914 64.25H253.46V63.25ZM260.382 46.75L261.115 46.0698L260.818 45.75H260.382V46.75ZM241.002 46.75V45.75H238.79L240.251 47.4106L241.002 46.75ZM254.975 41.25V42.25H257.46L255.668 40.5288L254.975 41.25ZM235.891 41.25L235.177 41.9504L235.471 42.25H235.891V41.25ZM233.961 24.7501L234.497 23.9059L234.251 23.7501H233.961V24.7501ZM216.401 24.7501V23.7501H213.225L215.828 25.5697L216.401 24.7501ZM224.458 19.2501V20.2501L224.923 18.3647L224.458 19.2501ZM172.071 4.34537L172.142 3.34792L171.821 5.31376L172.071 4.34537ZM207.881 19.2501L207.37 20.1096L207.606 20.2501H207.881V19.2501ZM245.595 222.75V221.75H245.111L244.811 222.129L245.595 222.75ZM230.176 239.25L229.504 238.51L227.589 240.25H230.176V239.25ZM265.214 222.75L265.983 223.389L267.346 221.75H265.214V222.75ZM248.888 239.25V240.25H249.255L249.535 240.012L248.888 239.25ZM207.881 255.75L207.37 254.89L204.242 256.75H207.881V255.75ZM223.739 244.75V243.75H223.387L223.113 243.97L223.739 244.75ZM224.459 255.75V256.75H224.705L224.924 256.635L224.459 255.75ZM241.964 244.75L242.56 245.553L244.99 243.75H241.964V244.75ZM197.672 261.25V260.25H197.442L197.235 260.35L197.672 261.25ZM172.071 270.655L171.821 269.686L172.142 271.652L172.071 270.655ZM212.605 261.25L212.981 262.177L212.605 260.25V261.25ZM150 274.451L150.089 273.455L150 273.447L149.911 273.455L150 274.451ZM150 0.549329L149.911 1.54538L150 1.55329L150.089 1.54538L150 0.549329ZM53.6215 223.371C58.3378 229.327 63.5337 234.886 69.1509 239.99L70.496 238.51C64.9593 233.479 59.838 227.999 55.1894 222.129L53.6215 223.371ZM34.7859 223.75H54.4054V221.75H34.7859V223.75ZM51.7594 238.488C45.8966 233.507 40.473 228.026 35.5549 222.111L34.017 223.389C39.0089 229.394 44.5138 234.957 50.4645 240.012L51.7594 238.488ZM69.8235 238.25H51.112V240.25H69.8235V238.25ZM58.036 245.75H76.2612V243.75H58.036V245.75ZM77.8298 255.804C71.0785 252.391 64.6588 248.419 58.6318 243.947L57.4401 245.553C63.5576 250.092 70.0741 254.125 76.9276 257.589L77.8298 255.804ZM93.7367 255.697H77.3787V257.697H93.7367V255.697ZM75.6352 245.53C81.1697 249.973 87.0529 253.999 93.2374 257.563L94.236 255.83C88.1408 252.318 82.3422 248.349 76.8872 243.97L75.6352 245.53ZM87.0199 262.177C99.7763 267.35 113.506 270.625 127.858 271.652L128 269.657C113.861 268.645 100.337 265.419 87.7715 260.323L87.0199 262.177ZM102.329 260.25H87.3957V262.25H102.329V260.25ZM128.179 269.686C119.328 267.407 110.826 264.263 102.765 260.35L101.892 262.15C110.071 266.12 118.699 269.31 127.68 271.623L128.179 269.686ZM30.4336 172.99C28.9992 167.653 27.8805 162.186 27.0989 156.611L25.1183 156.889C25.9114 162.546 27.0465 168.093 28.5021 173.509L30.4336 172.99ZM8.84485 174.25H29.4679V172.25H8.84485V174.25ZM4.38913 156.893C5.2077 162.556 6.37941 168.105 7.88127 173.517L9.80844 172.982C8.32911 167.652 7.17492 162.186 6.36856 156.607L4.38913 156.893ZM26.1086 155.75H5.37885V157.75H26.1086V155.75ZM31.0706 177.75H10.5005V179.75H31.0706V177.75ZM38.3674 194.829C35.9158 189.544 33.7928 184.075 32.0245 178.45L30.1166 179.05C31.911 184.758 34.0654 190.307 36.553 195.671L38.3674 194.829ZM17.1145 196.25H37.4602V194.25H17.1145V196.25ZM9.54937 179.059C11.4072 184.778 13.6381 190.329 16.2133 195.683L18.0156 194.817C15.4789 189.542 13.2815 184.074 11.4515 178.441L9.54937 179.059ZM31.2523 216.652C27.3845 211.472 23.887 206 20.7988 200.275L19.0386 201.225C22.1735 207.036 25.7238 212.59 29.6497 217.848L31.2523 216.652ZM50.2688 216.25H30.451V218.25H50.2688V216.25ZM39.2751 201.211C42.2831 207.002 45.6884 212.554 49.4549 217.831L51.0827 216.669C47.3705 211.468 44.0144 205.996 41.0499 200.289L39.2751 201.211ZM19.9187 201.75H40.1625V199.75H19.9187V201.75ZM23.7706 137.5C23.7706 142.174 24.0023 146.794 24.455 151.349L26.4452 151.151C25.999 146.662 25.7706 142.108 25.7706 137.5H23.7706ZM23.7978 134.73C23.7797 135.651 23.7706 136.575 23.7706 137.5H25.7706C25.7706 136.588 25.7795 135.678 25.7974 134.77L23.7978 134.73ZM4.02778 135.75H24.7976V133.75H4.02778V135.75ZM5 137.5C5 136.588 5.00922 135.678 5.02758 134.77L3.02799 134.73C3.00936 135.651 3 136.574 3 137.5H5ZM5.6949 151.148C5.23544 146.662 5 142.108 5 137.5H3C3 142.177 3.23893 146.798 3.70531 151.352L5.6949 151.148ZM25.4501 150.25H4.70011V152.25H25.4501V150.25ZM4.25097 130.25H25.0142V128.25H4.25097V130.25ZM5.309 112.566C4.28953 117.999 3.5971 123.547 3.25283 129.189L5.24911 129.311C5.58831 123.752 6.27048 118.286 7.2747 112.934L5.309 112.566ZM26.994 111.75H6.29185V113.75H26.994V111.75ZM26.0125 129.309C26.3415 123.753 27.0032 118.286 27.9778 112.929L26.0101 112.571C25.0212 118.007 24.3498 123.554 24.016 129.191L26.0125 129.309ZM31.9888 90.4097C30.0377 95.8023 28.4122 101.351 27.136 107.031L29.0873 107.469C30.345 101.872 31.9468 96.4042 33.8695 91.0902L31.9888 90.4097ZM12.422 91.7499H32.9291V89.7499H12.422V91.7499ZM8.41903 107.476C9.71815 101.873 11.373 96.406 13.3585 91.1004L11.4854 90.3995C9.46965 95.7858 7.78961 101.336 6.47071 107.024L8.41903 107.476ZM28.1116 106.25H7.44487V108.25H28.1116V106.25ZM14.6216 86.2499H35.0545V84.2499H14.6216V86.2499ZM22.2001 68.2339C18.9992 73.5471 16.1553 79.0995 13.7016 84.858L15.5416 85.6419C17.9585 79.9697 20.7599 74.5002 23.9133 69.266L22.2001 68.2339ZM43.181 67.75H23.0567V69.75H43.181V67.75ZM35.9793 85.6305C38.3085 79.9698 41.0075 74.5 44.0464 69.251L42.3156 68.2489C39.2321 73.5749 36.4933 79.1253 34.1297 84.8694L35.9793 85.6305ZM58.247 46.0894C53.6644 51.2974 49.4668 56.852 45.6988 62.7089L47.3808 63.791C51.0945 58.0186 55.2316 52.5438 59.7485 47.4106L58.247 46.0894ZM39.6181 47.75H58.9977V45.75H39.6181V47.75ZM27.3863 63.8072C31.2779 58.0079 35.6159 52.5325 40.3511 47.4303L38.8852 46.0698C34.0789 51.2485 29.6758 56.8061 25.7256 62.6928L27.3863 63.8072ZM46.5398 62.25H26.5559V64.25H46.5398V62.25ZM83.0259 23.9304C75.9738 28.8592 69.402 34.427 63.3949 40.5497L64.8225 41.9504C70.7435 35.9155 77.2209 30.4276 84.1716 25.5697L83.0259 23.9304ZM66.0392 25.7501H83.5988V23.7501H66.0392V25.7501ZM45.7172 41.9712C52.092 35.8477 59.0783 30.3552 66.5753 25.5942L65.5031 23.9059C57.8932 28.7386 50.8021 34.3136 44.3317 40.5288L45.7172 41.9712ZM64.1087 40.25H45.0245V42.25H64.1087V40.25ZM92.6304 20.1096C103.584 13.5975 115.527 8.5728 128.179 5.31376L127.68 3.37698C114.841 6.68414 102.723 11.783 91.6084 18.3905L92.6304 20.1096ZM75.5415 20.2501H92.1194V18.2501H75.5415V20.2501ZM127.858 3.34792C108.91 4.70403 91.0469 9.97853 75.0766 18.3647L76.0064 20.1354C91.7379 11.8746 109.334 6.67882 128 5.34282L127.858 3.34792ZM150.091 271.43C218.59 265.139 272.229 207.577 272.229 137.5H270.229C270.229 206.533 217.389 263.241 149.909 269.438L150.091 271.43ZM27.7706 137.5C27.7706 207.577 81.4097 265.139 149.909 271.43L150.091 269.438C82.6111 263.241 29.7706 206.533 29.7706 137.5H27.7706ZM149.909 3.5701C81.4097 9.86047 27.7706 67.4229 27.7706 137.5H29.7706C29.7706 68.4674 82.6111 11.7586 150.091 5.56172L149.909 3.5701ZM272.229 137.5C272.229 67.4229 218.59 9.86047 150.091 3.5701L149.909 5.56172C217.389 11.7586 270.229 68.4674 270.229 137.5H272.229ZM265.87 84.8694C263.507 79.1252 260.768 73.5749 257.684 68.2489L255.954 69.251C258.992 74.5 261.691 79.9698 264.021 85.6305L265.87 84.8694ZM285.378 84.2499H264.945V86.2499H285.378V84.2499ZM276.087 69.266C279.24 74.5002 282.041 79.9697 284.458 85.6419L286.298 84.858C283.845 79.0995 281.001 73.5471 277.8 68.2339L276.087 69.266ZM256.819 69.75H276.943V67.75H256.819V69.75ZM266.13 91.0902C268.053 96.4042 269.655 101.872 270.913 107.469L272.864 107.031C271.588 101.351 269.962 95.8023 268.011 90.4097L266.13 91.0902ZM287.578 89.7499H267.071V91.7499H287.578V89.7499ZM293.529 107.024C292.21 101.336 290.53 95.7858 288.515 90.3995L286.641 91.1004C288.627 96.406 290.282 101.873 291.581 107.476L293.529 107.024ZM271.888 108.25H292.555V106.25H271.888V108.25ZM275.984 129.191C275.65 123.554 274.979 118.007 273.99 112.571L272.022 112.929C272.997 118.286 273.658 123.753 273.987 129.309L275.984 129.191ZM295.749 128.25H274.986V130.25H295.749V128.25ZM292.725 112.934C293.729 118.286 294.412 123.752 294.751 129.311L296.747 129.189C296.403 123.547 295.71 117.999 294.691 112.566L292.725 112.934ZM273.006 113.75H293.708V111.75H273.006V113.75ZM274.203 134.77C274.22 135.678 274.229 136.588 274.229 137.5H276.229C276.229 136.575 276.22 135.651 276.202 134.73L274.203 134.77ZM295.972 133.75H275.202V135.75H295.972V133.75ZM297 137.5C297 136.574 296.991 135.651 296.972 134.73L294.972 134.77C294.991 135.678 295 136.588 295 137.5H297ZM296.295 151.352C296.761 146.798 297 142.177 297 137.5H295C295 142.108 294.764 146.662 294.305 151.148L296.295 151.352ZM274.55 152.25H295.3V150.25H274.55V152.25ZM274.229 137.5C274.229 142.108 274.001 146.662 273.555 151.151L275.545 151.349C275.998 146.794 276.229 142.174 276.229 137.5H274.229ZM271.498 173.509C272.953 168.093 274.089 162.546 274.882 156.889L272.901 156.611C272.119 162.186 271.001 167.653 269.566 172.99L271.498 173.509ZM291.155 172.25H270.532V174.25H291.155V172.25ZM293.631 156.607C292.825 162.186 291.671 167.652 290.191 172.982L292.119 173.517C293.621 168.105 294.792 162.556 295.611 156.893L293.631 156.607ZM273.891 157.75H294.621V155.75H273.891V157.75ZM267.975 178.45C266.207 184.075 264.084 189.544 261.633 194.829L263.447 195.671C265.935 190.307 268.089 184.758 269.883 179.05L267.975 178.45ZM289.499 177.75H268.929V179.75H289.499V177.75ZM283.787 195.683C286.362 190.329 288.593 184.778 290.451 179.059L288.548 178.441C286.718 184.074 284.521 189.542 281.984 194.817L283.787 195.683ZM282.885 194.25H262.54V196.25H282.885V194.25ZM258.95 200.289C255.986 205.996 252.629 211.468 248.917 216.669L250.545 217.831C254.311 212.554 257.717 207.002 260.725 201.211L258.95 200.289ZM249.731 218.25H269.549V216.25H249.731V218.25ZM270.35 217.848C274.276 212.59 277.826 207.036 280.961 201.225L279.201 200.275C276.113 206 272.615 211.472 268.748 216.652L270.35 217.848ZM259.837 201.75H280.081V199.75H259.837V201.75ZM273.444 62.25H253.46V64.25H273.444V62.25ZM259.649 47.4303C264.384 52.5325 268.722 58.0079 272.614 63.8072L274.274 62.6928C270.324 56.8061 265.921 51.2485 261.115 46.0698L259.649 47.4303ZM241.002 47.75H260.382V45.75H241.002V47.75ZM254.301 62.7089C250.533 56.852 246.336 51.2974 241.753 46.0894L240.251 47.4106C244.768 52.5438 248.905 58.0186 252.619 63.791L254.301 62.7089ZM254.975 40.25H235.891V42.25H254.975V40.25ZM233.425 25.5942C240.922 30.3552 247.908 35.8477 254.283 41.9712L255.668 40.5288C249.198 34.3136 242.107 28.7386 234.497 23.9059L233.425 25.5942ZM216.401 25.7501H233.961V23.7501H216.401V25.7501ZM236.605 40.5497C230.598 34.427 224.026 28.8592 216.974 23.9304L215.828 25.5697C222.779 30.4276 229.256 35.9155 235.177 41.9504L236.605 40.5497ZM224.923 18.3647C208.953 9.97853 191.09 4.70403 172.142 3.34792L171.999 5.34282C190.666 6.67882 208.262 11.8746 223.994 20.1354L224.923 18.3647ZM207.881 20.2501H224.458V18.2501H207.881V20.2501ZM171.821 5.31376C184.473 8.5728 196.416 13.5975 207.37 20.1096L208.392 18.3905C197.277 11.783 185.159 6.68414 172.32 3.37698L171.821 5.31376ZM244.811 222.129C240.162 227.999 235.041 233.479 229.504 238.51L230.849 239.99C236.466 234.886 241.662 229.327 246.378 223.371L244.811 222.129ZM265.214 221.75H245.595V223.75H265.214V221.75ZM249.535 240.012C255.486 234.957 260.991 229.394 265.983 223.389L264.445 222.111C259.527 228.026 254.103 233.507 248.241 238.488L249.535 240.012ZM230.176 240.25H248.888V238.25H230.176V240.25ZM208.392 256.609C213.982 253.286 219.318 249.581 224.365 245.53L223.113 243.97C218.139 247.963 212.879 251.615 207.37 254.89L208.392 256.609ZM224.459 254.75H207.881V256.75H224.459V254.75ZM241.368 243.947C235.886 248.014 230.079 251.669 223.994 254.864L224.924 256.635C231.101 253.391 236.996 249.682 242.56 245.553L241.368 243.947ZM223.739 245.75H241.964V243.75H223.739V245.75ZM197.235 260.35C189.175 264.263 180.672 267.406 171.821 269.686L172.32 271.623C181.301 269.31 189.93 266.119 198.108 262.149L197.235 260.35ZM212.605 260.25H197.672V262.25H212.605V260.25ZM172.142 271.652C186.494 270.625 200.224 267.35 212.981 262.177L212.229 260.323C199.664 265.419 186.139 268.645 171.999 269.657L172.142 271.652ZM137.615 276C141.819 276 145.979 275.813 150.089 275.447L149.911 273.455C145.861 273.816 141.759 274 137.615 274V276ZM-1 137.5C-1 213.992 61.0607 276 137.615 276V274C62.1637 274 1 212.886 1 137.5H-1ZM137.615 -1C61.0607 -1 -1 61.0078 -1 137.5H1C1 62.1139 62.1637 1 137.615 1V-1ZM150.089 -0.446723C145.979 -0.812964 141.819 -1 137.615 -1V1C141.759 1 145.861 1.18439 149.911 1.54538L150.089 -0.446723ZM162.385 -1C158.181 -1 154.02 -0.812964 149.911 -0.446723L150.089 1.54538C154.139 1.18439 158.24 1 162.385 1V-1ZM301 137.5C301 61.0078 238.939 -1 162.385 -1V1C237.836 1 299 62.1139 299 137.5H301ZM162.385 276C238.939 276 301 213.992 301 137.5H299C299 212.886 237.836 274 162.385 274V276ZM149.911 275.447C154.02 275.813 158.181 276 162.385 276V274C158.24 274 154.139 273.816 150.089 273.455L149.911 275.447Z" fill="black" mask="url(#path-1-inside-1_578_3401)"/>
</svg>
