<svg width="56" height="78" viewBox="0 0 56 78" fill="none" xmlns="http://www.w3.org/2000/svg">
<mask id="path-1-outside-1_599_186" maskUnits="userSpaceOnUse" x="-1" y="0.000488281" width="58" height="79" fill="black">
<rect fill="white" x="-1" y="0.000488281" width="58" height="79"/>
<path fill-rule="evenodd" clip-rule="evenodd" d="M7.11105 4.24402C6.62722 4.35185 6.15758 4.53609 5.71926 4.79087C5.22814 5.07635 4.79352 5.4404 4.43458 5.86614C3.94351 5.95383 3.41793 6.12858 2.88711 6.43713C0.857468 7.61691 0.929752 8.40662 1.05111 9.73252C1.06079 9.83818 1.07077 9.94723 1.08002 10.0602C1.71689 11.3207 2.41357 12.7079 3.15087 14.176C6.65279 21.149 11.0707 29.9457 14.3443 35.6544C15.0887 36.9524 15.8044 37.8243 17.8993 38.0784C18.6922 38.1746 19.4717 38.4781 20.209 38.7743C20.4891 39.3096 20.7715 39.85 21.056 40.395C15.3157 49.5679 8.83736 60.0622 4.67315 67.9701C4.29403 69.6713 3.88446 73.8569 7.78927 76.1266C10.72 77.8302 14.097 76.8947 16.3877 74.6008C20.237 68.1963 24.1952 60.899 27.9999 53.6859C31.8046 60.899 35.7628 68.1963 39.6121 74.6008C41.9028 76.8947 45.2798 77.8302 48.2106 76.1266C52.1154 73.8569 51.7058 69.6713 51.3267 67.9701C47.1625 60.0622 40.6841 49.5679 34.9439 40.395C35.2283 39.85 35.5107 39.3096 35.7908 38.7743C36.5281 38.4781 37.3076 38.1746 38.1006 38.0784C40.1954 37.8243 40.9111 36.9524 41.6555 35.6544C44.9292 29.9457 49.347 21.149 52.849 14.176C53.5863 12.7079 54.2829 11.3207 54.9198 10.0602C54.9291 9.94723 54.939 9.83817 54.9487 9.73252C55.0701 8.40662 55.1424 7.61691 53.1127 6.43713C52.5819 6.12858 52.0563 5.95383 51.5652 5.86614C51.2063 5.4404 50.7717 5.07635 50.2806 4.79087C49.8422 4.53609 49.3726 4.35185 48.8888 4.24402C48.5541 3.87608 48.1608 3.55871 47.7225 3.30393C47.2314 3.01845 46.7009 2.82153 46.1552 2.72144C45.8343 2.33711 45.4212 1.96623 44.8903 1.65768C43.3867 0.783678 41.7176 0.81881 40.2652 1.54183C38.5052 4.45761 36.1391 8.05659 33.6838 11.7913C31.7612 14.7158 29.7838 17.7234 27.9999 20.5515C26.216 17.7234 24.2387 14.7158 22.3161 11.7913C19.8607 8.0566 17.4946 4.45761 15.7347 1.54183C14.2822 0.81881 12.6131 0.783678 11.1095 1.65768C10.5787 1.96623 10.1656 2.33711 9.8446 2.72144C9.29892 2.82153 8.76846 3.01845 8.27734 3.30393C7.83902 3.55871 7.44572 3.87608 7.11105 4.24402Z"/>
</mask>
<path fill-rule="evenodd" clip-rule="evenodd" d="M7.11105 4.24402C6.62722 4.35185 6.15758 4.53609 5.71926 4.79087C5.22814 5.07635 4.79352 5.4404 4.43458 5.86614C3.94351 5.95383 3.41793 6.12858 2.88711 6.43713C0.857468 7.61691 0.929752 8.40662 1.05111 9.73252C1.06079 9.83818 1.07077 9.94723 1.08002 10.0602C1.71689 11.3207 2.41357 12.7079 3.15087 14.176C6.65279 21.149 11.0707 29.9457 14.3443 35.6544C15.0887 36.9524 15.8044 37.8243 17.8993 38.0784C18.6922 38.1746 19.4717 38.4781 20.209 38.7743C20.4891 39.3096 20.7715 39.85 21.056 40.395C15.3157 49.5679 8.83736 60.0622 4.67315 67.9701C4.29403 69.6713 3.88446 73.8569 7.78927 76.1266C10.72 77.8302 14.097 76.8947 16.3877 74.6008C20.237 68.1963 24.1952 60.899 27.9999 53.6859C31.8046 60.899 35.7628 68.1963 39.6121 74.6008C41.9028 76.8947 45.2798 77.8302 48.2106 76.1266C52.1154 73.8569 51.7058 69.6713 51.3267 67.9701C47.1625 60.0622 40.6841 49.5679 34.9439 40.395C35.2283 39.85 35.5107 39.3096 35.7908 38.7743C36.5281 38.4781 37.3076 38.1746 38.1006 38.0784C40.1954 37.8243 40.9111 36.9524 41.6555 35.6544C44.9292 29.9457 49.347 21.149 52.849 14.176C53.5863 12.7079 54.2829 11.3207 54.9198 10.0602C54.9291 9.94723 54.939 9.83817 54.9487 9.73252C55.0701 8.40662 55.1424 7.61691 53.1127 6.43713C52.5819 6.12858 52.0563 5.95383 51.5652 5.86614C51.2063 5.4404 50.7717 5.07635 50.2806 4.79087C49.8422 4.53609 49.3726 4.35185 48.8888 4.24402C48.5541 3.87608 48.1608 3.55871 47.7225 3.30393C47.2314 3.01845 46.7009 2.82153 46.1552 2.72144C45.8343 2.33711 45.4212 1.96623 44.8903 1.65768C43.3867 0.783678 41.7176 0.81881 40.2652 1.54183C38.5052 4.45761 36.1391 8.05659 33.6838 11.7913C31.7612 14.7158 29.7838 17.7234 27.9999 20.5515C26.216 17.7234 24.2387 14.7158 22.3161 11.7913C19.8607 8.0566 17.4946 4.45761 15.7347 1.54183C14.2822 0.81881 12.6131 0.783678 11.1095 1.65768C10.5787 1.96623 10.1656 2.33711 9.8446 2.72144C9.29892 2.82153 8.76846 3.01845 8.27734 3.30393C7.83902 3.55871 7.44572 3.87608 7.11105 4.24402Z" fill="white"/>
<path d="M5.71926 4.79087L5.21672 3.92632L5.21672 3.92632L5.71926 4.79087ZM7.11105 4.24402L7.32858 5.22007L7.63771 5.15118L7.85081 4.91688L7.11105 4.24402ZM4.43458 5.86614L4.61037 6.85057L4.96616 6.78703L5.19912 6.51072L4.43458 5.86614ZM2.88711 6.43713L2.38456 5.57258H2.38456L2.88711 6.43713ZM1.05111 9.73252L0.0552775 9.82367L0.0552775 9.82368L1.05111 9.73252ZM1.08002 10.0602L0.0833642 10.1418L0.0993294 10.3366L0.187469 10.5111L1.08002 10.0602ZM3.15087 14.176L2.25723 14.6248H2.25723L3.15087 14.176ZM14.3443 35.6544L13.4768 36.1518L13.4768 36.1518L14.3443 35.6544ZM17.8993 38.0784L18.0197 37.0857H18.0197L17.8993 38.0784ZM20.209 38.7743L21.095 38.3106L20.924 37.9839L20.5818 37.8464L20.209 38.7743ZM21.056 40.395L21.9037 40.9255L22.2075 40.44L21.9425 39.9323L21.056 40.395ZM4.67315 67.9701L3.78833 67.5042L3.72613 67.6223L3.6971 67.7526L4.67315 67.9701ZM7.78927 76.1266L7.28673 76.9912H7.28673L7.78927 76.1266ZM16.3877 74.6008L17.0953 75.3074L17.1818 75.2208L17.2448 75.1159L16.3877 74.6008ZM27.9999 53.6859L28.8844 53.2193L27.9999 51.5425L27.1154 53.2193L27.9999 53.6859ZM39.6121 74.6008L38.755 75.1159L38.8181 75.2208L38.9045 75.3074L39.6121 74.6008ZM48.2106 76.1266L48.7131 76.9912L48.2106 76.1266ZM51.3267 67.9701L52.3027 67.7526L52.2737 67.6223L52.2115 67.5042L51.3267 67.9701ZM34.9439 40.395L34.0574 39.9323L33.7923 40.44L34.0962 40.9255L34.9439 40.395ZM35.7908 38.7743L35.418 37.8464L35.0758 37.9839L34.9048 38.3106L35.7908 38.7743ZM38.1006 38.0784L37.9802 37.0857H37.9802L38.1006 38.0784ZM41.6555 35.6544L42.523 36.1518H42.523L41.6555 35.6544ZM52.849 14.176L53.7426 14.6248L52.849 14.176ZM54.9198 10.0602L55.8124 10.5111L55.9005 10.3366L55.9165 10.1418L54.9198 10.0602ZM54.9487 9.73252L53.9529 9.64137V9.64137L54.9487 9.73252ZM53.1127 6.43713L53.6153 5.57258L53.1127 6.43713ZM51.5652 5.86614L50.8007 6.51072L51.0337 6.78703L51.3895 6.85057L51.5652 5.86614ZM50.2806 4.79087L50.7831 3.92632L50.7831 3.92632L50.2806 4.79087ZM48.8888 4.24402L48.149 4.91689L48.3621 5.15118L48.6712 5.22007L48.8888 4.24402ZM47.7225 3.30393L48.225 2.43938L48.225 2.43938L47.7225 3.30393ZM46.1552 2.72144L45.3877 3.36244L45.6193 3.63983L45.9748 3.70503L46.1552 2.72144ZM44.8903 1.65768L44.3878 2.52223V2.52223L44.8903 1.65768ZM40.2652 1.54183L39.8195 0.646621L39.5593 0.776177L39.409 1.02507L40.2652 1.54183ZM33.6838 11.7913L32.8482 11.242L33.6838 11.7913ZM27.9999 20.5515L27.1541 21.085L27.9999 22.4259L28.8457 21.085L27.9999 20.5515ZM22.3161 11.7913L23.1517 11.242L22.3161 11.7913ZM15.7347 1.54183L16.5908 1.02507L16.4405 0.776177L16.1803 0.646621L15.7347 1.54183ZM11.1095 1.65768L11.612 2.52223V2.52223L11.1095 1.65768ZM9.8446 2.72144L10.025 3.70503L10.3805 3.63983L10.6121 3.36244L9.8446 2.72144ZM8.27734 3.30393L8.77988 4.16849L8.77988 4.16848L8.27734 3.30393ZM6.2218 5.65543C6.57297 5.4513 6.94667 5.30519 7.32858 5.22007L6.89352 3.26797C6.30777 3.39851 5.74218 3.62088 5.21672 3.92632L6.2218 5.65543ZM5.19912 6.51072C5.48276 6.1743 5.8283 5.88416 6.2218 5.65543L5.21672 3.92632C4.62797 4.26855 4.10428 4.70651 3.67005 5.22156L5.19912 6.51072ZM3.38965 7.30169C3.81215 7.0561 4.22583 6.91924 4.61037 6.85057L4.25879 4.88171C3.66119 4.98843 3.02371 5.20106 2.38456 5.57258L3.38965 7.30169ZM2.04695 9.64137C1.98111 8.92199 1.97898 8.66172 2.08057 8.42641C2.17325 8.21174 2.4368 7.85555 3.38965 7.30169L2.38456 5.57258C1.30778 6.19849 0.592644 6.82704 0.244397 7.63365C-0.094937 8.41962 -0.000238657 9.21715 0.0552775 9.82367L2.04695 9.64137ZM2.07668 9.97848C2.06698 9.86008 2.05656 9.7464 2.04695 9.64137L0.0552775 9.82368C0.0650058 9.92996 0.0745574 10.0344 0.0833642 10.1418L2.07668 9.97848ZM4.0445 13.7272C3.30734 12.2594 2.61008 10.8711 1.97258 9.60922L0.187469 10.5111C0.823685 11.7704 1.51981 13.1565 2.25723 14.6248L4.0445 13.7272ZM15.2118 35.1569C11.9551 29.4778 7.55142 20.7101 4.0445 13.7272L2.25723 14.6248C5.75415 21.5878 10.1862 30.4136 13.4768 36.1518L15.2118 35.1569ZM18.0197 37.0857C17.099 36.974 16.5814 36.7402 16.2263 36.4662C15.8555 36.18 15.5704 35.7822 15.2118 35.1569L13.4768 36.1518C13.8626 36.8246 14.3076 37.5117 15.0044 38.0495C15.717 38.5995 16.6046 38.9287 17.7788 39.0711L18.0197 37.0857ZM20.5818 37.8464C19.8582 37.5557 18.9621 37.2 18.0197 37.0857L17.7788 39.0711C18.4223 39.1492 19.0852 39.4005 19.8362 39.7022L20.5818 37.8464ZM21.9425 39.9323C21.6579 39.387 21.3753 38.8463 21.095 38.3106L19.323 39.238C19.6029 39.7729 19.8851 40.313 20.1695 40.8577L21.9425 39.9323ZM20.2083 39.8645C14.4716 49.0317 7.97287 59.5577 3.78833 67.5042L5.55797 68.4361C9.70186 60.5667 16.1598 50.1041 21.9037 40.9255L20.2083 39.8645ZM3.6971 67.7526C3.30285 69.5217 2.76373 74.3621 7.28673 76.9912L8.29181 75.2621C5.00519 73.3517 5.2852 69.821 5.64921 68.1876L3.6971 67.7526ZM7.28673 76.9912C10.711 78.9816 14.5746 77.8316 17.0953 75.3074L15.6801 73.8942C13.6194 75.9577 10.7291 76.6788 8.29181 75.2621L7.28673 76.9912ZM17.2448 75.1159C21.1089 68.6869 25.0775 61.3697 28.8844 54.1524L27.1154 53.2193C23.3129 60.4283 19.3651 67.7057 15.5306 74.0856L17.2448 75.1159ZM40.4692 74.0856C36.6347 67.7057 32.6869 60.4283 28.8844 53.2193L27.1154 54.1524C30.9223 61.3697 34.891 68.6869 38.755 75.1159L40.4692 74.0856ZM47.708 75.2621C45.2707 76.6788 42.3804 75.9577 40.3197 73.8942L38.9045 75.3074C41.4252 77.8316 45.2889 78.9816 48.7131 76.9912L47.708 75.2621ZM50.3506 68.1876C50.7146 69.821 50.9946 73.3517 47.708 75.2621L48.7131 76.9912C53.2361 74.3621 52.697 69.5217 52.3027 67.7526L50.3506 68.1876ZM34.0962 40.9255C39.84 50.1041 46.298 60.5667 50.4419 68.4361L52.2115 67.5042C48.027 59.5577 41.5283 49.0317 35.7915 39.8645L34.0962 40.9255ZM35.8304 40.8577C36.1147 40.313 36.3969 39.7729 36.6768 39.238L34.9048 38.3106C34.6245 38.8463 34.342 39.387 34.0574 39.9323L35.8304 40.8577ZM36.1637 39.7022C36.9146 39.4005 37.5775 39.1492 38.221 39.0711L37.9802 37.0857C37.0377 37.2 36.1416 37.5557 35.418 37.8464L36.1637 39.7022ZM38.221 39.0711C39.3952 38.9287 40.2828 38.5995 40.9954 38.0495C41.6923 37.5117 42.1372 36.8246 42.523 36.1518L40.788 35.1569C40.4294 35.7822 40.1443 36.18 39.7735 36.4662C39.4185 36.7402 38.9008 36.974 37.9802 37.0857L38.221 39.0711ZM42.523 36.1518C45.8136 30.4136 50.2457 21.5878 53.7426 14.6248L51.9553 13.7272C48.4484 20.7101 44.0447 29.4778 40.788 35.1569L42.523 36.1518ZM53.7426 14.6248C54.48 13.1565 55.1761 11.7704 55.8124 10.5111L54.0272 9.60922C53.3897 10.871 52.6925 12.2594 51.9553 13.7272L53.7426 14.6248ZM55.9165 10.1418C55.9253 10.0344 55.9348 9.92996 55.9445 9.82367L53.9529 9.64137C53.9433 9.74639 53.9328 9.86008 53.9231 9.97849L55.9165 10.1418ZM55.9445 9.82367C56.0001 9.21715 56.0948 8.41962 55.7554 7.63365C55.4072 6.82704 54.692 6.19849 53.6153 5.57258L52.6102 7.30169C53.563 7.85555 53.8266 8.21174 53.9193 8.42641C54.0208 8.66172 54.0187 8.92199 53.9529 9.64137L55.9445 9.82367ZM53.6153 5.57258C52.9761 5.20106 52.3386 4.98843 51.741 4.88171L51.3895 6.85057C51.774 6.91924 52.1877 7.0561 52.6102 7.30169L53.6153 5.57258ZM52.3298 5.22156C51.8955 4.70651 51.3719 4.26855 50.7831 3.92632L49.778 5.65543C50.1715 5.88416 50.5171 6.1743 50.8007 6.51072L52.3298 5.22156ZM50.7831 3.92632C50.2576 3.62088 49.6921 3.39851 49.1063 3.26797L48.6712 5.22007C49.0532 5.30519 49.4269 5.4513 49.778 5.65543L50.7831 3.92632ZM49.6285 3.57115C49.2241 3.12649 48.7505 2.74482 48.225 2.43938L47.2199 4.16848C47.5711 4.37261 47.8841 4.62566 48.149 4.91689L49.6285 3.57115ZM48.225 2.43938C47.6363 2.09716 46.9971 1.85918 46.3356 1.73785L45.9748 3.70503C46.4047 3.78388 46.8264 3.93975 47.2199 4.16849L48.225 2.43938ZM46.9228 2.08044C46.533 1.61373 46.032 1.16461 45.3929 0.793122L44.3878 2.52223C44.8104 2.76785 45.1355 3.06049 45.3877 3.36244L46.9228 2.08044ZM45.3929 0.793123C43.5734 -0.264477 41.5461 -0.212895 39.8195 0.646621L40.7108 2.43704C41.889 1.85051 43.2001 1.83183 44.3878 2.52223L45.3929 0.793123ZM39.409 1.02507C37.6612 3.92073 35.3072 7.50169 32.8482 11.242L34.5194 12.3407C36.971 8.6115 39.3492 4.99448 41.1213 2.0586L39.409 1.02507ZM32.8482 11.242C30.9267 14.1647 28.944 17.1805 27.1541 20.018L28.8457 21.085C30.6237 18.2664 32.5956 15.2668 34.5194 12.3407L32.8482 11.242ZM21.4805 12.3407C23.4042 15.2668 25.3762 18.2664 27.1541 21.085L28.8457 20.018C27.0559 17.1805 25.0732 14.1647 23.1517 11.242L21.4805 12.3407ZM14.8785 2.0586C16.6507 4.99448 19.0288 8.61151 21.4805 12.3407L23.1517 11.242C20.6927 7.50169 18.3386 3.92074 16.5908 1.02507L14.8785 2.0586ZM11.612 2.52223C12.7998 1.83183 14.1108 1.85051 15.289 2.43704L16.1803 0.646621C14.4537 -0.212895 12.4264 -0.264477 10.6069 0.793123L11.612 2.52223ZM10.6121 3.36244C10.8643 3.06049 11.1895 2.76785 11.612 2.52223L10.6069 0.793122C9.96785 1.16461 9.46682 1.61373 9.07706 2.08044L10.6121 3.36244ZM8.77988 4.16848C9.17338 3.93975 9.59512 3.78388 10.025 3.70503L9.66418 1.73785C9.00272 1.85918 8.36354 2.09716 7.7748 2.43938L8.77988 4.16848ZM7.85081 4.91688C8.1157 4.62566 8.42871 4.37261 8.77988 4.16849L7.7748 2.43938C7.24933 2.74482 6.77574 3.12649 6.37128 3.57115L7.85081 4.91688Z" fill="black" mask="url(#path-1-outside-1_599_186)"/>
<path d="M16.1288 31.7846L5.30436 10.3597C5.30436 10.3597 5.09338 9.99179 5.45882 9.77937C5.82426 9.56695 6.21796 9.82866 6.21796 9.82866L16.4715 26.4345C16.4715 26.4345 16.6825 26.8024 17.0479 26.59C17.4134 26.3776 17.2024 26.0096 17.2024 26.0096L8.04516 8.76656C8.04516 8.76656 7.83417 8.39864 8.29097 8.13311C8.74777 7.86759 8.95876 8.23551 8.95876 8.23551L19.2123 24.8413C19.2123 24.8413 19.4233 25.2092 19.7887 24.9968C20.1542 24.7844 19.9432 24.4165 19.9432 24.4165L10.6032 7.27962C10.6032 7.27962 10.3922 6.91169 10.849 6.64617C11.3058 6.38064 11.5168 6.74857 11.5168 6.74857L21.7704 23.3544C21.7704 23.3544 21.9814 23.7223 22.3468 23.5099C22.7122 23.2975 22.5012 22.9295 22.5012 22.9295L13.344 5.68646C13.344 5.68646 13.3158 5.21233 13.6812 4.99991C14.0466 4.78749 14.4403 5.0492 14.4403 5.0492L27.2747 25.3058C27.2747 25.3058 28.1186 26.7775 27.2898 28.7309C26.461 30.6844 26.4479 33.6354 26.4479 33.6354L46.8212 66.1889C46.8212 66.1889 49.3531 70.604 46.6123 72.1972C43.8715 73.7903 41.5224 69.269 41.5224 69.269L23.7071 35.2285C23.7071 35.2285 20.9795 33.8707 18.8847 33.6166C16.79 33.3625 16.1288 31.7846 16.1288 31.7846Z" fill="#F2BB05" stroke="black" stroke-width="0.5" stroke-linecap="round"/>
<path d="M40.1373 31.7846L50.9618 10.3597C50.9618 10.3597 51.1727 9.99179 50.8073 9.77937C50.4419 9.56695 50.0482 9.82866 50.0482 9.82866L39.7946 26.4345C39.7946 26.4345 39.5836 26.8024 39.2182 26.59C38.8527 26.3776 39.0637 26.0096 39.0637 26.0096L48.221 8.76656C48.221 8.76656 48.4319 8.39864 47.9751 8.13311C47.5183 7.86759 47.3074 8.23551 47.3074 8.23551L37.0538 24.8413C37.0538 24.8413 36.8428 25.2092 36.4774 24.9968C36.112 24.7844 36.3229 24.4165 36.3229 24.4165L45.6629 7.27962C45.6629 7.27962 45.8739 6.91169 45.4171 6.64617C44.9603 6.38064 44.7493 6.74857 44.7493 6.74857L34.4957 23.3544C34.4957 23.3544 34.2848 23.7223 33.9193 23.5099C33.5539 23.2975 33.7649 22.9295 33.7649 22.9295L42.9221 5.68646C42.9221 5.68646 42.9504 5.21233 42.5849 4.99991C42.2195 4.78749 41.8258 5.0492 41.8258 5.0492L28.9914 25.3058C28.9914 25.3058 28.1475 26.7775 28.9763 28.7309C29.8051 30.6844 29.8182 33.6354 29.8182 33.6354L9.44489 66.1889C9.44489 66.1889 6.91305 70.604 9.65384 72.1972C12.3946 73.7903 14.7438 69.269 14.7438 69.269L32.559 35.2285C32.559 35.2285 35.2866 33.8707 37.3814 33.6166C39.4761 33.3625 40.1373 31.7846 40.1373 31.7846Z" fill="#F2BB05" stroke="black" stroke-width="0.5" stroke-linecap="round"/>
</svg>
