<svg width="93" height="94" viewBox="0 0 93 94" fill="none" xmlns="http://www.w3.org/2000/svg">
<mask id="path-1-outside-1_599_386" maskUnits="userSpaceOnUse" x="-2.66267" y="-1.4514" width="98.2878" height="98.2878" fill="black">
<rect fill="white" x="-2.66267" y="-1.4514" width="98.2878" height="98.2878"/>
<path fill-rule="evenodd" clip-rule="evenodd" d="M80.1308 16.9711L76.1564 17.4226L76.6079 13.4482L79.7714 13.8076L80.1308 16.9711ZM41.6495 69.6291C49.3158 64.9746 64.6976 55.1567 73.8302 46.0241C76.2893 43.565 77.775 40.3538 78.7018 37.2516C79.6382 34.1171 80.0885 30.8067 80.2914 27.8623C80.4953 24.9021 80.4561 22.2024 80.3675 20.248C80.3231 19.2671 80.2658 18.4649 80.2188 17.9004C80.1953 17.618 80.1743 17.3945 80.1587 17.2373C80.1509 17.1587 80.1444 17.0966 80.1397 17.0519L80.1338 16.9981L80.132 16.9812L80.131 16.973C80.1309 16.972 80.1308 16.9711 76.1564 17.4226C76.6079 13.4482 76.607 13.4481 76.606 13.448L76.5978 13.447L76.5809 13.4452L76.5271 13.4393C76.4824 13.4346 76.4203 13.4281 76.3417 13.4203C76.1845 13.4047 75.961 13.3837 75.6786 13.3602C75.1141 13.3132 74.3119 13.2559 73.331 13.2115C71.3766 13.1229 68.6769 13.0837 65.7167 13.2877C62.7723 13.4905 59.462 13.9408 56.3274 14.8772C53.2252 15.804 50.014 17.2897 47.5549 19.7488C38.2154 29.0883 28.4664 44.422 23.8839 52.0114C22.651 51.636 20.9046 51.2836 19.1493 51.6521C16.8536 52.134 15.3255 53.6386 14.391 54.9488C13.4502 56.2678 12.8361 57.7608 12.4297 58.9996C12.0126 60.271 11.7487 61.4799 11.5891 62.3527C11.5082 62.7951 11.4515 63.1655 11.4142 63.4326C11.3955 63.5665 11.3816 63.6753 11.3718 63.7552C11.367 63.7951 11.3631 63.828 11.3602 63.8532L11.3566 63.8852L11.3549 63.9015L11.3546 63.9036C11.3545 63.9045 11.3544 63.9054 15.3319 64.3296L11.3544 63.9054L10.0172 76.4444L16.9285 68.5736C16.8703 69.6704 16.8851 70.6713 16.9164 71.4259C16.9354 71.883 16.9609 72.2625 16.9824 72.5343C16.9932 72.6705 17.003 72.7804 17.0106 72.8604C17.0119 72.8747 17.0132 72.888 17.0144 72.9004C17.0166 72.9226 17.0185 72.9417 17.0201 72.9576L17.0233 72.9886L17.0251 73.0059C17.0252 73.0067 17.0253 73.0076 21.002 72.577L17.0253 73.0076L17.3717 76.2073L20.5715 76.5538L21.002 72.577C20.5715 76.5538 20.5723 76.5539 20.5732 76.5539L20.5904 76.5558L20.6215 76.559C20.6461 76.5615 20.6787 76.5647 20.7187 76.5685C20.7986 76.5761 20.9086 76.5859 21.0447 76.5966C21.3165 76.6181 21.696 76.6437 22.1531 76.6626C22.9849 76.6971 24.1157 76.7116 25.3444 76.6304L17.2825 83.7094L29.8215 82.3722L29.3973 78.3948C29.8215 82.3722 29.8224 82.3721 29.8234 82.372L29.8254 82.3718L29.8301 82.3713L29.8418 82.37L29.8738 82.3664C29.899 82.3636 29.9318 82.3597 29.9718 82.3548C30.0517 82.3451 30.1605 82.3311 30.2943 82.3124C30.5615 82.2751 30.9319 82.2185 31.3742 82.1376C32.247 81.9779 33.456 81.7141 34.7273 81.2969C35.9661 80.8905 37.4591 80.2765 38.7781 79.3357C40.0883 78.4012 41.5929 76.8731 42.0748 74.5774C42.4565 72.7591 42.0657 70.9275 41.6495 69.6291ZM37.9353 71.1675C37.8151 70.7473 37.6692 70.3392 37.5187 69.9647C37.0849 68.885 36.6138 68.0856 36.6138 68.0856L36.2067 68.2213C36.3253 68.1517 36.4515 68.0775 36.5849 67.9989C36.8247 67.8575 37.088 67.7017 37.3731 67.5322C38.1116 67.0931 38.9963 66.5619 39.9987 65.9509C47.7051 61.2528 62.3661 51.8313 71.0018 43.1957C78.2597 35.9377 76.1564 17.4226 76.1564 17.4226C76.1564 17.4226 57.6413 15.3193 50.3833 22.5772C40.3793 32.5812 29.7012 50.0009 25.9811 56.3008C25.8202 56.5733 25.6723 56.825 25.5381 57.0544C25.2878 56.9141 24.605 56.5459 23.7478 56.2025C22.5951 55.7408 21.1271 55.3241 19.971 55.5668C18.9687 55.7772 18.1721 56.4893 17.5425 57.423C15.7915 60.0195 15.3319 64.3296 15.3319 64.3296C15.3319 64.3296 16.2087 63.331 17.4528 62.3134C17.9406 61.9143 18.4849 61.5124 19.055 61.1665C19.4968 60.8985 19.9541 60.6641 20.4125 60.491C20.6357 60.4068 20.8591 60.337 21.0812 60.2849C21.2273 60.2506 21.3729 60.224 21.5174 60.2059C21.6746 60.1863 21.8498 60.1743 22.0298 60.1679C22.3054 60.158 22.5923 60.1609 22.8432 60.1683C22.9313 60.1709 23.0149 60.1741 23.0921 60.1775L22.033 61.2367L23.341 62.5448C23.2135 62.6151 23.0924 62.6955 22.9774 62.7852C22.6524 63.0383 22.3762 63.3647 22.142 63.7438C22.09 63.8279 22.0401 63.9147 21.9921 64.0038C21.9556 64.0716 21.9203 64.1408 21.8861 64.2113C20.4227 67.2254 21.002 72.577 21.002 72.577C21.002 72.577 26.5877 73.1817 29.5599 71.5951C29.6544 71.5447 29.7463 71.492 29.8352 71.4371C30.2482 71.1819 30.5986 70.877 30.86 70.5134C30.9235 70.4251 30.9817 70.3334 31.0343 70.238L32.3422 71.5459L33.5348 70.3533C33.5427 70.4854 33.5523 70.6716 33.5586 70.8835C33.5655 71.1148 33.5685 71.3766 33.5611 71.632C33.5553 71.8346 33.543 72.0332 33.521 72.2093C33.5029 72.3538 33.4763 72.4995 33.442 72.6457C33.3899 72.8677 33.3201 73.0911 33.2359 73.3142C33.1226 73.6141 32.9832 73.9135 32.8252 74.2085C32.4302 74.946 31.9194 75.6554 31.4134 76.274C30.3958 77.518 29.3973 78.3948 29.3973 78.3948C29.3973 78.3948 33.7074 77.9351 36.3039 76.1842C37.2376 75.5546 37.9497 74.7579 38.1602 73.7556C38.3248 72.9712 38.1859 72.0432 37.9353 71.1675Z"/>
</mask>
<path fill-rule="evenodd" clip-rule="evenodd" d="M80.1308 16.9711L76.1564 17.4226L76.6079 13.4482L79.7714 13.8076L80.1308 16.9711ZM41.6495 69.6291C49.3158 64.9746 64.6976 55.1567 73.8302 46.0241C76.2893 43.565 77.775 40.3538 78.7018 37.2516C79.6382 34.1171 80.0885 30.8067 80.2914 27.8623C80.4953 24.9021 80.4561 22.2024 80.3675 20.248C80.3231 19.2671 80.2658 18.4649 80.2188 17.9004C80.1953 17.618 80.1743 17.3945 80.1587 17.2373C80.1509 17.1587 80.1444 17.0966 80.1397 17.0519L80.1338 16.9981L80.132 16.9812L80.131 16.973C80.1309 16.972 80.1308 16.9711 76.1564 17.4226C76.6079 13.4482 76.607 13.4481 76.606 13.448L76.5978 13.447L76.5809 13.4452L76.5271 13.4393C76.4824 13.4346 76.4203 13.4281 76.3417 13.4203C76.1845 13.4047 75.961 13.3837 75.6786 13.3602C75.1141 13.3132 74.3119 13.2559 73.331 13.2115C71.3766 13.1229 68.6769 13.0837 65.7167 13.2877C62.7723 13.4905 59.462 13.9408 56.3274 14.8772C53.2252 15.804 50.014 17.2897 47.5549 19.7488C38.2154 29.0883 28.4664 44.422 23.8839 52.0114C22.651 51.636 20.9046 51.2836 19.1493 51.6521C16.8536 52.134 15.3255 53.6386 14.391 54.9488C13.4502 56.2678 12.8361 57.7608 12.4297 58.9996C12.0126 60.271 11.7487 61.4799 11.5891 62.3527C11.5082 62.7951 11.4515 63.1655 11.4142 63.4326C11.3955 63.5665 11.3816 63.6753 11.3718 63.7552C11.367 63.7951 11.3631 63.828 11.3602 63.8532L11.3566 63.8852L11.3549 63.9015L11.3546 63.9036C11.3545 63.9045 11.3544 63.9054 15.3319 64.3296L11.3544 63.9054L10.0172 76.4444L16.9285 68.5736C16.8703 69.6704 16.8851 70.6713 16.9164 71.4259C16.9354 71.883 16.9609 72.2625 16.9824 72.5343C16.9932 72.6705 17.003 72.7804 17.0106 72.8604C17.0119 72.8747 17.0132 72.888 17.0144 72.9004C17.0166 72.9226 17.0185 72.9417 17.0201 72.9576L17.0233 72.9886L17.0251 73.0059C17.0252 73.0067 17.0253 73.0076 21.002 72.577L17.0253 73.0076L17.3717 76.2073L20.5715 76.5538L21.002 72.577C20.5715 76.5538 20.5723 76.5539 20.5732 76.5539L20.5904 76.5558L20.6215 76.559C20.6461 76.5615 20.6787 76.5647 20.7187 76.5685C20.7986 76.5761 20.9086 76.5859 21.0447 76.5966C21.3165 76.6181 21.696 76.6437 22.1531 76.6626C22.9849 76.6971 24.1157 76.7116 25.3444 76.6304L17.2825 83.7094L29.8215 82.3722L29.3973 78.3948C29.8215 82.3722 29.8224 82.3721 29.8234 82.372L29.8254 82.3718L29.8301 82.3713L29.8418 82.37L29.8738 82.3664C29.899 82.3636 29.9318 82.3597 29.9718 82.3548C30.0517 82.3451 30.1605 82.3311 30.2943 82.3124C30.5615 82.2751 30.9319 82.2185 31.3742 82.1376C32.247 81.9779 33.456 81.7141 34.7273 81.2969C35.9661 80.8905 37.4591 80.2765 38.7781 79.3357C40.0883 78.4012 41.5929 76.8731 42.0748 74.5774C42.4565 72.7591 42.0657 70.9275 41.6495 69.6291ZM37.9353 71.1675C37.8151 70.7473 37.6692 70.3392 37.5187 69.9647C37.0849 68.885 36.6138 68.0856 36.6138 68.0856L36.2067 68.2213C36.3253 68.1517 36.4515 68.0775 36.5849 67.9989C36.8247 67.8575 37.088 67.7017 37.3731 67.5322C38.1116 67.0931 38.9963 66.5619 39.9987 65.9509C47.7051 61.2528 62.3661 51.8313 71.0018 43.1957C78.2597 35.9377 76.1564 17.4226 76.1564 17.4226C76.1564 17.4226 57.6413 15.3193 50.3833 22.5772C40.3793 32.5812 29.7012 50.0009 25.9811 56.3008C25.8202 56.5733 25.6723 56.825 25.5381 57.0544C25.2878 56.9141 24.605 56.5459 23.7478 56.2025C22.5951 55.7408 21.1271 55.3241 19.971 55.5668C18.9687 55.7772 18.1721 56.4893 17.5425 57.423C15.7915 60.0195 15.3319 64.3296 15.3319 64.3296C15.3319 64.3296 16.2087 63.331 17.4528 62.3134C17.9406 61.9143 18.4849 61.5124 19.055 61.1665C19.4968 60.8985 19.9541 60.6641 20.4125 60.491C20.6357 60.4068 20.8591 60.337 21.0812 60.2849C21.2273 60.2506 21.3729 60.224 21.5174 60.2059C21.6746 60.1863 21.8498 60.1743 22.0298 60.1679C22.3054 60.158 22.5923 60.1609 22.8432 60.1683C22.9313 60.1709 23.0149 60.1741 23.0921 60.1775L22.033 61.2367L23.341 62.5448C23.2135 62.6151 23.0924 62.6955 22.9774 62.7852C22.6524 63.0383 22.3762 63.3647 22.142 63.7438C22.09 63.8279 22.0401 63.9147 21.9921 64.0038C21.9556 64.0716 21.9203 64.1408 21.8861 64.2113C20.4227 67.2254 21.002 72.577 21.002 72.577C21.002 72.577 26.5877 73.1817 29.5599 71.5951C29.6544 71.5447 29.7463 71.492 29.8352 71.4371C30.2482 71.1819 30.5986 70.877 30.86 70.5134C30.9235 70.4251 30.9817 70.3334 31.0343 70.238L32.3422 71.5459L33.5348 70.3533C33.5427 70.4854 33.5523 70.6716 33.5586 70.8835C33.5655 71.1148 33.5685 71.3766 33.5611 71.632C33.5553 71.8346 33.543 72.0332 33.521 72.2093C33.5029 72.3538 33.4763 72.4995 33.442 72.6457C33.3899 72.8677 33.3201 73.0911 33.2359 73.3142C33.1226 73.6141 32.9832 73.9135 32.8252 74.2085C32.4302 74.946 31.9194 75.6554 31.4134 76.274C30.3958 77.518 29.3973 78.3948 29.3973 78.3948C29.3973 78.3948 33.7074 77.9351 36.3039 76.1842C37.2376 75.5546 37.9497 74.7579 38.1602 73.7556C38.3248 72.9712 38.1859 72.0432 37.9353 71.1675Z" fill="white"/>
<path d="M80.1308 16.9711L80.2437 17.9647L81.2373 17.8518L81.1244 16.8582L80.1308 16.9711ZM76.6079 13.4482L76.7208 12.4546L75.7272 12.3417L75.6143 13.3353L76.6079 13.4482ZM79.7714 13.8076L80.765 13.6947L80.6752 12.9038L79.8843 12.814L79.7714 13.8076ZM41.6495 69.6291L41.1305 68.7743L40.4565 69.1836L40.6972 69.9344L41.6495 69.6291ZM78.7018 37.2516L79.6599 37.5379L79.6599 37.5379L78.7018 37.2516ZM80.2914 27.8623L81.289 27.9311L80.2914 27.8623ZM80.3675 20.248L81.3665 20.2027L81.3665 20.2027L80.3675 20.248ZM80.2188 17.9004L79.2222 17.9834L79.2222 17.9834L80.2188 17.9004ZM80.1587 17.2373L81.1538 17.1386L81.1538 17.1385L80.1587 17.2373ZM80.1397 17.0519L81.134 16.9459L81.1339 16.9443L80.1397 17.0519ZM80.1338 16.9981L81.128 16.8905L81.1277 16.8878L80.1338 16.9981ZM80.132 16.9812L81.1259 16.8709L81.1257 16.8696L80.132 16.9812ZM80.131 16.973L81.1248 16.8613L81.1247 16.8604L80.131 16.973ZM76.606 13.448L76.7186 12.4543L76.7178 12.4542L76.606 13.448ZM76.5978 13.447L76.7096 12.4533L76.708 12.4531L76.5978 13.447ZM76.5809 13.4452L76.6911 12.4513L76.6885 12.451L76.5809 13.4452ZM76.5271 13.4393L76.6347 12.4452L76.6331 12.445L76.5271 13.4393ZM76.3417 13.4203L76.2429 14.4154L76.2429 14.4154L76.3417 13.4203ZM75.6786 13.3602L75.5956 14.3568L75.5956 14.3568L75.6786 13.3602ZM73.331 13.2115L73.3763 12.2125L73.3763 12.2125L73.331 13.2115ZM65.7167 13.2877L65.7854 14.2853L65.7167 13.2877ZM56.3274 14.8772L56.6136 15.8354L56.6136 15.8354L56.3274 14.8772ZM47.5549 19.7488L46.8478 19.0417L47.5549 19.7488ZM23.8839 52.0114L23.5926 52.968L24.3374 53.1948L24.7399 52.5282L23.8839 52.0114ZM19.1493 51.6521L18.9438 50.6734L18.9438 50.6734L19.1493 51.6521ZM14.391 54.9488L13.5768 54.3681L13.5768 54.3681L14.391 54.9488ZM12.4297 58.9996L11.4796 58.6879L11.4796 58.6879L12.4297 58.9996ZM11.5891 62.3527L12.5728 62.5326L11.5891 62.3527ZM11.4142 63.4326L10.4238 63.2943L10.4238 63.2943L11.4142 63.4326ZM11.3718 63.7552L10.3792 63.634L10.3792 63.634L11.3718 63.7552ZM11.3602 63.8532L10.3667 63.7397L10.3665 63.7417L11.3602 63.8532ZM11.3566 63.8852L10.3629 63.7737L10.3625 63.7767L11.3566 63.8852ZM11.3549 63.9015L10.3608 63.793L10.3605 63.7952L11.3549 63.9015ZM11.3546 63.9036L12.349 64.01L12.349 64.0098L11.3546 63.9036ZM15.3319 64.3296L15.2259 65.324L15.7413 65.3789L16.0833 64.9894L15.3319 64.3296ZM11.3544 63.9054L11.4605 62.9111L10.4661 62.805L10.3601 63.7994L11.3544 63.9054ZM10.0172 76.4444L9.02288 76.3384L8.68858 79.4731L10.7687 77.1042L10.0172 76.4444ZM16.9285 68.5736L17.9271 68.6266L18.08 65.7467L16.1771 67.9138L16.9285 68.5736ZM16.9164 71.4259L17.9156 71.3845L17.9156 71.3845L16.9164 71.4259ZM16.9824 72.5343L15.9855 72.6131L15.9855 72.6131L16.9824 72.5343ZM17.0106 72.8604L16.015 72.9545L16.015 72.9546L17.0106 72.8604ZM17.0144 72.9004L16.0191 72.997L16.0191 72.997L17.0144 72.9004ZM17.0201 72.9576L16.0252 73.0585L16.0254 73.0605L17.0201 72.9576ZM17.0233 72.9886L16.0286 73.0915L16.0289 73.0941L17.0233 72.9886ZM17.0251 73.0059L16.0307 73.1114L16.031 73.1142L17.0251 73.0059ZM17.0253 73.0076L16.9176 72.0134L15.9235 72.121L16.0311 73.1152L17.0253 73.0076ZM17.3717 76.2073L16.3775 76.315L16.4641 77.1149L17.2641 77.2015L17.3717 76.2073ZM20.5715 76.5538L20.4639 77.548L21.458 77.6556L21.5657 76.6614L20.5715 76.5538ZM20.5732 76.5539L20.4641 77.548L20.4677 77.5484L20.5732 76.5539ZM20.5904 76.5558L20.485 77.5502L20.4875 77.5505L20.5904 76.5558ZM20.6215 76.559L20.5186 77.5537L20.5206 77.5539L20.6215 76.559ZM20.7187 76.5685L20.6246 77.5641L20.6246 77.5641L20.7187 76.5685ZM21.0447 76.5966L20.9659 77.5935L20.9659 77.5935L21.0447 76.5966ZM22.1531 76.6626L22.1945 75.6635L22.1945 75.6635L22.1531 76.6626ZM25.3444 76.6304L26.0043 77.3818L28.2178 75.4381L25.2784 75.6325L25.3444 76.6304ZM17.2825 83.7094L16.6227 82.958L14.2538 85.0381L17.3886 84.7038L17.2825 83.7094ZM29.8215 82.3722L29.9275 83.3666L30.9219 83.2606L30.8158 82.2662L29.8215 82.3722ZM29.3973 78.3948L28.7375 77.6434L28.348 77.9854L28.4029 78.5008L29.3973 78.3948ZM29.8234 82.372L29.9286 83.3665L29.9344 83.3659L29.8234 82.372ZM29.8254 82.3718L29.7183 81.3776L29.7144 81.378L29.8254 82.3718ZM29.8301 82.3713L29.9372 83.3655L29.9384 83.3654L29.8301 82.3713ZM29.8418 82.37L29.95 83.3642L29.9535 83.3638L29.8418 82.37ZM29.8738 82.3664L29.9855 83.3602L29.9873 83.36L29.8738 82.3664ZM29.9718 82.3548L30.0929 83.3475H30.0929L29.9718 82.3548ZM30.2943 82.3124L30.4326 83.3028L30.4326 83.3028L30.2943 82.3124ZM31.3742 82.1376L31.1943 81.1539L31.1943 81.1539L31.3742 82.1376ZM34.7273 81.2969L35.0391 82.2471L34.7273 81.2969ZM38.7781 79.3357L39.3588 80.1498L38.7781 79.3357ZM42.0748 74.5774L41.0962 74.372L42.0748 74.5774ZM37.5187 69.9647L38.4466 69.5919L37.5187 69.9647ZM37.9353 71.1675L38.8968 70.8924L37.9353 71.1675ZM36.6138 68.0856L37.4753 67.5778L37.0647 66.8812L36.2975 67.1369L36.6138 68.0856ZM36.2067 68.2213L35.7007 67.3587L36.523 69.1699L36.2067 68.2213ZM36.5849 67.9989L36.0771 67.1374L36.5849 67.9989ZM37.3731 67.5322L37.8842 68.3917L37.3731 67.5322ZM39.9987 65.9509L40.5192 66.8047L39.9987 65.9509ZM50.3833 22.5772L49.6762 21.8701L50.3833 22.5772ZM25.9811 56.3008L25.12 55.7923L25.12 55.7923L25.9811 56.3008ZM25.5381 57.0544L25.0491 57.9267L25.9054 58.4066L26.4011 57.5595L25.5381 57.0544ZM23.7478 56.2025L24.1196 55.2742L24.1196 55.2742L23.7478 56.2025ZM19.971 55.5668L19.7656 54.5881L19.7656 54.5881L19.971 55.5668ZM17.5425 57.423L16.7133 56.864L17.5425 57.423ZM17.4528 62.3134L16.8197 61.5394L17.4528 62.3134ZM19.055 61.1665L18.5363 60.3116L19.055 61.1665ZM20.4125 60.491L20.7658 61.4265L20.4125 60.491ZM21.0812 60.2849L21.3095 61.2585L21.3096 61.2585L21.0812 60.2849ZM21.5174 60.2059L21.6415 61.1982L21.6415 61.1982L21.5174 60.2059ZM22.0298 60.1679L21.9939 59.1685L21.9939 59.1685L22.0298 60.1679ZM22.8432 60.1683L22.8135 61.1679L22.8135 61.1679L22.8432 60.1683ZM23.0921 60.1775L23.7992 60.8846L25.4055 59.2784L23.1361 59.1785L23.0921 60.1775ZM22.033 61.2367L21.3259 60.5296L20.6188 61.2367L21.3259 61.9438L22.033 61.2367ZM23.341 62.5448L23.8241 63.4204L24.9885 62.778L24.0481 61.8377L23.341 62.5448ZM22.9774 62.7852L23.5919 63.574L23.5919 63.574L22.9774 62.7852ZM22.142 63.7438L22.9927 64.2695L22.9927 64.2695L22.142 63.7438ZM21.9921 64.0038L21.1115 63.53L21.1115 63.53L21.9921 64.0038ZM21.8861 64.2113L20.9865 63.7745L20.9865 63.7746L21.8861 64.2113ZM29.5599 71.5951L30.0308 72.4773L30.0308 72.4773L29.5599 71.5951ZM29.8352 71.4371L30.3609 72.2878L30.3609 72.2878L29.8352 71.4371ZM30.86 70.5134L31.672 71.0971L31.672 71.0971L30.86 70.5134ZM31.0343 70.238L31.7414 69.5309L30.8011 68.5906L30.1587 69.755L31.0343 70.238ZM32.3422 71.5459L31.6351 72.253L32.3422 72.9601L33.0493 72.253L32.3422 71.5459ZM33.5348 70.3533L34.533 70.2935L34.4001 68.0737L32.8277 69.6462L33.5348 70.3533ZM33.5586 70.8835L32.559 70.9132L32.559 70.9132L33.5586 70.8835ZM33.5611 71.632L32.5615 71.6033L32.5615 71.6033L33.5611 71.632ZM33.521 72.2093L34.5133 72.3333L34.5133 72.3333L33.521 72.2093ZM33.442 72.6457L34.4155 72.8741L34.4155 72.8741L33.442 72.6457ZM33.2359 73.3142L32.3004 72.9609L32.3004 72.9609L33.2359 73.3142ZM32.8252 74.2085L31.9437 73.7364L32.8252 74.2085ZM31.4134 76.274L30.6394 75.6408L31.4134 76.274ZM36.3039 76.1842L36.863 77.0133L36.3039 76.1842ZM38.1602 73.7556L37.1815 73.5502L38.1602 73.7556ZM76.2693 18.4162L80.2437 17.9647L80.0179 15.9775L76.0435 16.429L76.2693 18.4162ZM75.6143 13.3353L75.1628 17.3097L77.15 17.5355L77.6015 13.5611L75.6143 13.3353ZM79.8843 12.814L76.7208 12.4546L76.495 14.4418L79.6586 14.8012L79.8843 12.814ZM81.1244 16.8582L80.765 13.6947L78.7778 13.9204L79.1372 17.084L81.1244 16.8582ZM42.1685 70.4839C49.829 65.8329 65.3089 55.9596 74.5373 46.7312L73.1231 45.317C64.0863 54.3538 48.8026 64.1163 41.1305 68.7743L42.1685 70.4839ZM74.5373 46.7312C77.1576 44.1109 78.7074 40.7265 79.6599 37.5379L77.7436 36.9654C76.8427 39.9812 75.421 43.0191 73.1231 45.317L74.5373 46.7312ZM79.6599 37.5379C80.6246 34.3088 81.0831 30.9196 81.289 27.9311L79.2937 27.7936C79.0939 30.6938 78.6518 33.9253 77.7436 36.9654L79.6599 37.5379ZM81.289 27.9311C81.4963 24.9228 81.4562 22.1834 81.3665 20.2027L79.3686 20.2932C79.4559 22.2213 79.4944 24.8814 79.2937 27.7936L81.289 27.9311ZM81.3665 20.2027C81.3214 19.2078 81.2633 18.3929 81.2153 17.8174L79.2222 17.9834C79.2683 18.5368 79.3248 19.3264 79.3686 20.2932L81.3665 20.2027ZM81.2153 17.8175C81.1914 17.5295 81.1699 17.3007 81.1538 17.1386L79.1636 17.3361C79.1787 17.4883 79.1992 17.7065 79.2222 17.9834L81.2153 17.8175ZM81.1538 17.1385C81.1457 17.0574 81.139 16.9929 81.134 16.9459L79.1453 17.1579C79.1498 17.2002 79.156 17.2599 79.1636 17.3361L81.1538 17.1385ZM81.1339 16.9443L81.128 16.8905L79.1396 17.1057L79.1455 17.1596L81.1339 16.9443ZM81.1277 16.8878L81.1259 16.8709L79.1381 17.0915L79.1399 17.1084L81.1277 16.8878ZM81.1247 16.8604C81.1232 16.8471 81.0986 16.4669 80.7563 16.1926C80.5278 16.0094 80.2874 15.9849 80.2632 15.9817C80.1965 15.9728 80.1439 15.9729 80.1282 15.9729C80.1057 15.973 80.088 15.9738 80.0791 15.9742C80.0511 15.9757 80.0264 15.9782 80.0255 15.9783C80.011 15.9797 79.9898 15.982 79.9595 15.9853C79.8958 15.9924 79.7701 16.0064 79.5219 16.0344C79.0247 16.0906 78.0307 16.2033 76.0435 16.429L76.2693 18.4162C78.2565 18.1905 79.2498 18.0779 79.7463 18.0218C79.9949 17.9938 80.1177 17.98 80.1782 17.9734C80.1932 17.9717 80.2037 17.9706 80.2111 17.9698C80.2189 17.9689 80.2214 17.9687 80.2209 17.9687C80.2207 17.9688 80.2178 17.969 80.2133 17.9694C80.2107 17.9697 80.1979 17.9708 80.181 17.9716C80.1726 17.9721 80.1552 17.9729 80.1331 17.9729C80.1176 17.9729 80.0651 17.973 79.9986 17.9641C79.9745 17.9609 79.7342 17.9365 79.5057 17.7533C79.3611 17.6374 79.2552 17.4867 79.1938 17.3216C79.1444 17.1887 79.1353 17.0672 79.1374 17.0856L81.1247 16.8604ZM77.15 17.5355C77.3757 15.5483 77.4884 14.5544 77.5446 14.0571C77.5726 13.8089 77.5866 13.6832 77.5937 13.6195C77.597 13.5892 77.5993 13.568 77.6007 13.5535C77.6008 13.5526 77.6033 13.5279 77.6048 13.4999C77.6052 13.491 77.606 13.4732 77.6061 13.4508C77.6061 13.4351 77.6062 13.3824 77.5973 13.3158C77.5941 13.2916 77.5696 13.0512 77.3864 12.8227C77.1121 12.4804 76.7319 12.4558 76.7186 12.4543L76.4934 14.4416C76.5118 14.4437 76.3903 14.4347 76.2574 14.3852C76.0923 14.3238 75.9416 14.2179 75.8257 14.0733C75.6426 13.8448 75.6181 13.6045 75.6149 13.5804C75.606 13.5139 75.6061 13.4614 75.6061 13.4459C75.6062 13.4238 75.6069 13.4064 75.6074 13.3981C75.6082 13.3811 75.6093 13.3683 75.6096 13.3657C75.61 13.3612 75.6102 13.3583 75.6103 13.3581C75.6103 13.3576 75.6101 13.3601 75.6092 13.3679C75.6084 13.3753 75.6073 13.3858 75.6056 13.4008C75.599 13.4613 75.5853 13.5841 75.5572 13.8327C75.5011 14.3292 75.3885 15.3225 75.1628 17.3097L77.15 17.5355ZM76.708 12.4531L76.6911 12.4513L76.4707 14.4391L76.4876 14.441L76.708 12.4531ZM76.6885 12.451L76.6347 12.4452L76.4194 14.4335L76.4733 14.4394L76.6885 12.451ZM76.6331 12.445C76.5861 12.44 76.5215 12.4333 76.4404 12.4252L76.2429 14.4154C76.3191 14.423 76.3788 14.4292 76.4211 14.4337L76.6331 12.445ZM76.4405 12.4252C76.2783 12.4091 76.0495 12.3876 75.7616 12.3637L75.5956 14.3568C75.8725 14.3798 76.0907 14.4003 76.2429 14.4154L76.4405 12.4252ZM75.7616 12.3637C75.1861 12.3157 74.3712 12.2576 73.3763 12.2125L73.2858 14.2105C74.2526 14.2543 75.0422 14.3107 75.5956 14.3568L75.7616 12.3637ZM73.3763 12.2125C71.3956 12.1228 68.6562 12.0828 65.6479 12.29L65.7854 14.2853C68.6976 14.0847 71.3577 14.1231 73.2858 14.2105L73.3763 12.2125ZM65.6479 12.29C62.6595 12.4959 59.2702 12.9544 56.0411 13.9191L56.6136 15.8354C59.6537 14.9272 62.8852 14.4851 65.7854 14.2853L65.6479 12.29ZM56.0411 13.9191C52.8526 14.8716 49.4681 16.4214 46.8478 19.0417L48.262 20.4559C50.56 18.158 53.5978 16.7363 56.6136 15.8354L56.0411 13.9191ZM46.8478 19.0417C37.4122 28.4772 27.6082 43.9087 23.0278 51.4945L24.7399 52.5282C29.3246 44.9354 39.0185 29.6994 48.262 20.4559L46.8478 19.0417ZM24.1752 51.0547C22.8777 50.6596 20.9404 50.2543 18.9438 50.6734L19.3547 52.6308C20.8688 52.3129 22.4244 52.6123 23.5926 52.968L24.1752 51.0547ZM18.9438 50.6734C16.3097 51.2264 14.5906 52.9468 13.5768 54.3681L15.2051 55.5295C16.0603 54.3305 17.3975 53.0416 19.3547 52.6308L18.9438 50.6734ZM13.5768 54.3681C12.5541 55.8021 11.9019 57.4006 11.4796 58.6879L13.3799 59.3113C13.7704 58.1211 14.3463 56.7336 15.2051 55.5295L13.5768 54.3681ZM11.4796 58.6879C11.0439 60.0156 10.7702 61.2716 10.6054 62.1728L12.5728 62.5326C12.7272 61.6882 12.9813 60.5263 13.3799 59.3113L11.4796 58.6879ZM10.6054 62.1728C10.5217 62.6308 10.4628 63.0152 10.4238 63.2943L12.4046 63.5709C12.4402 63.3157 12.4948 62.9593 12.5728 62.5326L10.6054 62.1728ZM10.4238 63.2943C10.4043 63.4342 10.3896 63.5487 10.3792 63.634L12.3645 63.8763C12.3736 63.8018 12.3868 63.6987 12.4046 63.5709L10.4238 63.2943ZM10.3792 63.634C10.374 63.6766 10.3699 63.712 10.3667 63.7397L12.3538 63.9667C12.3564 63.9439 12.3599 63.9137 12.3645 63.8763L10.3792 63.634ZM10.3665 63.7417L10.3629 63.7737L12.3504 63.9966L12.354 63.9646L10.3665 63.7417ZM10.3605 63.7952L10.3603 63.7973L12.349 64.0098L12.3492 64.0078L10.3605 63.7952ZM10.3603 63.7971C10.3585 63.8141 10.3001 64.1953 10.582 64.5384C10.7663 64.7627 10.9942 64.8366 11.0149 64.8441C11.0768 64.8665 11.1271 64.8775 11.1421 64.8808C11.1635 64.8855 11.1806 64.8885 11.1892 64.8899C11.2163 64.8945 11.2405 64.8973 11.2414 64.8974C11.2557 64.8991 11.2768 64.9015 11.3071 64.9049C11.3709 64.9119 11.4966 64.9255 11.7449 64.9522C12.2425 65.0056 13.2372 65.1119 15.2259 65.324L15.4379 63.3352C13.4492 63.1232 12.4552 63.0169 11.9584 62.9636C11.7097 62.9369 11.5868 62.9236 11.5263 62.9169C11.5113 62.9153 11.5007 62.9141 11.4933 62.9132C11.4855 62.9124 11.483 62.912 11.4833 62.9121C11.4835 62.9121 11.4863 62.9125 11.4907 62.913C11.4932 62.9134 11.5057 62.915 11.522 62.9178C11.5301 62.9191 11.5468 62.9221 11.568 62.9267C11.5827 62.9299 11.6329 62.9409 11.6946 62.9632C11.7152 62.9706 11.9431 63.0446 12.1273 63.2688C12.245 63.412 12.3189 63.5831 12.3445 63.7617C12.3651 63.9053 12.347 64.0288 12.349 64.01L10.3603 63.7971ZM15.4379 63.3352L11.4605 62.9111L11.2484 64.8998L15.2259 65.324L15.4379 63.3352ZM10.3601 63.7994L9.02288 76.3384L11.0116 76.5505L12.3488 64.0115L10.3601 63.7994ZM10.7687 77.1042L17.6799 69.2334L16.1771 67.9138L9.26582 75.7846L10.7687 77.1042ZM15.9299 68.5206C15.8696 69.6569 15.8851 70.6905 15.9173 71.4674L17.9156 71.3845C17.8852 70.652 17.871 69.6839 17.9271 68.6266L15.9299 68.5206ZM15.9173 71.4674C15.9368 71.9386 15.9632 72.3306 15.9855 72.6131L17.9793 72.4555C17.9587 72.1944 17.9339 71.8275 17.9156 71.3845L15.9173 71.4674ZM15.9855 72.6131C15.9967 72.7547 16.007 72.8697 16.015 72.9545L18.0061 72.7663C17.999 72.6911 17.9897 72.5863 17.9793 72.4555L15.9855 72.6131ZM16.015 72.9546C16.0164 72.9699 16.0178 72.984 16.0191 72.997L18.0097 72.8037C18.0086 72.792 18.0074 72.7794 18.0061 72.7661L16.015 72.9546ZM16.0191 72.997C16.0214 73.0206 16.0234 73.0411 16.0252 73.0585L18.015 72.8567C18.0135 72.8423 18.0117 72.8246 18.0097 72.8037L16.0191 72.997ZM16.0254 73.0605L16.0286 73.0915L18.018 72.8858L18.0148 72.8547L16.0254 73.0605ZM16.031 73.1142C16.0288 73.094 16.0378 73.2317 16.0978 73.3803C16.1723 73.5648 16.297 73.7156 16.4473 73.8221C16.6739 73.9825 16.9035 73.9986 16.9161 74C16.9754 74.0065 17.0221 74.006 17.0358 74.0059C17.0556 74.0057 17.0712 74.0049 17.0791 74.0045C17.1039 74.0032 17.1259 74.001 17.1271 74.0009C17.1408 73.9996 17.1614 73.9975 17.1918 73.9943C17.2554 73.9876 17.3809 73.9742 17.6293 73.9475C18.1268 73.8939 19.1213 73.7865 21.1097 73.5712L20.8944 71.5828C18.906 71.7981 17.9121 71.9055 17.4153 71.959C17.1666 71.9857 17.0435 71.9989 16.9829 72.0052C16.9678 72.0068 16.9571 72.0079 16.9496 72.0087C16.9458 72.0091 16.9431 72.0094 16.9412 72.0095C16.9392 72.0097 16.9385 72.0098 16.9387 72.0098C16.9389 72.0098 16.9394 72.0097 16.9404 72.0096C16.9412 72.0096 16.9428 72.0094 16.9449 72.0092C16.9471 72.0091 16.9583 72.0081 16.9731 72.0073C16.9805 72.0069 16.9958 72.0062 17.0153 72.006C17.0287 72.0059 17.0752 72.0054 17.1344 72.0119C17.1469 72.0133 17.3764 72.0293 17.603 72.1898C17.7532 72.2962 17.8779 72.447 17.9524 72.6315C18.0124 72.7801 18.0214 72.9177 18.0192 72.8975L16.031 73.1142ZM20.8944 71.5828L16.9176 72.0134L17.1329 74.0017L21.1097 73.5712L20.8944 71.5828ZM16.0311 73.1152L16.3775 76.315L18.3659 76.0997L18.0195 72.8999L16.0311 73.1152ZM17.2641 77.2015L20.4639 77.548L20.6791 75.5596L17.4794 75.2131L17.2641 77.2015ZM21.5657 76.6614L21.9962 72.6846L20.0079 72.4694L19.5773 76.4461L21.5657 76.6614ZM20.0079 72.4694C19.7926 74.4577 19.6851 75.4522 19.6316 75.9497C19.6048 76.1981 19.5914 76.3237 19.5848 76.3873C19.5816 76.4177 19.5794 76.4383 19.5782 76.452C19.578 76.4532 19.5758 76.4752 19.5745 76.5C19.5741 76.5079 19.5734 76.5236 19.5732 76.5433C19.573 76.5571 19.5726 76.6038 19.5791 76.6631C19.5805 76.6758 19.5966 76.9053 19.7571 77.1319C19.8634 77.2821 20.0141 77.4066 20.1984 77.4811C20.3468 77.5411 20.4843 77.5502 20.4641 77.548L20.6823 75.5599C20.662 75.5577 20.7995 75.5668 20.948 75.6268C21.1322 75.7013 21.2829 75.8258 21.3892 75.976C21.5496 76.2025 21.5657 76.4319 21.5671 76.4445C21.5736 76.5037 21.5732 76.5502 21.5731 76.5637C21.5729 76.5832 21.5721 76.5985 21.5717 76.6059C21.5709 76.6207 21.57 76.632 21.5698 76.6341C21.5696 76.6362 21.5695 76.6378 21.5694 76.6387C21.5693 76.6396 21.5693 76.6402 21.5693 76.6403C21.5692 76.6405 21.5693 76.6398 21.5695 76.6378C21.5697 76.6359 21.57 76.6332 21.5704 76.6295C21.5711 76.622 21.5722 76.6113 21.5738 76.5962C21.5802 76.5355 21.5933 76.4125 21.6201 76.1637C21.6736 75.667 21.781 74.6731 21.9962 72.6846L20.0079 72.4694ZM20.4875 77.5505L20.5186 77.5537L20.7243 75.5643L20.6933 75.5611L20.4875 77.5505ZM20.5206 77.5539C20.5473 77.5566 20.5822 77.56 20.6246 77.5641L20.8128 75.5729C20.7753 75.5694 20.7449 75.5664 20.7223 75.5641L20.5206 77.5539ZM20.6246 77.5641C20.7093 77.5721 20.8243 77.5823 20.9659 77.5935L21.1236 75.5997C20.9928 75.5894 20.888 75.58 20.8128 75.5729L20.6246 77.5641ZM20.9659 77.5935C21.2484 77.6159 21.6405 77.6422 22.1117 77.6618L22.1945 75.6635C21.7516 75.6451 21.3847 75.6204 21.1235 75.5997L20.9659 77.5935ZM22.1117 77.6618C22.9675 77.6973 24.1359 77.7125 25.4105 77.6282L25.2784 75.6325C24.0956 75.7108 23.0023 75.697 22.1945 75.6635L22.1117 77.6618ZM24.6846 75.8789L16.6227 82.958L17.9423 84.4609L26.0043 77.3818L24.6846 75.8789ZM17.3886 84.7038L29.9275 83.3666L29.7154 81.3779L17.1765 82.7151L17.3886 84.7038ZM30.8158 82.2662L30.3917 78.2887L28.4029 78.5008L28.8271 82.4783L30.8158 82.2662ZM28.403 78.5008C28.615 80.4895 28.7213 81.4842 28.7748 81.9817C28.8014 82.2301 28.815 82.3558 28.8221 82.4195C28.8254 82.4499 28.8278 82.471 28.8295 82.4853C28.8296 82.4862 28.8325 82.5104 28.837 82.5375C28.8385 82.5461 28.8415 82.5632 28.8461 82.5847C28.8494 82.5997 28.8605 82.65 28.8828 82.7119C28.8904 82.7328 28.9643 82.9605 29.1884 83.1446C29.3315 83.2622 29.5022 83.3361 29.6805 83.3618C29.8239 83.3825 29.9473 83.3645 29.9286 83.3665L29.7182 81.3776C29.6994 81.3796 29.8227 81.3616 29.9662 81.3823C30.1444 81.408 30.3152 81.4819 30.4582 81.5994C30.6823 81.7836 30.7562 82.0112 30.7637 82.032C30.786 82.0937 30.797 82.1439 30.8002 82.1586C30.8048 82.1798 30.8078 82.1966 30.8091 82.2046C30.8119 82.221 30.8135 82.2335 30.8139 82.236C30.8145 82.2403 30.8148 82.2432 30.8148 82.2433C30.8149 82.2437 30.8146 82.2412 30.8137 82.2333C30.8128 82.226 30.8117 82.2154 30.81 82.2004C30.8033 82.1399 30.79 82.017 30.7633 81.7683C30.71 81.2715 30.6038 80.2775 30.3917 78.2888L28.403 78.5008ZM29.9344 83.3659L29.9364 83.3656L29.7144 81.378L29.7124 81.3782L29.9344 83.3659ZM29.9325 83.3661L29.9372 83.3655L29.723 81.3771L29.7183 81.3776L29.9325 83.3661ZM29.9384 83.3654L29.95 83.3642L29.7335 81.3759L29.7219 81.3772L29.9384 83.3654ZM29.9535 83.3638L29.9855 83.3602L29.762 81.3727L29.73 81.3763L29.9535 83.3638ZM29.9873 83.36C30.0149 83.3568 30.0503 83.3527 30.0929 83.3475L29.8506 81.3622C29.8133 81.3668 29.783 81.3703 29.7602 81.3729L29.9873 83.36ZM30.0929 83.3475C30.1782 83.3371 30.2927 83.3224 30.4326 83.3028L30.1561 81.3221C30.0282 81.3399 29.9251 81.3531 29.8506 81.3622L30.0929 83.3475ZM30.4326 83.3028C30.7117 83.2639 31.0961 83.205 31.5541 83.1213L31.1943 81.1539C30.7677 81.2319 30.4113 81.2864 30.1561 81.3221L30.4326 83.3028ZM31.5541 83.1213C32.4553 82.9564 33.7113 82.6827 35.0391 82.2471L34.4156 80.3468C33.2006 80.7454 32.0387 80.9995 31.1943 81.1539L31.5541 83.1213ZM35.0391 82.2471C36.3263 81.8248 37.9249 81.1726 39.3588 80.1498L38.1974 78.5216C36.9933 79.3804 35.6059 79.9563 34.4156 80.3468L35.0391 82.2471ZM39.3588 80.1498C40.7801 79.136 42.5005 77.417 43.0535 74.7829L41.0962 74.372C40.6853 76.3292 39.3965 77.6664 38.1974 78.5216L39.3588 80.1498ZM43.0535 74.7829C43.4876 72.7148 43.0385 70.6863 42.6018 69.3239L40.6972 69.9344C41.0929 71.1687 41.4254 72.8034 41.0962 74.372L43.0535 74.7829ZM36.5908 70.3375C36.7313 70.6873 36.8651 71.0623 36.9739 71.4426L38.8968 70.8924C38.7651 70.4323 38.607 69.991 38.4466 69.5919L36.5908 70.3375ZM36.6138 68.0856C35.7523 68.5933 35.7522 68.5932 35.7522 68.5932C35.7522 68.5932 35.7521 68.5931 35.7521 68.593C35.7521 68.593 35.752 68.5929 35.752 68.5928C35.7519 68.5927 35.7519 68.5927 35.7519 68.5926C35.7518 68.5926 35.7519 68.5927 35.7521 68.5931C35.7525 68.5938 35.7534 68.5952 35.7546 68.5974C35.7571 68.6017 35.7614 68.609 35.7672 68.6191C35.7787 68.6393 35.7966 68.6708 35.8198 68.7126C35.8661 68.7961 35.9335 68.9203 36.0141 69.0772C36.1759 69.3921 36.3882 69.8332 36.5908 70.3375L38.4466 69.5919C38.2155 69.0165 37.9753 68.518 37.7931 68.1633C37.7017 67.9854 37.6241 67.8422 37.5686 67.7421C37.5408 67.6921 37.5184 67.6527 37.5026 67.6249C37.4946 67.6111 37.4883 67.6001 37.4837 67.5923C37.4814 67.5883 37.4796 67.5851 37.4781 67.5827C37.4774 67.5815 37.4768 67.5805 37.4764 67.5797C37.4761 67.5793 37.4759 67.5789 37.4757 67.5786C37.4756 67.5784 37.4756 67.5783 37.4755 67.5782C37.4754 67.5781 37.4754 67.578 37.4754 67.578C37.4753 67.5779 37.4753 67.5778 36.6138 68.0856ZM36.523 69.1699L36.93 69.0343L36.2975 67.1369L35.8905 67.2726L36.523 69.1699ZM36.0771 67.1374C35.9443 67.2157 35.8187 67.2895 35.7007 67.3587L36.7128 69.0838C36.832 69.0138 36.9587 68.9393 37.0927 68.8603L36.0771 67.1374ZM36.862 66.6726C36.5781 66.8415 36.3159 66.9966 36.0771 67.1374L37.0927 68.8603C37.3336 68.7183 37.598 68.5619 37.8842 68.3917L36.862 66.6726ZM39.4781 65.097C38.4791 65.706 37.5976 66.2353 36.862 66.6726L37.8842 68.3917C38.6256 67.9509 39.5134 67.4178 40.5192 66.8047L39.4781 65.097ZM70.2947 42.4886C61.7541 51.0291 47.1904 60.3955 39.4781 65.097L40.5192 66.8047C48.2199 62.1102 62.9782 52.6335 71.7089 43.9028L70.2947 42.4886ZM76.1564 17.4226C75.1628 17.5355 75.1628 17.5354 75.1628 17.5353C75.1628 17.5354 75.1628 17.5354 75.1628 17.5355C75.1628 17.5358 75.1629 17.5363 75.163 17.5372C75.1632 17.5389 75.1635 17.5417 75.1639 17.5456C75.1648 17.5533 75.1661 17.5655 75.1678 17.582C75.1713 17.6149 75.1766 17.6649 75.1831 17.7311C75.1963 17.8635 75.2148 18.0607 75.236 18.3153C75.2785 18.8248 75.3314 19.5637 75.3727 20.4743C75.4552 22.2972 75.4906 24.7987 75.3032 27.5187C75.1155 30.2426 74.7062 33.1585 73.911 35.8204C73.1133 38.4904 71.948 40.8352 70.2947 42.4886L71.7089 43.9028C73.6845 41.9271 74.978 39.2358 75.8273 36.3929C76.679 33.5419 77.1047 30.4682 77.2985 27.6561C77.4925 24.8401 77.4556 22.2592 77.3706 20.3837C77.3281 19.4451 77.2734 18.6808 77.2291 18.1494C77.207 17.8836 77.1875 17.6759 77.1733 17.5336C77.1663 17.4624 77.1606 17.4076 77.1566 17.37C77.1546 17.3511 77.153 17.3367 77.1519 17.3266C77.1513 17.3215 77.1509 17.3176 77.1506 17.3148C77.1504 17.3134 77.1503 17.3123 77.1502 17.3114C77.1501 17.311 77.1501 17.3106 77.1501 17.3104C77.15 17.31 77.15 17.3097 76.1564 17.4226ZM51.0904 23.2843C52.7438 21.631 55.0886 20.4657 57.7586 19.668C60.4205 18.8728 63.3364 18.4635 66.0603 18.2758C68.7803 18.0884 71.2819 18.1238 73.1047 18.2064C74.0153 18.2476 74.7542 18.3005 75.2637 18.343C75.5183 18.3642 75.7155 18.3827 75.8479 18.3959C75.9141 18.4025 75.9641 18.4077 75.997 18.4112C76.0135 18.4129 76.0257 18.4143 76.0335 18.4151C76.0373 18.4155 76.0401 18.4159 76.0418 18.416C76.0427 18.4161 76.0432 18.4162 76.0435 18.4162C76.0436 18.4162 76.0436 18.4162 76.0437 18.4163C76.0436 18.4162 76.0435 18.4162 76.1564 17.4226C76.2693 16.429 76.269 16.429 76.2686 16.4289C76.2684 16.4289 76.268 16.4289 76.2676 16.4288C76.2667 16.4287 76.2656 16.4286 76.2642 16.4284C76.2614 16.4281 76.2575 16.4277 76.2524 16.4271C76.2424 16.426 76.2279 16.4244 76.2091 16.4224C76.1715 16.4184 76.1166 16.4127 76.0454 16.4057C75.9031 16.3915 75.6954 16.372 75.4296 16.3499C74.8982 16.3056 74.1339 16.2509 73.1953 16.2084C71.3198 16.1234 68.7389 16.0865 65.9229 16.2806C63.1108 16.4743 60.0371 16.9 57.1861 17.7517C54.3432 18.601 51.6519 19.8945 49.6762 21.8701L51.0904 23.2843ZM26.8422 56.8093C30.5683 50.4991 41.1884 33.1863 51.0904 23.2843L49.6762 21.8701C39.5701 31.9761 28.834 49.5028 25.12 55.7923L26.8422 56.8093ZM26.4011 57.5595C26.5348 57.3312 26.682 57.0806 26.8422 56.8093L25.12 55.7923C24.9585 56.066 24.8099 56.3188 24.675 56.5493L26.4011 57.5595ZM23.3759 57.1308C24.1791 57.4525 24.8209 57.7988 25.0491 57.9267L26.027 56.1821C25.7548 56.0295 25.031 55.6393 24.1196 55.2742L23.3759 57.1308ZM20.1765 56.5454C21.0161 56.3692 22.237 56.6746 23.376 57.1308L24.1196 55.2742C22.9533 54.8071 21.2382 54.279 19.7656 54.5881L20.1765 56.5454ZM18.3716 57.9821C18.9267 57.1589 19.5305 56.681 20.1765 56.5454L19.7656 54.5881C18.407 54.8733 17.4175 55.8197 16.7133 56.864L18.3716 57.9821ZM15.3319 64.3296C16.3263 64.4356 16.3262 64.4358 16.3262 64.4359C16.3262 64.436 16.3262 64.4361 16.3262 64.4361C16.3262 64.4362 16.3262 64.4362 16.3262 64.4362C16.3262 64.4361 16.3262 64.4358 16.3263 64.4352C16.3264 64.434 16.3267 64.4318 16.327 64.4286C16.3278 64.4222 16.3289 64.4118 16.3306 64.3976C16.334 64.3692 16.3393 64.3256 16.3467 64.2683C16.3616 64.1537 16.3851 63.9844 16.4188 63.7721C16.4861 63.3467 16.5937 62.7526 16.7534 62.0816C17.0787 60.7151 17.598 59.1293 18.3716 57.9821L16.7133 56.864C15.736 58.3133 15.15 60.1807 14.8078 61.6184C14.6337 62.3495 14.5169 62.9952 14.4434 63.4591C14.4066 63.6914 14.3805 63.8792 14.3634 64.0104C14.3549 64.076 14.3486 64.1275 14.3444 64.1636C14.3422 64.1816 14.3406 64.1957 14.3395 64.2058C14.3389 64.2108 14.3385 64.2148 14.3382 64.2178C14.338 64.2193 14.3379 64.2205 14.3378 64.2215C14.3377 64.2219 14.3377 64.2224 14.3376 64.2227C14.3376 64.2229 14.3376 64.2231 14.3376 64.2232C14.3376 64.2234 14.3375 64.2236 15.3319 64.3296ZM16.8197 61.5394C16.1643 62.0754 15.6084 62.6041 15.2167 62.998C15.0203 63.1955 14.8639 63.3605 14.7554 63.4774C14.7011 63.5359 14.6587 63.5825 14.6292 63.6152C14.6145 63.6315 14.603 63.6444 14.5948 63.6536C14.5907 63.6582 14.5875 63.6618 14.5851 63.6645C14.5839 63.6659 14.5829 63.667 14.5821 63.6679C14.5818 63.6683 14.5814 63.6687 14.5811 63.669C14.581 63.6692 14.5809 63.6693 14.5808 63.6695C14.5807 63.6695 14.5806 63.6696 14.5806 63.6696C14.5805 63.6697 14.5805 63.6698 15.3319 64.3296C16.0833 64.9894 16.0833 64.9895 16.0832 64.9896C16.0832 64.9896 16.0831 64.9896 16.0831 64.9897C16.083 64.9897 16.083 64.9898 16.083 64.9898C16.0829 64.9899 16.0829 64.9899 16.0829 64.9899C16.083 64.9898 16.0833 64.9894 16.0838 64.9889C16.0848 64.9878 16.0866 64.9857 16.0893 64.9827C16.0945 64.9768 16.1031 64.9672 16.1148 64.9543C16.1381 64.9284 16.1739 64.889 16.2213 64.8379C16.3161 64.7358 16.4566 64.5876 16.6349 64.4082C16.9927 64.0484 17.4973 63.569 18.086 63.0874L16.8197 61.5394ZM18.5363 60.3116C17.916 60.6879 17.3331 61.1194 16.8197 61.5394L18.086 63.0874C18.5482 62.7093 19.0538 62.3369 19.5737 62.0215L18.5363 60.3116ZM20.0593 59.5555C19.5298 59.7554 19.0166 60.0201 18.5363 60.3116L19.5737 62.0215C19.977 61.7768 20.3784 61.5728 20.7658 61.4265L20.0593 59.5555ZM20.8528 59.3113C20.583 59.3746 20.3178 59.4579 20.0593 59.5555L20.7658 61.4265C20.9536 61.3556 21.1352 61.2994 21.3095 61.2585L20.8528 59.3113ZM21.3934 59.2136C21.211 59.2364 21.0305 59.2696 20.8528 59.3113L21.3096 61.2585C21.4242 61.2316 21.5349 61.2115 21.6415 61.1982L21.3934 59.2136ZM21.9939 59.1685C21.7955 59.1757 21.5891 59.1892 21.3934 59.2136L21.6415 61.1982C21.7602 61.1833 21.9042 61.173 22.0657 61.1672L21.9939 59.1685ZM22.873 59.1688C22.6091 59.1609 22.2988 59.1576 21.9939 59.1685L22.0657 61.1672C22.3121 61.1584 22.5756 61.1608 22.8135 61.1679L22.873 59.1688ZM23.1361 59.1785C23.0547 59.1749 22.9663 59.1715 22.873 59.1688L22.8135 61.1679C22.8963 61.1704 22.9752 61.1734 23.0481 61.1766L23.1361 59.1785ZM23.5919 63.574C23.6672 63.5154 23.7445 63.4643 23.8241 63.4204L22.858 61.6692C22.6825 61.766 22.5176 61.8757 22.3628 61.9963L23.5919 63.574ZM22.9927 64.2695C23.178 63.9695 23.379 63.7399 23.5919 63.574L22.3628 61.9963C21.9258 62.3368 21.5745 62.7599 21.2913 63.2182L22.9927 64.2695ZM22.8728 64.4776C22.9118 64.4051 22.9517 64.3357 22.9927 64.2695L21.2913 63.2182C21.2283 63.3202 21.1684 63.4242 21.1115 63.53L22.8728 64.4776ZM22.7856 64.6481C22.8141 64.5895 22.8431 64.5327 22.8728 64.4775L21.1115 63.53C21.0682 63.6106 21.0265 63.6921 20.9865 63.7745L22.7856 64.6481ZM21.002 72.577C21.9962 72.4694 21.9963 72.4695 21.9963 72.4696C21.9963 72.4696 21.9963 72.4697 21.9963 72.4698C21.9963 72.4698 21.9963 72.4698 21.9963 72.4697C21.9962 72.4695 21.9962 72.4689 21.9961 72.4681C21.9959 72.4664 21.9956 72.4634 21.9952 72.4592C21.9943 72.4508 21.993 72.4374 21.9912 72.4193C21.9877 72.3831 21.9825 72.3281 21.9764 72.2562C21.9641 72.1122 21.9479 71.9007 21.9327 71.6365C21.9024 71.1072 21.8767 70.3713 21.895 69.5466C21.9326 67.8562 22.1537 65.9497 22.7856 64.6481L20.9865 63.7746C20.155 65.487 19.9341 67.7634 19.8955 69.5022C19.8758 70.3922 19.9034 71.1826 19.936 71.7509C19.9523 72.0356 19.9699 72.2657 19.9836 72.4262C19.9905 72.5064 19.9963 72.5693 20.0006 72.613C20.0027 72.6349 20.0044 72.6519 20.0057 72.6639C20.0063 72.6699 20.0068 72.6747 20.0072 72.6782C20.0073 72.6799 20.0075 72.6813 20.0076 72.6824C20.0077 72.6829 20.0077 72.6834 20.0078 72.6838C20.0078 72.6839 20.0078 72.6842 20.0078 72.6843C20.0078 72.6845 20.0079 72.6846 21.002 72.577ZM29.089 70.713C27.8228 71.3888 25.887 71.6348 24.1397 71.6814C23.2898 71.7041 22.5272 71.679 21.9771 71.6483C21.7026 71.6329 21.4824 71.6162 21.3323 71.6035C21.2573 71.5971 21.1999 71.5918 21.1621 71.5881C21.1432 71.5863 21.1292 71.5848 21.1204 71.5839C21.116 71.5835 21.1129 71.5832 21.1111 71.583C21.1102 71.5829 21.1096 71.5828 21.1094 71.5828C21.1093 71.5828 21.1092 71.5828 21.1093 71.5828C21.1093 71.5828 21.1094 71.5828 21.1094 71.5828C21.1095 71.5828 21.1097 71.5828 21.002 72.577C20.8944 73.5712 20.8946 73.5712 20.8948 73.5712C20.8949 73.5712 20.8951 73.5713 20.8953 73.5713C20.8957 73.5713 20.8962 73.5714 20.8967 73.5714C20.8979 73.5716 20.8993 73.5717 20.9011 73.5719C20.9047 73.5723 20.9097 73.5728 20.9159 73.5735C20.9284 73.5747 20.9461 73.5765 20.9689 73.5787C21.0144 73.5831 21.0799 73.5892 21.1634 73.5963C21.3304 73.6105 21.5698 73.6286 21.8654 73.6451C22.4555 73.6782 23.275 73.7052 24.193 73.6807C25.9816 73.633 28.3247 73.388 30.0308 72.4773L29.089 70.713ZM29.3096 70.5864C29.2395 70.6297 29.166 70.6719 29.089 70.713L30.0308 72.4773C30.1428 72.4175 30.253 72.3544 30.3609 72.2878L29.3096 70.5864ZM30.048 69.9297C29.8796 70.164 29.6365 70.3844 29.3096 70.5864L30.3609 72.2878C30.86 71.9794 31.3177 71.59 31.672 71.0971L30.048 69.9297ZM30.1587 69.755C30.1258 69.8145 30.089 69.8727 30.048 69.9297L31.672 71.0971C31.758 70.9775 31.8376 70.8522 31.9099 70.7211L30.1587 69.755ZM34.5582 70.8538C34.5515 70.6297 34.5414 70.4332 34.533 70.2935L32.5366 70.413C32.5441 70.5376 32.5531 70.7136 32.559 70.9132L34.5582 70.8538ZM34.5607 71.6607C34.5688 71.3798 34.5654 71.0974 34.5581 70.8538L32.559 70.9132C32.5656 71.1322 32.5681 71.3734 32.5615 71.6033L34.5607 71.6607ZM34.5133 72.3333C34.5406 72.1147 34.5544 71.882 34.5607 71.6607L32.5615 71.6033C32.5563 71.7872 32.5454 71.9517 32.5287 72.0852L34.5133 72.3333ZM34.4155 72.8741C34.4573 72.6963 34.4905 72.5158 34.5133 72.3333L32.5287 72.0852C32.5154 72.1919 32.4953 72.3026 32.4684 72.4173L34.4155 72.8741ZM34.1714 73.6674C34.269 73.409 34.3523 73.1438 34.4155 72.8741L32.4684 72.4173C32.4275 72.5916 32.3713 72.7731 32.3004 72.9609L34.1714 73.6674ZM33.7067 74.6806C33.8817 74.354 34.0403 74.0147 34.1714 73.6674L32.3004 72.9609C32.205 73.2135 32.0847 73.4731 31.9437 73.7364L33.7067 74.6806ZM32.1875 76.9072C32.7185 76.2579 33.2712 75.4937 33.7067 74.6806L31.9437 73.7364C31.5891 74.3983 31.1203 75.0529 30.6394 75.6408L32.1875 76.9072ZM29.3973 78.3948C30.0571 79.1462 30.0572 79.1461 30.0573 79.1461C30.0573 79.1461 30.0574 79.146 30.0575 79.1459C30.0576 79.1458 30.0577 79.1457 30.0579 79.1455C30.0582 79.1453 30.0586 79.1449 30.059 79.1445C30.0599 79.1438 30.061 79.1428 30.0624 79.1416C30.0651 79.1392 30.0688 79.1359 30.0734 79.1319C30.0825 79.1237 30.0954 79.1122 30.1118 79.0974C30.1445 79.068 30.191 79.0256 30.2495 78.9713C30.3664 78.8628 30.5314 78.7064 30.7289 78.51C31.1227 78.1184 31.6514 77.5625 32.1875 76.9072L30.6394 75.6408C30.1579 76.2295 29.6785 76.734 29.3187 77.0918C29.1393 77.2701 28.9911 77.4106 28.889 77.5054C28.8379 77.5527 28.7985 77.5886 28.7726 77.6119C28.7597 77.6236 28.7501 77.6321 28.7442 77.6374C28.7412 77.6401 28.7392 77.6419 28.738 77.6429C28.7375 77.6434 28.7371 77.6437 28.7371 77.6438C28.737 77.6438 28.737 77.6438 28.7371 77.6437C28.7371 77.6437 28.7372 77.6436 28.7373 77.6436C28.7373 77.6436 28.7373 77.6435 28.7374 77.6435C28.7374 77.6434 28.7375 77.6434 29.3973 78.3948ZM35.7448 75.3551C34.5976 76.1287 33.0118 76.648 31.6453 76.9733C30.9743 77.133 30.3802 77.2405 29.9548 77.3079C29.7425 77.3416 29.5732 77.3651 29.4586 77.38C29.4013 77.3874 29.3577 77.3927 29.3293 77.3961C29.3151 77.3977 29.3048 77.3989 29.2983 77.3996C29.2951 77.4 29.2929 77.4002 29.2917 77.4004C29.2912 77.4004 29.2908 77.4005 29.2907 77.4005C29.2907 77.4005 29.2907 77.4005 29.2908 77.4005C29.2909 77.4005 29.291 77.4005 29.291 77.4005C29.2911 77.4004 29.2913 77.4004 29.3973 78.3948C29.5034 79.3892 29.5035 79.3891 29.5037 79.3891C29.5038 79.3891 29.504 79.3891 29.5042 79.3891C29.5046 79.389 29.505 79.389 29.5055 79.3889C29.5064 79.3888 29.5077 79.3887 29.5091 79.3885C29.5121 79.3882 29.5161 79.3878 29.5212 79.3872C29.5312 79.3861 29.5454 79.3845 29.5634 79.3823C29.5994 79.3781 29.6509 79.3718 29.7166 79.3633C29.8478 79.3462 30.0355 79.3201 30.2678 79.2833C30.7318 79.2098 31.3774 79.093 32.1085 78.9189C33.5462 78.5767 35.4136 77.9907 36.863 77.0133L35.7448 75.3551ZM37.1815 73.5502C37.0459 74.1962 36.568 74.8 35.7448 75.3551L36.863 77.0133C37.9072 76.3092 38.8536 75.3197 39.1388 73.9611L37.1815 73.5502ZM36.9739 71.4426C37.2085 72.2626 37.2964 73.003 37.1815 73.5502L39.1388 73.9611C39.3533 72.9395 39.1632 71.8238 38.8968 70.8924L36.9739 71.4426ZM81.1257 16.8696L81.1248 16.8613L79.1373 17.0847L79.1382 17.0929L81.1257 16.8696ZM76.7178 12.4542L76.7096 12.4533L76.486 14.4408L76.4942 14.4417L76.7178 12.4542ZM10.3625 63.7767L10.3608 63.793L12.349 64.01L12.3507 63.9936L10.3625 63.7767ZM16.0289 73.0941L16.0307 73.1114L18.0195 72.9004L18.0177 72.8831L16.0289 73.0941ZM20.4677 77.5484L20.485 77.5502L20.6959 75.5613L20.6786 75.5595L20.4677 77.5484ZM22.7401 61.9438L23.7992 60.8846L22.385 59.4704L21.3259 60.5296L22.7401 61.9438ZM24.0481 61.8377L22.7401 60.5296L21.3259 61.9438L22.6339 63.2519L24.0481 61.8377ZM33.0493 70.8388L31.7414 69.5309L30.3272 70.9451L31.6351 72.253L33.0493 70.8388ZM32.8277 69.6462L31.6351 70.8388L33.0493 72.253L34.2419 71.0604L32.8277 69.6462Z" fill="black" mask="url(#path-1-outside-1_599_386)"/>
<path d="M50.5601 22.7541C52.3343 20.9799 54.8091 19.7665 57.5439 18.9495C60.2767 18.1331 63.2518 17.7177 66.0088 17.5277C68.7648 17.3379 71.2961 17.3738 73.1387 17.4572C74.0598 17.499 74.8082 17.5526 75.3259 17.5957C75.5847 17.6172 75.7859 17.6362 75.922 17.6497C75.9243 17.6499 75.9265 17.6501 75.9288 17.6503C75.929 17.6526 75.9292 17.6549 75.9295 17.6571C75.943 17.7933 75.9619 17.9944 75.9835 18.2532C76.0266 18.7709 76.0802 19.5194 76.1219 20.4404C76.2054 22.2831 76.2413 24.8144 76.0514 27.5703C75.8615 30.3273 75.446 33.3024 74.6296 36.0352C73.8126 38.7701 72.5992 41.2448 70.825 43.019C64.7875 49.0566 55.785 55.4882 48.2809 60.4158C44.531 62.8783 41.1591 64.9625 38.7248 66.4312C37.5077 67.1655 36.525 67.7458 35.8469 68.1424C35.5078 68.3408 35.2448 68.4932 35.0667 68.5959C35.0273 68.6187 34.992 68.639 34.961 68.6568L24.9218 58.6176C24.9391 58.5873 24.9588 58.5529 24.9808 58.5146C25.0817 58.3383 25.2315 58.078 25.4265 57.7422C25.8166 57.0706 26.3878 56.0971 27.112 54.8901C28.5605 52.476 30.6205 49.1284 33.0668 45.3946C37.9618 37.9232 44.3936 28.9206 50.5601 22.7541Z" fill="#267D7A" stroke="black" stroke-width="0.5"/>
<rect x="25.1257" y="58.4976" width="14.0794" height="3.87383" transform="rotate(45 25.1257 58.4976)" fill="#F2BB05" stroke="black" stroke-width="0.5"/>
<path d="M19.971 55.5669C22.2173 55.0954 25.6411 57.1133 25.6411 57.1133L25.1257 58.6597L23.5793 60.206C23.5793 60.206 22.3164 60.1062 21.5174 60.206C18.6367 60.5661 15.3319 64.3297 15.3319 64.3297C15.3319 64.3297 16.1816 56.3624 19.971 55.5669Z" fill="#F2BB05" stroke="black" stroke-width="0.5" stroke-linecap="round"/>
<path d="M38.1602 73.7558C38.6317 71.5096 36.6138 68.0857 36.6138 68.0857L35.0674 68.6012L33.521 70.1475C33.521 70.1475 33.6209 71.4104 33.521 72.2094C33.1609 75.0902 29.3973 78.3949 29.3973 78.3949C29.3973 78.3949 37.3647 77.5453 38.1602 73.7558Z" fill="#F2BB05" stroke="black" stroke-width="0.5" stroke-linecap="round"/>
<path d="M21.4295 72.3638C21.3534 72.358 21.2871 72.3525 21.2315 72.3477C21.2267 72.2921 21.2212 72.2258 21.2153 72.1497C21.1956 71.8922 21.1719 71.5227 21.1561 71.0764C21.1246 70.1829 21.1254 68.9859 21.2531 67.7655C21.381 66.5418 21.6349 65.3122 22.0999 64.3435C22.5421 63.4224 23.1592 62.7668 24.0162 62.5428C24.6486 63.1752 25.3936 63.9203 26.1741 64.7008C27.9002 66.4269 29.7994 68.3262 31.0363 69.563C30.8124 70.42 30.1568 71.0371 29.2357 71.4793C28.267 71.9442 27.0374 72.1981 25.8137 72.3261C24.5933 72.4538 23.3963 72.4545 22.5028 72.423C22.0565 72.4073 21.687 72.3836 21.4295 72.3638Z" fill="#F2BB05" stroke="black" stroke-width="0.5"/>
<path d="M74.0021 37.5952L55.921 19.5141C55.9518 19.4948 55.9864 19.474 56.0252 19.4517C56.2744 19.3082 56.6936 19.1053 57.3568 18.8842C58.6839 18.4418 60.9812 17.9291 64.833 17.6723C68.6908 17.4151 71.5174 17.4153 73.3773 17.4794C74.3072 17.5114 74.9954 17.5595 75.45 17.5994C75.6557 17.6174 75.8135 17.6338 75.9243 17.6462C75.9256 17.6623 75.927 17.6793 75.9284 17.6972C75.9414 17.8622 75.9594 18.1047 75.9795 18.4136C76.0196 19.0313 76.0678 19.9144 76.0999 20.9742C76.1641 23.0948 76.164 25.9189 75.9075 28.7403C75.6514 31.5579 75.1391 33.8623 74.6915 35.461C74.4677 36.2602 74.2602 36.8828 74.109 37.3045C74.0692 37.4155 74.0333 37.5125 74.0021 37.5952Z" fill="#F2BB05" stroke="black" stroke-width="0.5"/>
<circle cx="52.9607" cy="40.6185" r="7.03972" transform="rotate(45 52.9607 40.6185)" fill="#F2BB05" stroke="black" stroke-width="0.5"/>
<path d="M52.9607 37.5256L49.9884 40.4979L50.6912 41.2007L52.3107 39.5811L52.9292 40.1996L52.9607 37.5256Z" fill="black"/>
<path d="M55.1987 39.7636L53.5791 41.3832L52.9427 40.7468L52.9962 43.5057L55.9685 40.5334L55.1987 39.7636Z" fill="black"/>
<path d="M32.2547 59.2207C32.9001 58.9483 33.7156 58.758 34.3793 58.6355C34.7092 58.5746 34.9979 58.5312 35.2039 58.503C35.2081 58.5024 35.2123 58.5018 35.2165 58.5012C35.2159 58.5054 35.2154 58.5096 35.2148 58.5139C35.1866 58.7199 35.1431 59.0085 35.0823 59.3384C34.9598 60.0022 34.7694 60.8176 34.497 61.463C33.0137 64.9775 30.3459 68.0135 26.9228 69.0529C26.3676 69.2215 25.6853 69.2859 25.1308 69.3066C24.8558 69.3168 24.6166 69.3161 24.4464 69.3129C24.4323 69.3126 24.4188 69.3123 24.4057 69.312C24.4054 69.299 24.4051 69.2854 24.4049 69.2714C24.4016 69.1012 24.401 68.8619 24.4112 68.5869C24.4318 68.0325 24.4962 67.3501 24.6648 66.795C25.7042 63.3719 28.7402 60.704 32.2547 59.2207Z" fill="#F2BB05" stroke="black" stroke-width="0.5"/>
</svg>
