<svg width="76" height="61" viewBox="0 0 76 61" fill="none" xmlns="http://www.w3.org/2000/svg">
<path d="M3.14624 34.8747C3.14624 34.3633 3.19371 33.8631 3.28446 33.3782H19.3781C19.4688 33.8631 19.5163 34.3633 19.5163 34.8747C19.5163 39.3651 15.8532 43.008 11.3313 43.008C6.80935 43.008 3.14624 39.3651 3.14624 34.8747Z" fill="#F2BB05" stroke="black" stroke-width="0.5"/>
<path d="M24.2895 11.8477C22.3541 9.59036 22.6246 6.20257 24.8937 4.28089C27.1628 2.35921 30.5712 2.63134 32.5066 4.88871L52.3881 28.0773L44.171 35.0363L24.2895 11.8477Z" fill="#524039" stroke="black" stroke-width="0.5"/>
<path d="M32.2437 11.8942C34.2398 9.73913 34.0361 6.36859 31.795 4.47062C29.5566 2.57492 26.1805 2.90643 24.3546 5.20123L3.91076 30.8939C2.59289 32.5501 2.82439 34.9439 4.43529 36.3174C6.05198 37.696 8.4779 37.5528 9.92202 35.9937L32.2437 11.8942Z" fill="#F2BB05" stroke="black" stroke-width="0.5"/>
<path d="M8.26947 33.4772C8.26947 34.3023 7.59609 34.9737 6.76218 34.9737C5.92827 34.9737 5.25488 34.3023 5.25488 33.4772C5.25488 32.6522 5.92827 31.9807 6.76218 31.9807C7.59609 31.9807 8.26947 32.6522 8.26947 33.4772Z" fill="#E3B005" stroke="black" stroke-width="0.5"/>
<path d="M30.763 8.32769C30.763 9.53858 29.7749 10.5228 28.5527 10.5228C27.3306 10.5228 26.3425 9.53858 26.3425 8.32769C26.3425 7.11681 27.3306 6.13257 28.5527 6.13257C29.7749 6.13257 30.763 7.11681 30.763 8.32769Z" fill="#E3B005" stroke="black" stroke-width="0.5"/>
<ellipse cx="28.5528" cy="8.32739" rx="1.40584" ry="1.39721" fill="black"/>
<ellipse cx="6.76239" cy="33.4776" rx="1.05438" ry="1.04791" fill="black"/>
<rect x="14.3931" y="48.125" width="61.3568" height="12.0749" rx="6.03746" fill="#F2BB05" stroke="black" stroke-width="0.5"/>
<path d="M27.2485 54.1625C27.2485 56.5309 25.3163 58.4535 22.9296 58.4535C20.5428 58.4535 18.6106 56.5309 18.6106 54.1625C18.6106 51.7942 20.5428 49.8716 22.9296 49.8716C25.3163 49.8716 27.2485 51.7942 27.2485 54.1625Z" fill="#E3B005" stroke="black" stroke-width="0.5"/>
<path d="M42.0098 54.1625C42.0098 56.5309 40.0775 58.4535 37.6908 58.4535C35.304 58.4535 33.3718 56.5309 33.3718 54.1625C33.3718 51.7942 35.304 49.8716 37.6908 49.8716C40.0775 49.8716 42.0098 51.7942 42.0098 54.1625Z" fill="#E3B005" stroke="black" stroke-width="0.5"/>
<path d="M56.771 54.1625C56.771 56.5309 54.8388 58.4535 52.452 58.4535C50.0653 58.4535 48.1331 56.5309 48.1331 54.1625C48.1331 51.7942 50.0653 49.8716 52.452 49.8716C54.8388 49.8716 56.771 51.7942 56.771 54.1625Z" fill="#E3B005" stroke="black" stroke-width="0.5"/>
<path d="M24.7883 54.1622C24.7883 55.1802 23.9576 56.008 22.9296 56.008C21.9015 56.008 21.0708 55.1802 21.0708 54.1622C21.0708 53.1443 21.9015 52.3164 22.9296 52.3164C23.9576 52.3164 24.7883 53.1443 24.7883 54.1622Z" fill="black" stroke="black" stroke-width="0.5"/>
<path d="M39.5495 54.1622C39.5495 55.1802 38.7188 56.008 37.6908 56.008C36.6628 56.008 35.832 55.1802 35.832 54.1622C35.832 53.1443 36.6628 52.3164 37.6908 52.3164C38.7188 52.3164 39.5495 53.1443 39.5495 54.1622Z" fill="black" stroke="black" stroke-width="0.5"/>
<path d="M54.3108 54.1622C54.3108 55.1802 53.48 56.008 52.452 56.008C51.424 56.008 50.5933 55.1802 50.5933 54.1622C50.5933 53.1443 51.424 52.3164 52.452 52.3164C53.48 52.3164 54.3108 53.1443 54.3108 54.1622Z" fill="black" stroke="black" stroke-width="0.5"/>
<path d="M71.5325 54.1625C71.5325 56.5309 69.6003 58.4535 67.2135 58.4535C64.8267 58.4535 62.8945 56.5309 62.8945 54.1625C62.8945 51.7942 64.8267 49.8716 67.2135 49.8716C69.6003 49.8716 71.5325 51.7942 71.5325 54.1625Z" fill="#E3B005" stroke="black" stroke-width="0.5"/>
<path d="M69.072 54.1622C69.072 55.1802 68.2413 56.008 67.2132 56.008C66.1852 56.008 65.3545 55.1802 65.3545 54.1622C65.3545 53.1443 66.1852 52.3164 67.2132 52.3164C68.2413 52.3164 69.072 53.1443 69.072 54.1622Z" fill="black" stroke="black" stroke-width="0.5"/>
<rect x="29.8574" y="43.2126" width="30.4284" height="4.39025" fill="#F2BB05" stroke="black" stroke-width="0.5"/>
<rect x="41.4553" y="26.7415" width="6.52918" height="16.9652" fill="#F2BB05" stroke="black" stroke-width="0.5"/>
<rect x="24.2339" y="35.4739" width="17.073" height="8.23259" fill="#F2BB05" stroke="black" stroke-width="0.5"/>
<path d="M48.1331 16.2633C63.2336 16.3968 75.6133 28.6117 75.7487 43.7065H48.1331V16.2633Z" fill="#F2BB05" stroke="black" stroke-width="0.5"/>
<path d="M57.6133 30.1172L57.6133 37.223H59.2933L59.2933 33.3511H60.772L57.6133 30.1172Z" fill="black"/>
<path d="M62.9637 30.1172L62.9637 33.9891H61.4422L64.804 37.223L64.804 30.1172H62.9637Z" fill="black"/>
<rect x="26.6941" y="30.5837" width="14.6127" height="5.08885" fill="#F2BB05" stroke="black" stroke-width="0.5"/>
<path d="M29.1543 16.265C35.1121 16.3979 39.901 21.2691 39.901 27.2589V30.433H29.1543V16.265Z" fill="#F2BB05" stroke="black" stroke-width="0.5"/>
</svg>
