<svg width="82" height="82" viewBox="0 0 82 82" fill="none" xmlns="http://www.w3.org/2000/svg">
<path d="M76.3202 20.7005L75.8362 20.8262L76.3202 20.7005C76.2914 20.5896 76.2588 20.4537 76.2206 20.294L75.7343 20.4105L76.2206 20.294L76.2186 20.2859C76.1099 19.8319 75.9614 19.2122 75.7626 18.6295C75.1321 16.7821 73.9351 14.8743 71.1313 12.0261C68.2327 9.08159 66.333 7.79548 64.5649 7.10315C63.9621 6.86709 63.3519 6.69945 62.9244 6.58203L62.9174 6.58009C62.7887 6.54475 62.68 6.51486 62.5901 6.48851C62.1572 6.36156 61.778 6.22487 61.2902 5.94199C55.3218 2.48075 48.388 0.5 41 0.5C32.8658 0.5 25.284 2.90089 18.9346 7.03348C18.6848 7.19606 18.5299 7.24029 18.3152 7.27805C18.1873 7.30057 18.067 7.31546 17.8653 7.34022L17.6882 7.36213C17.4073 7.39726 17.0355 7.44728 16.6187 7.54093C14.7524 7.96026 12.8715 9.05219 10.2747 11.776C7.791 14.3811 6.84662 16.2703 6.51848 18.1161C6.44605 18.5236 6.41081 18.8889 6.38605 19.1643L6.37422 19.297C6.35441 19.5202 6.34234 19.6548 6.32264 19.7932C6.28961 20.0252 6.24591 20.1925 6.09646 20.4457C2.53982 26.4732 0.5 33.5026 0.5 41C0.5 63.3675 18.6325 81.5 41 81.5C63.3675 81.5 81.5 63.3675 81.5 41C81.5 34.2437 79.8434 27.8662 76.9119 22.2594C76.6001 21.6631 76.4484 21.1942 76.3202 20.7005ZM78.2465 41C78.2465 61.5707 61.5707 78.2465 41 78.2465C20.4293 78.2465 3.75352 61.5707 3.75352 41C3.75352 34.0999 5.62934 27.6395 8.89853 22.0992C9.48023 21.1134 9.54951 20.3278 9.61522 19.5828L9.61617 19.572C9.67409 18.9154 9.73119 18.2839 10.1051 17.4484C10.4838 16.6022 11.2015 15.5189 12.6295 14.0211C14.161 12.4147 15.2617 11.5982 16.1158 11.1608C16.9565 10.7304 17.5835 10.6525 18.2349 10.5729L18.2437 10.5718C18.9742 10.4825 19.7445 10.3883 20.7094 9.76029C26.5467 5.96099 33.5148 3.75352 41 3.75352C47.7995 3.75352 54.1721 5.57507 59.658 8.75647C60.649 9.33115 61.4158 9.54223 62.1418 9.74205L62.1479 9.74372C62.9089 9.95319 63.6311 10.1525 64.6265 10.7562C65.6338 11.3672 66.9372 12.4033 68.8127 14.3085C70.5816 16.1054 71.5354 17.3705 72.0957 18.3718C72.6504 19.3631 72.8313 20.115 73.028 20.9371L73.0293 20.9427C73.2231 21.7527 73.4319 22.6255 74.0287 23.7669C76.7228 28.9195 78.2465 34.7811 78.2465 41Z" fill="white" stroke="black"/>
<path d="M78.7464 40.9999C78.7464 61.8467 61.8467 78.7464 40.9999 78.7464C20.1531 78.7464 3.25342 61.8467 3.25342 40.9999C3.25342 34.008 5.15444 27.4602 8.4678 21.845C9.93949 19.3509 7.76046 18.4034 12.2675 13.676C17.0562 8.65306 17.9684 10.9476 20.4365 9.34113C26.3525 5.49061 33.415 3.25342 40.9999 3.25342C47.8899 3.25342 54.3487 5.09943 59.9087 8.32384C62.8468 10.0277 63.623 8.32384 69.1689 13.9576C74.4717 19.3444 72.7321 20.208 74.4717 23.5351C77.2022 28.7576 78.7464 34.6984 78.7464 40.9999Z" fill="#FFDA5F"/>
<path fill-rule="evenodd" clip-rule="evenodd" d="M40.9999 77.6196C61.2244 77.6196 77.6196 61.2244 77.6196 40.9999C77.6196 34.8845 76.1215 29.1223 73.4732 24.0572C72.9879 23.1291 72.7436 22.3658 72.5644 21.6758C72.5021 21.436 72.4516 21.2242 72.4043 21.0263C72.3092 20.6275 72.2274 20.2848 72.0901 19.8827C71.7205 18.7995 70.955 17.3781 68.3659 14.7481C65.6443 11.9834 64.1944 11.1252 63.15 10.7162C62.7522 10.5604 62.4194 10.4689 62.0306 10.3619C61.8662 10.3167 61.6918 10.2687 61.4982 10.2119C60.8684 10.0273 60.1789 9.78306 59.3435 9.29856C53.9505 6.17106 47.6861 4.38018 40.9999 4.38018C33.6397 4.38018 26.7898 6.55039 21.0512 10.2855C20.2838 10.7849 19.6147 10.9892 18.9875 11.0995C18.7491 11.1415 18.5087 11.1708 18.2999 11.1963C18.2549 11.2018 18.2114 11.2071 18.1697 11.2123C17.9208 11.2434 17.6986 11.2752 17.4692 11.3267C16.6333 11.5145 15.3945 12.029 13.083 14.4535C10.9237 16.7183 10.49 17.9446 10.3388 18.7952C10.297 19.0299 10.2735 19.2573 10.2506 19.5116C10.2475 19.5471 10.2442 19.5837 10.2409 19.6212C10.2217 19.8397 10.1998 20.0894 10.1641 20.34C10.0746 20.9685 9.89556 21.6425 9.43822 22.4176C6.2244 27.8641 4.38018 34.2149 4.38018 40.9999C4.38018 61.2244 20.7754 77.6196 40.9999 77.6196ZM40.9999 78.7464C61.8467 78.7464 78.7464 61.8467 78.7464 40.9999C78.7464 34.6984 77.2022 28.7576 74.4717 23.5351C73.9037 22.4487 73.7066 21.625 73.5142 20.8207C73.1173 19.1618 72.7402 17.5855 69.1689 13.9576C65.3881 10.1169 63.824 9.68638 62.2805 9.26155C61.5599 9.06321 60.8438 8.86611 59.9087 8.32384C54.3487 5.09943 47.8899 3.25342 40.9999 3.25342C33.415 3.25342 26.3525 5.49061 20.4365 9.34113C19.5687 9.90593 18.8933 9.98853 18.1741 10.0765C16.8478 10.2387 15.3726 10.419 12.2675 13.676C9.36573 16.7196 9.23546 18.1964 9.118 19.5279C9.05303 20.2645 8.99197 20.9567 8.4678 21.845C5.15444 27.4602 3.25342 34.008 3.25342 40.9999C3.25342 61.8467 20.1531 78.7464 40.9999 78.7464Z" fill="black"/>
<path fill-rule="evenodd" clip-rule="evenodd" d="M62.3001 10.588C62.6054 10.5282 62.9014 10.7273 62.9612 11.0326L62.4083 11.1409C62.9612 11.0326 62.9612 11.0324 62.9612 11.0323L62.9611 11.032L62.9611 11.0318L62.9617 11.0352L62.9657 11.0538C62.9696 11.0715 62.9759 11.0994 62.9849 11.1369C63.0031 11.2119 63.0322 11.3248 63.075 11.4694C63.1605 11.7588 63.2999 12.1737 63.5131 12.6641C63.9402 13.6463 64.6587 14.9205 65.8235 16.0966C67.2268 17.5135 68.6793 18.4684 69.7802 19.0684C70.3301 19.3682 70.7906 19.5784 71.1109 19.7128C71.271 19.78 71.3959 19.8282 71.4792 19.859C71.5209 19.8744 71.5521 19.8855 71.5722 19.8925L71.5937 19.8999L71.5978 19.9013L71.5979 19.9013M62.9611 11.0318C62.961 11.0316 62.961 11.0316 62.961 11.0317L62.9611 11.0318ZM62.3001 10.588C61.9947 10.6478 61.7957 10.9438 61.8555 11.2492L62.3001 10.588ZM61.8555 11.2492L62.4083 11.1409L61.8555 11.2492Z" fill="black"/>
<path fill-rule="evenodd" clip-rule="evenodd" d="M60.1491 10.4968L60.1493 10.4979L60.1503 10.5049C60.1514 10.5117 60.1531 10.5227 60.1556 10.5377C60.1605 10.5677 60.1684 10.6138 60.1796 10.6746C60.2022 10.7962 60.2384 10.9763 60.2921 11.2039C60.3994 11.6594 60.5761 12.3032 60.8518 13.0474C61.4047 14.5401 62.347 16.4122 63.905 17.9854C65.6923 19.79 67.814 20.9726 69.5013 21.7052C70.3428 22.0705 71.0707 22.3214 71.5861 22.4805C71.8437 22.56 72.0478 22.6165 72.186 22.6527C72.2551 22.6708 72.3077 22.6839 72.3423 22.6922C72.3596 22.6964 72.3723 22.6994 72.3804 22.7013L72.3889 22.7032L72.3902 22.7035C72.6937 22.7714 72.8852 23.0724 72.8175 23.376C72.7498 23.6797 72.4487 23.871 72.145 23.8033L72.2676 23.2534C72.145 23.8033 72.1452 23.8033 72.145 23.8033L72.1442 23.8031L72.1429 23.8028L72.1389 23.8019L72.1256 23.7989C72.1143 23.7962 72.0982 23.7925 72.0775 23.7875C72.0363 23.7775 71.9767 23.7627 71.9003 23.7427C71.7477 23.7027 71.528 23.6418 71.2538 23.5572C70.7057 23.388 69.9382 23.1232 69.0526 22.7387C67.2857 21.9717 65.026 20.7185 63.1044 18.7783C61.3968 17.054 60.3824 15.024 59.7952 13.4388C59.5008 12.644 59.3115 11.9549 59.1954 11.4624C59.1373 11.2159 59.0974 11.0181 59.0718 10.8803C59.059 10.8114 59.0498 10.7575 59.0436 10.7199C59.0405 10.7011 59.0382 10.6863 59.0366 10.6759L59.0347 10.6634L59.0342 10.6596L59.034 10.6583C59.034 10.6581 59.0339 10.6575 59.5915 10.5774L59.0339 10.6575C58.9896 10.3495 59.2034 10.064 59.5114 10.0197C59.8192 9.97549 60.1046 10.1891 60.1491 10.4968Z" fill="black"/>
<path fill-rule="evenodd" clip-rule="evenodd" d="M53.3943 39.8733C55.8835 39.8733 57.9013 37.8554 57.9013 35.3662C57.9013 32.8771 55.8835 30.8592 53.3943 30.8592C50.9051 30.8592 48.8873 32.8771 48.8873 35.3662C48.8873 37.8554 50.9051 39.8733 53.3943 39.8733ZM53.3943 41C56.5058 41 59.0281 38.4777 59.0281 35.3662C59.0281 32.2548 56.5058 29.7324 53.3943 29.7324C50.2828 29.7324 47.7605 32.2548 47.7605 35.3662C47.7605 38.4777 50.2828 41 53.3943 41Z" fill="black"/>
<path fill-rule="evenodd" clip-rule="evenodd" d="M66.3522 57.338C66.9744 57.338 67.4789 56.8336 67.4789 56.2113C67.4789 55.589 66.9744 55.0845 66.3522 55.0845C65.7299 55.0845 65.2254 55.589 65.2254 56.2113C65.2254 56.8336 65.7299 57.338 66.3522 57.338ZM66.3522 58.4648C67.5967 58.4648 68.6057 57.4559 68.6057 56.2113C68.6057 54.9667 67.5967 53.9578 66.3522 53.9578C65.1076 53.9578 64.0986 54.9667 64.0986 56.2113C64.0986 57.4559 65.1076 58.4648 66.3522 58.4648Z" fill="black"/>
<path fill-rule="evenodd" clip-rule="evenodd" d="M66.3521 59.0281C67.9078 59.0281 69.169 57.767 69.169 56.2112C69.169 54.6555 67.9078 53.3943 66.3521 53.3943C64.7964 53.3943 63.5352 54.6555 63.5352 56.2112C63.5352 57.767 64.7964 59.0281 66.3521 59.0281ZM66.3521 60.1549C68.5301 60.1549 70.2958 58.3893 70.2958 56.2112C70.2958 54.0332 68.5301 52.2676 66.3521 52.2676C64.1741 52.2676 62.4084 54.0332 62.4084 56.2112C62.4084 58.3893 64.1741 60.1549 66.3521 60.1549Z" fill="black"/>
<path fill-rule="evenodd" clip-rule="evenodd" d="M21.8451 56.7746C26.8234 56.7746 30.8592 52.7388 30.8592 47.7605C30.8592 42.7821 26.8234 38.7464 21.8451 38.7464C16.8667 38.7464 12.831 42.7821 12.831 47.7605C12.831 52.7388 16.8667 56.7746 21.8451 56.7746ZM21.8451 57.9013C27.4457 57.9013 31.9859 53.3611 31.9859 47.7605C31.9859 42.1598 27.4457 37.6196 21.8451 37.6196C16.2444 37.6196 11.7042 42.1598 11.7042 47.7605C11.7042 53.3611 16.2444 57.9013 21.8451 57.9013Z" fill="black"/>
<path fill-rule="evenodd" clip-rule="evenodd" d="M45.268 70.4394C45.4853 70.2133 45.5069 70.0714 45.5069 70.0141C45.5069 69.9569 45.4853 69.8149 45.268 69.5889C45.0453 69.3572 44.6691 69.0972 44.1173 68.8544C43.0168 68.3702 41.4175 68.0423 39.5914 68.0423C37.7654 68.0423 36.1661 68.3702 35.0656 68.8544C34.5138 69.0972 34.1376 69.3572 33.9149 69.5889C33.6976 69.8149 33.676 69.9569 33.676 70.0141C33.676 70.0714 33.6976 70.2133 33.9149 70.4394C34.1376 70.671 34.5138 70.931 35.0656 71.1738C36.1661 71.658 37.7654 71.9859 39.5914 71.9859C41.4175 71.9859 43.0168 71.658 44.1173 71.1738C44.6691 70.931 45.0453 70.671 45.268 70.4394ZM39.5914 73.1127C43.4808 73.1127 46.6337 71.7254 46.6337 70.0141C46.6337 68.3028 43.4808 66.9155 39.5914 66.9155C35.7021 66.9155 32.5492 68.3028 32.5492 70.0141C32.5492 71.7254 35.7021 73.1127 39.5914 73.1127Z" fill="black"/>
<path fill-rule="evenodd" clip-rule="evenodd" d="M21.5634 54.521C25.1416 54.521 28.0423 51.6203 28.0423 48.0422C28.0423 44.464 25.1416 41.5633 21.5634 41.5633C17.9852 41.5633 15.0845 44.464 15.0845 48.0422C15.0845 51.6203 17.9852 54.521 21.5634 54.521ZM21.5634 55.6478C25.7639 55.6478 29.169 52.2426 29.169 48.0422C29.169 43.8417 25.7639 40.4365 21.5634 40.4365C17.3629 40.4365 13.9578 43.8417 13.9578 48.0422C13.9578 52.2426 17.3629 55.6478 21.5634 55.6478Z" fill="black"/>
<path fill-rule="evenodd" clip-rule="evenodd" d="M34.8029 24.6619C37.8906 24.6619 39.8733 22.7694 39.8733 20.9999C39.8733 19.2304 37.8906 17.3379 34.8029 17.3379C31.7152 17.3379 29.7325 19.2304 29.7325 20.9999C29.7325 22.7694 31.7152 24.6619 34.8029 24.6619ZM34.8029 25.7886C38.2255 25.7886 41.0001 23.6447 41.0001 20.9999C41.0001 18.3552 38.2255 16.2112 34.8029 16.2112C31.3803 16.2112 28.6057 18.3552 28.6057 20.9999C28.6057 23.6447 31.3803 25.7886 34.8029 25.7886Z" fill="black"/>
<path fill-rule="evenodd" clip-rule="evenodd" d="M34.8028 22.9718C36.6268 22.9718 37.6197 21.851 37.6197 21C37.6197 20.149 36.6268 19.0281 34.8028 19.0281C32.9788 19.0281 31.9859 20.149 31.9859 21C31.9859 21.851 32.9788 22.9718 34.8028 22.9718ZM34.8028 24.0985C36.9808 24.0985 38.7465 22.7113 38.7465 21C38.7465 19.2887 36.9808 17.9014 34.8028 17.9014C32.6248 17.9014 30.8591 19.2887 30.8591 21C30.8591 22.7113 32.6248 24.0985 34.8028 24.0985Z" fill="black"/>
<path fill-rule="evenodd" clip-rule="evenodd" d="M53.3945 38.1832C54.9502 38.1832 56.2114 36.922 56.2114 35.3663C56.2114 33.8105 54.9502 32.5494 53.3945 32.5494C51.8387 32.5494 50.5776 33.8105 50.5776 35.3663C50.5776 36.922 51.8387 38.1832 53.3945 38.1832ZM53.3945 39.3099C55.5725 39.3099 57.3381 37.5443 57.3381 35.3663C57.3381 33.1882 55.5725 31.4226 53.3945 31.4226C51.2164 31.4226 49.4508 33.1882 49.4508 35.3663C49.4508 37.5443 51.2164 39.3099 53.3945 39.3099Z" fill="black"/>
<path fill-rule="evenodd" clip-rule="evenodd" d="M19.3663 10.862C19.6758 10.8931 19.9016 11.1694 19.8704 11.4789L19.3099 11.4226C19.8704 11.4789 19.8704 11.4793 19.8704 11.4796L19.8703 11.4803L19.8701 11.4818L19.8697 11.4855L19.8686 11.4954C19.8677 11.5031 19.8665 11.513 19.8648 11.525C19.8615 11.549 19.8566 11.5815 19.8495 11.6223C19.8353 11.7038 19.8122 11.818 19.7755 11.9621C19.7021 12.2505 19.5742 12.658 19.3538 13.1623C18.9124 14.1719 18.1026 15.5629 16.6245 17.1576C15.1567 18.7413 13.7857 19.8246 12.7761 20.5145C12.2713 20.8594 11.8566 21.1062 11.5651 21.2681C11.4193 21.349 11.3043 21.4088 11.2241 21.449C11.184 21.4692 11.1526 21.4844 11.1305 21.495L11.1042 21.5074L11.0964 21.511L11.0939 21.5122L11.0929 21.5126L11.0925 21.5128C11.0924 21.5129 11.0922 21.5129 10.8592 21L11.0922 21.5129C10.8089 21.6416 10.4749 21.5163 10.3462 21.233C10.2176 20.95 10.3427 20.6163 10.6255 20.4874L10.6254 20.4874C10.6253 20.4875 10.6253 20.4875 10.6255 20.4874L10.6255 20.4874C10.6256 20.4873 10.6257 20.4873 10.6259 20.4872L10.6261 20.4871L10.6285 20.486L10.645 20.4782C10.6605 20.4708 10.6852 20.4588 10.7186 20.4421C10.7853 20.4086 10.8864 20.3561 11.0181 20.283C11.2813 20.1368 11.6662 19.9082 12.1404 19.5842C13.0889 18.936 14.394 17.9066 15.7981 16.3917C17.1919 14.8878 17.9314 13.6028 18.3214 12.711C18.5165 12.2645 18.6248 11.9151 18.6836 11.6841C18.7131 11.5685 18.7301 11.4825 18.7395 11.4286C18.7442 11.4017 18.747 11.3828 18.7484 11.3723L18.7497 11.3629L18.7495 11.3641L18.7494 11.365L18.7494 11.3656C18.7495 11.3647 18.7496 11.3638 18.7497 11.3628L18.7497 11.3628M18.7497 11.3629L18.7497 11.3628C18.7824 11.055 19.0578 10.831 19.3663 10.862" fill="black"/>
</svg>
