<svg width="187" height="215" viewBox="0 0 187 215" fill="none" xmlns="http://www.w3.org/2000/svg">
<rect x="-0.5" y="0.5" width="39" height="155" transform="matrix(-1 0 0 1 39 58)" fill="#F2BB05" stroke="black"/>
<rect x="-0.5" y="0.5" width="5" height="30" transform="matrix(-1 0 0 1 44 81)" fill="#FC3A25" stroke="black"/>
<path d="M46.0687 90.8322C45.5686 83.5 72.0686 86.8322 77.9697 90.8323L77.5685 112.332C73.141 114.351 66.121 116.215 60.1891 106.903C57.0583 101.988 56.2317 98.9083 56.5718 96.4998C56.8282 94.6837 46.0687 93.4998 46.0687 90.8322Z" fill="#F7EED4" stroke="black"/>
<path d="M77.5688 112.332L78.0688 90.332L92.0688 87.832L107.069 73.332L121.069 107.832C91.4916 122.411 87.9209 120.049 77.5688 112.332Z" fill="#C6C2AB" stroke="black"/>
<path d="M124.069 15.8321C111.42 14.6118 106.974 23.6972 104.569 25.332C101.872 27.1652 97.5687 25.832 95.5687 27.332C93.5687 28.832 93.5687 35.8319 91.0687 37.8319C84.1176 43.3929 81.6425 43.8081 79.5687 52.8319C79.5687 52.8319 81.159 53.9821 81.0687 55.8319C80.9791 57.6682 79.5687 58.3319 79.5687 58.3319C79.5687 58.3319 81.6216 74.6271 100.069 75.332C100.069 75.332 95.5687 95.9995 95.5687 108.332C95.5687 122.459 102.069 138 102.069 138H177.07C182.001 108.957 182.569 73.4555 158.569 49.832C152.445 43.8047 147.155 38.6844 140.569 34.832C140.417 25.1063 136.717 17.0524 124.069 15.8321Z" fill="#C6C2AB"/>
<path d="M100.069 75.332C81.6216 74.6271 79.5687 58.3319 79.5687 58.3319C79.5687 58.3319 80.9791 57.6682 81.0687 55.8319C81.159 53.9821 79.5687 52.8319 79.5687 52.8319C81.6425 43.8081 84.1176 43.3929 91.0687 37.8319C93.5687 35.8319 93.5687 28.832 95.5687 27.332C97.5687 25.832 101.872 27.1652 104.569 25.332C106.974 23.6972 111.42 14.6118 124.069 15.8321C136.717 17.0524 140.417 25.1063 140.569 34.832C147.155 38.6844 152.445 43.8047 158.569 49.832C182.569 73.4555 182.001 108.957 177.07 138H102.069C102.069 138 95.5687 122.459 95.5687 108.332C95.5687 95.9995 100.069 75.332 100.069 75.332ZM100.069 75.332C103.069 75.332 109.069 71.832 110.069 70.332" stroke="black"/>
<path d="M147.5 214C164.553 214 158.302 203.652 155.568 197.714L123 197.714L121.5 200.5C119.5 203.5 98.8992 198.367 98.6773 207.83C98.4858 216 126.499 214 147.5 214Z" fill="#F7EED4" stroke="black"/>
<path d="M99.5698 106.545L95.5698 104.5V109.955L98.5698 112L99.5698 106.545Z" fill="#B4500C"/>
<path d="M133.204 9.26383C122.134 4.91935 109.655 10.2285 105.081 21.1324L145.72 37.082C149.799 25.9838 144.273 13.6083 133.204 9.26383Z" fill="#F2BB05" stroke="black"/>
<path d="M147.31 32.609L107.349 16.9255L106.365 19.4284L146.693 35.2558L147.31 32.609Z" fill="black"/>
<path d="M111.081 16.7286C112.03 14.3159 110.582 11.3176 107.603 9.9229L103.897 19.3496C107.029 20.3531 110.133 19.1413 111.081 16.7286Z" fill="#F4E9BD" stroke="black"/>
<path fill-rule="evenodd" clip-rule="evenodd" d="M95.0702 115C95.0702 123.501 109.07 161.001 112.07 166.501C114.655 171.24 115.432 173.822 116.998 179.021C118.187 182.972 119.831 188.433 123.069 197.5H155.569C159.076 188.537 160.459 181.7 162.081 173.675C162.54 171.404 163.019 169.037 163.57 166.501C187.07 144.499 191.57 120.998 179.57 82.4991C168.118 45.7586 146.07 47.4995 113.57 72L100.57 101L96.0698 98.4995C95.028 103.632 95.0372 105.838 95.0616 111.692C95.0657 112.68 95.0702 113.773 95.0702 115ZM154.07 128.5C138.066 132.916 118.57 124 118.57 107.5C118.57 88.0002 123.438 70.4114 139.442 65.9956C160.57 60.166 170.075 64.0002 177.255 90.0232C184.009 114.5 179.59 121.459 154.07 128.5Z" fill="#FF7A1E" stroke="black"/>
<path d="M161.57 137.501C160.768 133.613 146.107 133.059 142.57 135.5C138.07 138.607 137.76 144.414 142.57 151C146.779 156.764 149.96 156.125 153.042 155.506L153.07 155.5C166.105 154.234 162.573 142.36 161.57 137.501Z" fill="#F7EED4" stroke="black"/>
<path d="M169.5 98.0419C167.44 90.104 158.921 77.6195 158.921 77.6195C158.921 77.6195 152.562 67.0005 140.07 70.5005C124.422 74.8849 125.709 85.2515 125.709 85.2515C123.848 95.7888 132.111 110.654 141.579 115.885L142.081 135.334C142.081 135.334 147.833 138.951 151.976 139.217C155.616 139.451 161.118 137.297 161.118 137.297C161.118 137.297 173.612 113.881 169.5 98.0419Z" fill="#C6C2AB" stroke="black"/>
</svg>
