<svg width="187" height="215" viewBox="0 0 187 215" fill="none" xmlns="http://www.w3.org/2000/svg">
<rect x="147.5" y="58.5" width="39" height="155" fill="#F2BB05" stroke="black"/>
<rect x="142.5" y="81.5" width="5" height="30" fill="#FC3A25" stroke="black"/>
<path d="M140.931 90.8322C141.431 83.5 114.931 86.8322 109.03 90.8323L109.431 112.332C113.859 114.351 120.879 116.215 126.811 106.903C129.942 101.988 130.768 98.9083 130.428 96.4998C130.172 94.6837 140.931 93.4998 140.931 90.8322Z" fill="#F7EED4" stroke="black"/>
<path d="M109.431 112.332L108.931 90.332L94.9312 87.832L79.9312 73.332L65.9312 107.832C95.5084 122.411 99.0791 120.049 109.431 112.332Z" fill="#C6C2AB" stroke="black"/>
<path d="M62.9313 15.8326C75.5798 14.6123 80.0263 23.6977 82.4313 25.3325C85.128 27.1657 89.4313 25.8325 91.4313 27.3325C93.4313 28.8325 93.4313 35.8324 95.9313 37.8324C102.882 43.3934 105.357 43.8086 107.431 52.8324C107.431 52.8324 105.841 53.9826 105.931 55.8324C106.021 57.6687 107.431 58.3324 107.431 58.3324C107.431 58.3324 105.378 74.6276 86.9313 75.3325C86.9313 75.3325 91.4313 96 91.4313 108.333C91.4313 122.459 84.9313 138 84.9313 138H9.93047C4.99872 108.957 4.43066 73.456 28.4313 49.8325C34.5549 43.8052 39.8448 38.6849 46.4313 34.8325C46.5826 25.1067 50.2828 17.0529 62.9313 15.8326Z" fill="#C6C2AB"/>
<path d="M86.9313 75.3325C105.378 74.6276 107.431 58.3324 107.431 58.3324C107.431 58.3324 106.021 57.6687 105.931 55.8324C105.841 53.9826 107.431 52.8324 107.431 52.8324C105.357 43.8086 102.882 43.3934 95.9313 37.8324C93.4313 35.8324 93.4313 28.8325 91.4313 27.3325C89.4313 25.8325 85.128 27.1657 82.4313 25.3325C80.0263 23.6977 75.5798 14.6123 62.9313 15.8326C50.2828 17.0529 46.5826 25.1067 46.4313 34.8325C39.8448 38.6849 34.5549 43.8052 28.4313 49.8325C4.43066 73.456 4.99872 108.957 9.93047 138H84.9313C84.9313 138 91.4313 122.459 91.4313 108.333C91.4313 96 86.9313 75.3325 86.9313 75.3325ZM86.9313 75.3325C83.9313 75.3325 77.9313 71.8325 76.9313 70.3325" stroke="black"/>
<path d="M39.5 214C22.4471 214 28.6977 203.652 31.4319 197.714L64 197.714L65.5 200.5C67.5 203.5 88.1008 198.367 88.3227 207.83C88.5142 216 60.5013 214 39.5 214Z" fill="#F7EED4" stroke="black"/>
<path d="M87.4302 106.545L91.4302 104.5V109.955L88.4302 112L87.4302 106.545Z" fill="#B4500C"/>
<path d="M53.7964 9.26383C64.866 4.91935 77.3453 10.2285 81.9186 21.1324L41.2796 37.082C37.2013 25.9838 42.7268 13.6083 53.7964 9.26383Z" fill="#F2BB05" stroke="black"/>
<path d="M39.6899 32.609L79.6512 16.9255L80.6354 19.4284L40.3074 35.2558L39.6899 32.609Z" fill="black"/>
<path d="M75.9187 16.7291C74.97 14.3164 76.4183 11.3181 79.3966 9.92339L83.1033 19.3501C79.9712 20.3536 76.8674 19.1418 75.9187 16.7291Z" fill="#F4E9BD" stroke="black"/>
<path fill-rule="evenodd" clip-rule="evenodd" d="M91.9298 115.001C91.9298 123.501 77.93 161.001 74.9298 166.501C72.3448 171.24 71.5675 173.822 70.0023 179.021C68.813 182.972 67.1688 188.434 63.931 197.501H31.4311C27.9236 188.538 26.5413 181.701 24.9188 173.675C24.4596 171.404 23.9811 169.038 23.4299 166.501C-0.0701904 144.5 -4.57004 120.999 7.43009 82.4996C18.8821 45.7591 40.9302 47.5 73.4298 72.0005L86.4298 101.001L90.9302 98.5C91.972 103.633 91.9628 105.839 91.9384 111.693C91.9343 112.681 91.9298 113.773 91.9298 115.001ZM32.9297 128.501C48.9336 132.916 68.4297 124.001 68.4297 107.501C68.4297 88.0007 63.5618 70.4119 47.5579 65.9961C26.4297 60.1665 16.9248 64.0007 9.74459 90.0236C2.99092 114.501 7.40985 121.459 32.9297 128.501Z" fill="#FF7A1E" stroke="black"/>
<path d="M25.4298 137.501C26.2318 133.613 40.8934 133.059 44.4298 135.5C48.9298 138.607 49.2397 144.414 44.4298 151C40.2209 156.764 37.0398 156.125 33.958 155.506L33.9298 155.5C20.8951 154.234 24.4273 142.36 25.4298 137.501Z" fill="#F7EED4" stroke="black"/>
<path d="M17.4997 98.0419C19.5604 90.104 28.0793 77.6195 28.0793 77.6195C28.0793 77.6195 34.4384 67.0005 46.9299 70.5005C62.578 74.8849 61.2907 85.2515 61.2907 85.2515C63.1525 95.7888 54.8888 110.654 45.4214 115.885L44.9192 135.334C44.9192 135.334 39.1666 138.951 35.0238 139.217C31.3835 139.451 25.8825 137.297 25.8825 137.297C25.8825 137.297 13.3878 113.881 17.4997 98.0419Z" fill="#C6C2AB" stroke="black"/>
</svg>
