<svg width="146" height="14" viewBox="0 0 146 14" fill="none" xmlns="http://www.w3.org/2000/svg">
<path d="M50.0601 6.84458L46.6352 0.19458H49.9186L52.0132 4.58902H52.0698L54.221 0.19458H57.1647L53.7398 6.84458L57.3346 13.8057H54.0511L51.7867 9.06125H51.7301L49.4091 13.8057H46.4653L50.0601 6.84458Z" fill="url(#paint0_linear_203_845)"/>
<path d="M39.4383 2.13903H36.1832V0.19458H45.807V2.13903H42.5519V13.8057H39.4383V2.13903Z" fill="url(#paint1_linear_203_845)"/>
<path d="M22.7539 0.19458H27.4526C29.0566 0.19458 30.2265 0.45384 30.9624 0.972358C31.6984 1.47791 32.0663 2.26217 32.0663 3.32514V3.86958C32.0663 4.56958 31.8965 5.13995 31.5569 5.58069C31.2361 6.02143 30.736 6.33903 30.0567 6.53347V6.57236C31.604 6.93532 32.3777 7.88162 32.3777 9.41125V10.5779C32.3777 11.6279 31.972 12.4316 31.1606 12.989C30.368 13.5335 29.1981 13.8057 27.6507 13.8057H22.7539V0.19458ZM27.0846 5.73625C27.7073 5.73625 28.1697 5.62606 28.4716 5.40569C28.7924 5.18532 28.9528 4.81588 28.9528 4.29736V3.53903C28.9528 3.04643 28.8207 2.68995 28.5565 2.46958C28.3112 2.24921 27.9149 2.13903 27.3677 2.13903H25.8675V5.73625H27.0846ZM27.6507 11.8612C28.198 11.8612 28.6037 11.764 28.8678 11.5696C29.132 11.3622 29.2641 11.0122 29.2641 10.5196V9.33347C29.2641 8.71125 29.1037 8.28347 28.7829 8.05014C28.481 7.80384 27.9715 7.68069 27.2544 7.68069H25.8675V11.8612H27.6507Z" fill="url(#paint2_linear_203_845)"/>
<path d="M11.0337 0.19458H14.1473V5.93069L18.11 0.19458H21.2236L17.5156 5.1918L21.2802 13.8057H18.0251L15.3927 7.73903L14.1473 9.46958V13.8057H11.0337V0.19458Z" fill="url(#paint3_linear_203_845)"/>
<path d="M4.58546 14C3.09471 14 1.95307 13.7083 1.16052 13.125C0.386839 12.5417 0 11.7185 0 10.6556V3.34444C0 2.28148 0.386839 1.45833 1.16052 0.875C1.95307 0.291667 3.09471 0 4.58546 0C6.0762 0 7.20842 0.291667 7.98209 0.875C8.77464 1.45833 9.17091 2.28148 9.17091 3.34444V4.78333H6.22716V3.20833C6.22716 2.36574 5.70823 1.94444 4.67037 1.94444C3.63251 1.94444 3.11358 2.36574 3.11358 3.20833V10.8111C3.11358 11.6407 3.63251 12.0556 4.67037 12.0556C5.70823 12.0556 6.22716 11.6407 6.22716 10.8111V8.73056H9.17091V10.6556C9.17091 11.7185 8.77464 12.5417 7.98209 13.125C7.20842 13.7083 6.0762 14 4.58546 14Z" fill="url(#paint4_linear_203_845)"/>
<path d="M135.911 0.193604H140.495C142.089 0.193604 143.251 0.451688 143.982 0.967857C144.713 1.47112 145.079 2.25183 145.079 3.30997V4.14229C145.079 5.54885 144.404 6.43924 143.054 6.81347V6.85218C143.804 7.00703 144.329 7.32318 144.629 7.80064C144.948 8.27809 145.107 8.91685 145.107 9.71691V12.0977C145.107 12.4849 145.126 12.801 145.163 13.0462C145.201 13.2785 145.295 13.5108 145.445 13.743H142.295C142.182 13.5237 142.107 13.3172 142.07 13.1236C142.032 12.9301 142.014 12.5817 142.014 12.0784V9.60078C142.014 8.98137 141.864 8.54908 141.564 8.3039C141.282 8.05872 140.786 7.93613 140.073 7.93613H139.004V13.743H135.911V0.193604ZM140.129 6.0005C140.748 6.0005 141.207 5.89081 141.507 5.67144C141.826 5.45207 141.985 5.0843 141.985 4.56813V3.52289C141.985 3.03253 141.854 2.67766 141.592 2.45829C141.348 2.23892 140.954 2.12924 140.411 2.12924H139.004V6.0005H140.129Z" fill="url(#paint5_linear_203_845)"/>
<path d="M129.122 13.9366C127.604 13.9366 126.441 13.6398 125.635 13.0462C124.829 12.4526 124.426 11.6138 124.426 10.5298V3.40671C124.426 2.32276 124.829 1.48398 125.635 0.890391C126.441 0.296797 127.604 0 129.122 0C130.641 0 131.803 0.296797 132.609 0.890391C133.416 1.48398 133.819 2.32276 133.819 3.40671V10.5298C133.819 11.6138 133.416 12.4526 132.609 13.0462C131.803 13.6398 130.641 13.9366 129.122 13.9366ZM129.122 12.0009C130.191 12.0009 130.725 11.5557 130.725 10.6653V3.27122C130.725 2.38083 130.191 1.93563 129.122 1.93563C128.054 1.93563 127.519 2.38083 127.519 3.27122V10.6653C127.519 11.5557 128.054 12.0009 129.122 12.0009Z" fill="url(#paint6_linear_203_845)"/>
<path d="M116.935 2.12924H113.701V0.193604H123.263V2.12924H120.029V13.743H116.935V2.12924Z" fill="url(#paint7_linear_203_845)"/>
<path d="M107.961 0.285889L112.459 13.7172H103.464L107.961 0.285889Z" fill="#AAFAC8"/>
<path d="M92.1 0.193604H95.2216L97.2465 10.7041H97.3027L99.3276 0.193604H102.168L99.1869 13.743H95.081L92.1 0.193604Z" fill="url(#paint8_linear_203_845)"/>
<path d="M82.699 0.193604H91.1358V2.12924H85.7925V5.71016H90.0391V7.64579H85.7925V11.8074H91.1358V13.743H82.699V0.193604Z" fill="url(#paint9_linear_203_845)"/>
<path d="M73.0317 0.193604H76.1253V11.8074H81.2155V13.743H73.0317V0.193604Z" fill="url(#paint10_linear_203_845)"/>
<path d="M62.8152 0.193604H71.2521V2.12924H65.9087V5.71016H70.1553V7.64579H65.9087V11.8074H71.2521V13.743H62.8152V0.193604Z" fill="url(#paint11_linear_203_845)"/>
<defs>
<linearGradient id="paint0_linear_203_845" x1="51.8999" y1="0.19458" x2="51.8999" y2="13.8057" gradientUnits="userSpaceOnUse">
<stop stop-color="white"/>
<stop offset="0.5" stop-color="#E9E9E9"/>
<stop offset="1" stop-color="white"/>
</linearGradient>
<linearGradient id="paint1_linear_203_845" x1="40.9951" y1="0.19458" x2="40.9951" y2="13.8057" gradientUnits="userSpaceOnUse">
<stop stop-color="white"/>
<stop offset="0.5" stop-color="#E9E9E9"/>
<stop offset="1" stop-color="white"/>
</linearGradient>
<linearGradient id="paint2_linear_203_845" x1="27.5658" y1="0.19458" x2="27.5658" y2="13.8057" gradientUnits="userSpaceOnUse">
<stop stop-color="white"/>
<stop offset="0.5" stop-color="#E9E9E9"/>
<stop offset="1" stop-color="white"/>
</linearGradient>
<linearGradient id="paint3_linear_203_845" x1="16.1569" y1="0.19458" x2="16.1569" y2="13.8057" gradientUnits="userSpaceOnUse">
<stop stop-color="white"/>
<stop offset="0.5" stop-color="#E9E9E9"/>
<stop offset="1" stop-color="white"/>
</linearGradient>
<linearGradient id="paint4_linear_203_845" x1="4.58546" y1="0" x2="4.58546" y2="14" gradientUnits="userSpaceOnUse">
<stop stop-color="white"/>
<stop offset="0.5" stop-color="#E9E9E9"/>
<stop offset="1" stop-color="white"/>
</linearGradient>
<linearGradient id="paint5_linear_203_845" x1="140.678" y1="0.193604" x2="140.678" y2="13.743" gradientUnits="userSpaceOnUse">
<stop stop-color="white"/>
<stop offset="0.5" stop-color="#E9E9E9"/>
<stop offset="1" stop-color="white"/>
</linearGradient>
<linearGradient id="paint6_linear_203_845" x1="129.122" y1="0" x2="129.122" y2="13.9366" gradientUnits="userSpaceOnUse">
<stop stop-color="white"/>
<stop offset="0.5" stop-color="#E9E9E9"/>
<stop offset="1" stop-color="white"/>
</linearGradient>
<linearGradient id="paint7_linear_203_845" x1="118.482" y1="0.193604" x2="118.482" y2="13.743" gradientUnits="userSpaceOnUse">
<stop stop-color="white"/>
<stop offset="0.5" stop-color="#E9E9E9"/>
<stop offset="1" stop-color="white"/>
</linearGradient>
<linearGradient id="paint8_linear_203_845" x1="97.134" y1="0.193604" x2="97.134" y2="13.743" gradientUnits="userSpaceOnUse">
<stop stop-color="white"/>
<stop offset="0.5" stop-color="#E9E9E9"/>
<stop offset="1" stop-color="white"/>
</linearGradient>
<linearGradient id="paint9_linear_203_845" x1="86.9174" y1="0.193604" x2="86.9174" y2="13.743" gradientUnits="userSpaceOnUse">
<stop stop-color="white"/>
<stop offset="0.5" stop-color="#E9E9E9"/>
<stop offset="1" stop-color="white"/>
</linearGradient>
<linearGradient id="paint10_linear_203_845" x1="77.1236" y1="0.193604" x2="77.1236" y2="13.743" gradientUnits="userSpaceOnUse">
<stop stop-color="white"/>
<stop offset="0.5" stop-color="#E9E9E9"/>
<stop offset="1" stop-color="white"/>
</linearGradient>
<linearGradient id="paint11_linear_203_845" x1="67.0336" y1="0.193604" x2="67.0336" y2="13.743" gradientUnits="userSpaceOnUse">
<stop stop-color="white"/>
<stop offset="0.5" stop-color="#E9E9E9"/>
<stop offset="1" stop-color="white"/>
</linearGradient>
</defs>
</svg>
