<svg width="313" height="439" viewBox="0 0 313 439" fill="none" xmlns="http://www.w3.org/2000/svg">
<path d="M39.53 429.454L81.887 327.673L93.4418 332.654L50.9743 430.356L39.53 429.454Z" fill="#267D7A" stroke="black"/>
<path d="M274.626 429.455L232.278 329.861L220.721 334.842L263.181 430.356L274.626 429.455Z" fill="#267D7A" stroke="black"/>
<rect x="27" y="351" width="258" height="64" rx="8" fill="black"/>
<path d="M96.4318 362.364C96.7557 362.364 96.9659 362.506 97.0909 362.807L100.614 371.409H100.75L104.273 362.807C104.398 362.506 104.608 362.364 104.932 362.364H106.017C106.386 362.364 106.585 362.562 106.585 362.932V373.432C106.585 373.801 106.386 374 106.017 374H105.483C105.114 374 104.915 373.801 104.915 373.432V365.58H104.807L101.557 373.54C101.432 373.841 101.222 373.983 100.898 373.983H100.466C100.142 373.983 99.9318 373.841 99.8068 373.54L96.5568 365.574H96.4489V373.432C96.4489 373.801 96.25 374 95.8807 374H95.3466C94.9773 374 94.7784 373.801 94.7784 373.432V362.932C94.7784 362.562 94.9773 362.364 95.3466 362.364H96.4318ZM109.859 363.926C109.268 363.926 108.786 363.472 108.786 362.915C108.786 362.358 109.268 361.898 109.859 361.898C110.445 361.898 110.933 362.358 110.933 362.915C110.933 363.472 110.445 363.926 109.859 363.926ZM109.001 373.432V365.841C109.001 365.472 109.2 365.273 109.57 365.273H110.132C110.501 365.273 110.7 365.472 110.7 365.841V373.432C110.7 373.801 110.501 374 110.132 374H109.57C109.2 374 109.001 373.801 109.001 373.432ZM114.685 373.432C114.685 373.801 114.486 374 114.116 374H113.554C113.185 374 112.986 373.801 112.986 373.432V365.841C112.986 365.472 113.185 365.273 113.554 365.273H114.048C114.418 365.273 114.616 365.472 114.616 365.841V366.693H114.724C115.128 365.767 115.986 365.159 117.298 365.159C119.082 365.159 120.27 366.29 120.27 368.449V373.432C120.27 373.801 120.071 374 119.702 374H119.139C118.77 374 118.571 373.801 118.571 373.432V368.653C118.571 367.386 117.872 366.631 116.719 366.631C115.537 366.631 114.685 367.426 114.685 368.818V373.432ZM123.406 363.926C122.815 363.926 122.332 363.472 122.332 362.915C122.332 362.358 122.815 361.898 123.406 361.898C123.991 361.898 124.48 362.358 124.48 362.915C124.48 363.472 123.991 363.926 123.406 363.926ZM122.548 373.432V365.841C122.548 365.472 122.747 365.273 123.116 365.273H123.679C124.048 365.273 124.247 365.472 124.247 365.841V373.432C124.247 373.801 124.048 374 123.679 374H123.116C122.747 374 122.548 373.801 122.548 373.432ZM128.232 373.432C128.232 373.801 128.033 374 127.663 374H127.101C126.732 374 126.533 373.801 126.533 373.432V365.841C126.533 365.472 126.732 365.273 127.101 365.273H127.595C127.964 365.273 128.163 365.472 128.163 365.841V366.693H128.271C128.675 365.767 129.533 365.159 130.845 365.159C132.629 365.159 133.817 366.29 133.817 368.449V373.432C133.817 373.801 133.618 374 133.249 374H132.686C132.317 374 132.118 373.801 132.118 373.432V368.653C132.118 367.386 131.419 366.631 130.266 366.631C129.084 366.631 128.232 367.426 128.232 368.818V373.432ZM139.754 377.455C138.016 377.455 136.919 376.824 136.334 375.994C136.118 375.682 136.249 375.392 136.601 375.244L137.033 375.068C137.345 374.938 137.572 375.023 137.794 375.284C138.146 375.693 138.72 376.085 139.771 376.085C141.061 376.085 141.999 375.494 141.999 374.125V372.409H141.891C141.584 372.966 140.964 373.869 139.362 373.869C137.3 373.869 135.714 372.386 135.714 369.602C135.714 366.824 137.266 365.159 139.374 365.159C140.999 365.159 141.601 366.148 141.902 366.688H142.027V365.841C142.027 365.472 142.226 365.273 142.595 365.273H143.124C143.493 365.273 143.692 365.472 143.692 365.841V374.193C143.692 376.438 141.976 377.455 139.754 377.455ZM137.43 369.58C137.43 371.295 138.22 372.46 139.737 372.46C141.203 372.46 142.016 371.381 142.016 369.58C142.016 367.812 141.22 366.602 139.737 366.602C138.203 366.602 137.43 367.903 137.43 369.58ZM150.909 374C150.54 374 150.341 373.801 150.341 373.432V362.932C150.341 362.562 150.54 362.364 150.909 362.364H154.227C157.653 362.364 159.705 364.545 159.705 368.165C159.705 371.801 157.653 374 154.108 374H150.909ZM152.097 372.466H154.011C156.665 372.466 157.977 370.92 157.977 368.165C157.977 365.42 156.665 363.898 154.119 363.898H152.097V372.466ZM162.609 363.926C162.018 363.926 161.536 363.472 161.536 362.915C161.536 362.358 162.018 361.898 162.609 361.898C163.195 361.898 163.683 362.358 163.683 362.915C163.683 363.472 163.195 363.926 162.609 363.926ZM161.751 373.432V365.841C161.751 365.472 161.95 365.273 162.32 365.273H162.882C163.251 365.273 163.45 365.472 163.45 365.841V373.432C163.45 373.801 163.251 374 162.882 374H162.32C161.95 374 161.751 373.801 161.751 373.432ZM169.889 366.068C169.889 366.438 169.69 366.636 169.321 366.636H168.009V373.432C168.009 373.801 167.81 374 167.44 374H166.872C166.503 374 166.304 373.801 166.304 373.432V366.636H165.526C165.156 366.636 164.957 366.438 164.957 366.068V365.841C164.957 365.472 165.156 365.273 165.526 365.273H166.304V364.261C166.304 362.625 167.514 361.818 168.895 361.818C169.236 361.818 169.531 361.852 169.77 361.898C170.134 361.972 170.259 362.244 170.156 362.597L170.071 362.898C169.974 363.244 169.793 363.375 169.543 363.33C169.429 363.307 169.304 363.295 169.156 363.295C168.327 363.295 168.009 363.716 168.009 364.489V365.273H169.321C169.69 365.273 169.889 365.472 169.889 365.841V366.068ZM175.795 366.068C175.795 366.438 175.597 366.636 175.227 366.636H173.915V373.432C173.915 373.801 173.716 374 173.347 374H172.778C172.409 374 172.21 373.801 172.21 373.432V366.636H171.432C171.062 366.636 170.864 366.438 170.864 366.068V365.841C170.864 365.472 171.062 365.273 171.432 365.273H172.21V364.261C172.21 362.625 173.42 361.818 174.801 361.818C175.142 361.818 175.438 361.852 175.676 361.898C176.04 361.972 176.165 362.244 176.062 362.597L175.977 362.898C175.881 363.244 175.699 363.375 175.449 363.33C175.335 363.307 175.21 363.295 175.062 363.295C174.233 363.295 173.915 363.716 173.915 364.489V365.273H175.227C175.597 365.273 175.795 365.472 175.795 365.841V366.068ZM178.406 363.926C177.815 363.926 177.332 363.472 177.332 362.915C177.332 362.358 177.815 361.898 178.406 361.898C178.991 361.898 179.48 362.358 179.48 362.915C179.48 363.472 178.991 363.926 178.406 363.926ZM177.548 373.432V365.841C177.548 365.472 177.747 365.273 178.116 365.273H178.679C179.048 365.273 179.247 365.472 179.247 365.841V373.432C179.247 373.801 179.048 374 178.679 374H178.116C177.747 374 177.548 373.801 177.548 373.432ZM185.209 374.176C182.675 374.176 181.141 372.307 181.141 369.676C181.141 367.011 182.732 365.159 185.192 365.159C186.93 365.159 188.254 366.062 188.675 367.472C188.783 367.852 188.555 368.091 188.163 368.091H187.629C187.3 368.091 187.124 367.938 186.982 367.631C186.686 367.034 186.089 366.591 185.22 366.591C183.8 366.591 182.857 367.767 182.857 369.636C182.857 371.54 183.783 372.739 185.22 372.739C186.021 372.739 186.658 372.364 186.982 371.699C187.124 371.398 187.3 371.239 187.629 371.239H188.163C188.555 371.239 188.783 371.438 188.692 371.767C188.311 373.188 187.05 374.176 185.209 374.176ZM196.139 365.841C196.139 365.472 196.338 365.273 196.707 365.273H197.276C197.645 365.273 197.844 365.472 197.844 365.841V373.432C197.844 373.801 197.645 374 197.276 374H196.741C196.372 374 196.173 373.801 196.173 373.432V372.489H196.082C195.679 373.42 194.787 374.114 193.474 374.114C191.798 374.114 190.611 372.989 190.611 370.824V365.841C190.611 365.472 190.81 365.273 191.179 365.273H191.741C192.111 365.273 192.31 365.472 192.31 365.841V370.619C192.31 371.807 193.037 372.568 194.088 372.568C195.043 372.568 196.145 371.864 196.139 370.381V365.841ZM201.825 373.432C201.825 373.801 201.626 374 201.257 374H200.695C200.325 374 200.126 373.801 200.126 373.432V362.932C200.126 362.562 200.325 362.364 200.695 362.364H201.257C201.626 362.364 201.825 362.562 201.825 362.932V373.432ZM208.185 366.068C208.185 366.438 207.986 366.636 207.616 366.636H206.395V371.438C206.395 372.42 206.889 372.602 207.44 372.602H207.497C207.855 372.591 208.077 372.71 208.151 373.062L208.224 373.386C208.304 373.739 208.168 374.011 207.804 374.068C207.645 374.091 207.457 374.114 207.241 374.114C205.901 374.142 204.69 373.375 204.696 371.79V366.636H203.986C203.616 366.636 203.418 366.438 203.418 366.068V365.841C203.418 365.472 203.616 365.273 203.986 365.273H204.696V363.75C204.696 363.381 204.895 363.182 205.264 363.182H205.827C206.196 363.182 206.395 363.381 206.395 363.75V365.273H207.616C207.986 365.273 208.185 365.472 208.185 365.841V366.068ZM211.138 377.273C210.916 377.273 210.712 377.256 210.53 377.227C210.166 377.17 210.036 376.892 210.138 376.534L210.234 376.21C210.337 375.864 210.564 375.761 210.922 375.801C211.564 375.864 212.018 375.614 212.359 374.693L212.57 374.114L209.609 365.926C209.467 365.534 209.649 365.273 210.07 365.273H210.706C211.036 365.273 211.246 365.426 211.348 365.739L213.405 372.045H213.496L215.553 365.739C215.655 365.426 215.865 365.273 216.195 365.273H216.837C217.257 365.273 217.433 365.534 217.291 365.926L213.933 375.165C213.428 376.54 212.541 377.273 211.138 377.273Z" fill="#F0F0F0"/>
<path d="M130.67 404.159C128.574 404.159 127.011 403.131 126.642 401.568C126.557 401.188 126.784 400.966 127.17 400.966H127.835C128.176 400.966 128.33 401.136 128.46 401.46C128.756 402.205 129.614 402.648 130.659 402.648C132.028 402.648 133.011 401.881 133.011 400.75C133.011 399.58 132.08 398.761 130.466 398.761H130.051C129.682 398.761 129.483 398.562 129.483 398.193V397.898C129.483 397.528 129.682 397.33 130.051 397.33H130.466C131.756 397.33 132.659 396.591 132.653 395.466C132.659 394.392 131.881 393.67 130.693 393.67C129.744 393.67 128.886 394.119 128.602 394.881C128.483 395.21 128.33 395.386 127.989 395.386H127.415C127.028 395.386 126.795 395.165 126.886 394.784C127.244 393.227 128.812 392.205 130.716 392.205C132.955 392.205 134.358 393.665 134.352 395.375C134.358 396.682 133.568 397.636 132.352 397.949V398.04C133.898 398.278 134.79 399.335 134.784 400.807C134.79 402.739 133.045 404.159 130.67 404.159ZM137.714 404.108C137.089 404.108 136.578 403.602 136.578 402.972C136.578 402.352 137.089 401.841 137.714 401.841C138.334 401.841 138.851 402.352 138.851 402.972C138.851 403.602 138.334 404.108 137.714 404.108ZM144.757 404.159C142.859 404.159 141.382 403.102 141.024 401.568C140.939 401.188 141.166 400.966 141.553 400.966H142.143C142.484 400.966 142.638 401.136 142.768 401.46C143.058 402.193 143.825 402.682 144.757 402.682C146.092 402.682 147.064 401.67 147.064 400.273C147.064 398.852 146.064 397.818 144.683 397.807C144.132 397.807 143.536 397.972 143.092 398.227C142.837 398.375 142.638 398.449 142.348 398.403L141.7 398.307C141.342 398.256 141.172 398.028 141.212 397.67L141.746 392.898C141.786 392.54 141.99 392.364 142.342 392.364H147.632C148.001 392.364 148.2 392.562 148.2 392.932V393.301C148.2 393.67 148.001 393.869 147.632 393.869H143.263L142.893 397.125H142.962C143.416 396.682 144.217 396.352 145.081 396.352C147.2 396.352 148.768 397.989 148.763 400.239C148.768 402.506 147.098 404.159 144.757 404.159ZM154.707 392.205C156.781 392.222 158.952 393.511 158.957 397.761C158.957 401.835 157.264 404.159 154.56 404.159C152.719 404.159 151.366 403.119 150.906 401.574C150.787 401.188 151.009 400.949 151.406 400.949H152.009C152.338 400.949 152.52 401.108 152.656 401.415C152.98 402.153 153.634 402.625 154.56 402.625C156.264 402.625 157.27 401.062 157.276 398.386H157.185C156.588 399.364 155.531 399.966 154.298 399.966C152.281 399.966 150.673 398.364 150.668 396.142C150.668 393.938 152.264 392.182 154.707 392.205ZM152.372 396.119C152.378 397.466 153.344 398.534 154.679 398.534C156.009 398.534 157.06 397.398 157.054 396.102C157.054 394.824 156.06 393.682 154.713 393.682C153.378 393.682 152.372 394.767 152.372 396.119ZM165.403 392.932C165.403 392.562 165.602 392.364 165.972 392.364H172.131C172.5 392.364 172.699 392.562 172.699 392.932V393.307C172.699 393.676 172.5 393.875 172.131 393.875H167.159V397.42H171.75C172.119 397.42 172.318 397.619 172.318 397.989V398.358C172.318 398.727 172.119 398.926 171.75 398.926H167.159V402.489H172.199C172.568 402.489 172.767 402.688 172.767 403.057V403.432C172.767 403.801 172.568 404 172.199 404H165.972C165.602 404 165.403 403.801 165.403 403.432V392.932ZM175.044 392.932C175.044 392.562 175.243 392.364 175.612 392.364H176.232C176.601 392.364 176.8 392.562 176.8 392.932V397.42H182.601V392.932C182.601 392.562 182.8 392.364 183.169 392.364H183.794C184.163 392.364 184.362 392.562 184.362 392.932V403.432C184.362 403.801 184.163 404 183.794 404H183.169C182.8 404 182.601 403.801 182.601 403.432V398.926H176.8V403.432C176.8 403.801 176.601 404 176.232 404H175.612C175.243 404 175.044 403.801 175.044 403.432V392.932Z" fill="#A0CDB9"/>
<rect x="1" y="430" width="311" height="8" fill="#267D7A" stroke="black" stroke-width="2"/>
<mask id="path-7-inside-1_444_5675" fill="white">
<path fill-rule="evenodd" clip-rule="evenodd" d="M76.8235 312.25C71.2465 307.182 66.0879 301.663 61.4054 295.75H41.7859C46.741 301.71 52.2052 307.232 58.112 312.25H76.8235ZM83.2612 317.75H65.036C71.1082 322.255 77.5763 326.258 84.3787 329.697H100.737C94.5969 326.159 88.756 322.161 83.2612 317.75ZM134.929 343.655C120.684 342.635 107.057 339.384 94.3957 334.25H109.329C117.448 338.191 126.014 341.358 134.929 343.655ZM33.1086 229.75C33.896 235.366 35.0229 240.873 36.4679 246.25H15.8449C14.3543 240.878 13.1913 235.371 12.3788 229.75H33.1086ZM17.5005 251.75H38.0706C39.8519 257.417 41.9906 262.926 44.4602 268.25H24.1145C21.5585 262.936 19.3443 257.426 17.5005 251.75ZM26.9187 273.75C30.0303 279.518 33.5542 285.031 37.451 290.25H57.2688C53.5295 285.011 50.1488 279.499 47.1625 273.75H26.9187ZM32.4501 224.25C32.0007 219.728 31.7706 215.141 31.7706 210.5C31.7706 209.581 31.7796 208.665 31.7976 207.75H11.0278C11.0093 208.665 11 209.581 11 210.5C11 215.143 11.2372 219.73 11.7001 224.25H32.4501ZM32.0142 202.25H11.251C11.5927 196.65 12.28 191.143 13.2918 185.75H33.994C33.0122 191.147 32.3457 196.653 32.0142 202.25ZM35.1116 180.25C36.3786 174.611 37.9923 169.103 39.9291 163.75H19.422C17.4213 169.096 15.7539 174.604 14.4449 180.25H35.1116ZM42.0545 158.25H21.6216C24.0569 152.535 26.8796 147.024 30.0567 141.75H50.181C47.1198 147.037 44.4009 152.548 42.0545 158.25ZM53.5398 136.25C57.2807 130.435 61.448 124.921 65.9977 119.75H46.6181C41.8474 124.89 37.4768 130.407 33.5559 136.25H53.5398ZM71.1087 114.25C77.0728 108.171 83.5973 102.643 90.5988 97.7501H73.0392C65.4857 102.547 58.447 108.081 52.0245 114.25H71.1087ZM134.929 77.3454C122.184 80.6285 110.153 85.6903 99.1194 92.2501H82.5415C98.3924 83.9266 116.122 78.6914 134.929 77.3454ZM278.229 210.5C278.229 280.055 224.99 337.19 157 343.434C89.0104 337.19 35.7706 280.055 35.7706 210.5C35.7706 140.945 89.0104 83.8095 157 77.5659C224.99 83.8095 278.229 140.945 278.229 210.5ZM263.819 141.75C266.88 147.037 269.599 152.548 271.945 158.25H292.378C289.943 152.535 287.12 147.024 283.943 141.75H263.819ZM278.888 180.25C277.621 174.611 276.008 169.103 274.071 163.75H294.578C296.579 169.096 298.246 174.604 299.555 180.25H278.888ZM280.006 185.75C280.988 191.147 281.654 196.653 281.986 202.25H302.749C302.407 196.65 301.72 191.143 300.708 185.75H280.006ZM282.229 210.5C282.229 209.581 282.22 208.665 282.202 207.75H302.972C302.991 208.665 303 209.581 303 210.5C303 215.143 302.763 219.73 302.3 224.25H281.55C281.999 219.728 282.229 215.141 282.229 210.5ZM280.891 229.75C280.104 235.366 278.977 240.873 277.532 246.25H298.155C299.646 240.878 300.809 235.371 301.621 229.75H280.891ZM269.54 268.25C272.009 262.926 274.148 257.417 275.929 251.75H296.499C294.656 257.426 292.441 262.936 289.885 268.25H269.54ZM266.837 273.75C263.851 279.499 260.47 285.011 256.731 290.25H276.549C280.446 285.031 283.97 279.518 287.081 273.75H266.837ZM260.46 136.25H280.444C276.523 130.407 272.153 124.89 267.382 119.75H248.002C252.552 124.921 256.719 130.435 260.46 136.25ZM242.891 114.25H261.975C255.553 108.081 248.514 102.547 240.961 97.7501H223.401C230.403 102.643 236.927 108.171 242.891 114.25ZM179.071 77.3454C197.878 78.6914 215.608 83.9266 231.458 92.2501H214.881C203.846 85.6903 191.816 80.6285 179.071 77.3454ZM237.176 312.25C242.753 307.182 247.912 301.663 252.595 295.75H272.214C267.259 301.71 261.795 307.232 255.888 312.25H237.176ZM230.739 317.75C225.729 321.772 220.431 325.45 214.881 328.75H231.459C237.59 325.53 243.441 321.848 248.964 317.75H230.739ZM179.071 343.655C187.987 341.358 196.552 338.191 204.672 334.25H219.605C206.944 339.384 193.317 342.635 179.071 343.655ZM157 347.451C152.92 347.814 148.789 348 144.615 348C68.6122 348 7 286.439 7 210.5C7 134.561 68.6122 73 144.615 73C148.789 73 152.92 73.1857 157 73.5493C161.08 73.1857 165.211 73 169.385 73C245.388 73 307 134.561 307 210.5C307 286.439 245.388 348 169.385 348C165.211 348 161.08 347.814 157 347.451Z"/>
</mask>
<path fill-rule="evenodd" clip-rule="evenodd" d="M76.8235 312.25C71.2465 307.182 66.0879 301.663 61.4054 295.75H41.7859C46.741 301.71 52.2052 307.232 58.112 312.25H76.8235ZM83.2612 317.75H65.036C71.1082 322.255 77.5763 326.258 84.3787 329.697H100.737C94.5969 326.159 88.756 322.161 83.2612 317.75ZM134.929 343.655C120.684 342.635 107.057 339.384 94.3957 334.25H109.329C117.448 338.191 126.014 341.358 134.929 343.655ZM33.1086 229.75C33.896 235.366 35.0229 240.873 36.4679 246.25H15.8449C14.3543 240.878 13.1913 235.371 12.3788 229.75H33.1086ZM17.5005 251.75H38.0706C39.8519 257.417 41.9906 262.926 44.4602 268.25H24.1145C21.5585 262.936 19.3443 257.426 17.5005 251.75ZM26.9187 273.75C30.0303 279.518 33.5542 285.031 37.451 290.25H57.2688C53.5295 285.011 50.1488 279.499 47.1625 273.75H26.9187ZM32.4501 224.25C32.0007 219.728 31.7706 215.141 31.7706 210.5C31.7706 209.581 31.7796 208.665 31.7976 207.75H11.0278C11.0093 208.665 11 209.581 11 210.5C11 215.143 11.2372 219.73 11.7001 224.25H32.4501ZM32.0142 202.25H11.251C11.5927 196.65 12.28 191.143 13.2918 185.75H33.994C33.0122 191.147 32.3457 196.653 32.0142 202.25ZM35.1116 180.25C36.3786 174.611 37.9923 169.103 39.9291 163.75H19.422C17.4213 169.096 15.7539 174.604 14.4449 180.25H35.1116ZM42.0545 158.25H21.6216C24.0569 152.535 26.8796 147.024 30.0567 141.75H50.181C47.1198 147.037 44.4009 152.548 42.0545 158.25ZM53.5398 136.25C57.2807 130.435 61.448 124.921 65.9977 119.75H46.6181C41.8474 124.89 37.4768 130.407 33.5559 136.25H53.5398ZM71.1087 114.25C77.0728 108.171 83.5973 102.643 90.5988 97.7501H73.0392C65.4857 102.547 58.447 108.081 52.0245 114.25H71.1087ZM134.929 77.3454C122.184 80.6285 110.153 85.6903 99.1194 92.2501H82.5415C98.3924 83.9266 116.122 78.6914 134.929 77.3454ZM278.229 210.5C278.229 280.055 224.99 337.19 157 343.434C89.0104 337.19 35.7706 280.055 35.7706 210.5C35.7706 140.945 89.0104 83.8095 157 77.5659C224.99 83.8095 278.229 140.945 278.229 210.5ZM263.819 141.75C266.88 147.037 269.599 152.548 271.945 158.25H292.378C289.943 152.535 287.12 147.024 283.943 141.75H263.819ZM278.888 180.25C277.621 174.611 276.008 169.103 274.071 163.75H294.578C296.579 169.096 298.246 174.604 299.555 180.25H278.888ZM280.006 185.75C280.988 191.147 281.654 196.653 281.986 202.25H302.749C302.407 196.65 301.72 191.143 300.708 185.75H280.006ZM282.229 210.5C282.229 209.581 282.22 208.665 282.202 207.75H302.972C302.991 208.665 303 209.581 303 210.5C303 215.143 302.763 219.73 302.3 224.25H281.55C281.999 219.728 282.229 215.141 282.229 210.5ZM280.891 229.75C280.104 235.366 278.977 240.873 277.532 246.25H298.155C299.646 240.878 300.809 235.371 301.621 229.75H280.891ZM269.54 268.25C272.009 262.926 274.148 257.417 275.929 251.75H296.499C294.656 257.426 292.441 262.936 289.885 268.25H269.54ZM266.837 273.75C263.851 279.499 260.47 285.011 256.731 290.25H276.549C280.446 285.031 283.97 279.518 287.081 273.75H266.837ZM260.46 136.25H280.444C276.523 130.407 272.153 124.89 267.382 119.75H248.002C252.552 124.921 256.719 130.435 260.46 136.25ZM242.891 114.25H261.975C255.553 108.081 248.514 102.547 240.961 97.7501H223.401C230.403 102.643 236.927 108.171 242.891 114.25ZM179.071 77.3454C197.878 78.6914 215.608 83.9266 231.458 92.2501H214.881C203.846 85.6903 191.816 80.6285 179.071 77.3454ZM237.176 312.25C242.753 307.182 247.912 301.663 252.595 295.75H272.214C267.259 301.71 261.795 307.232 255.888 312.25H237.176ZM230.739 317.75C225.729 321.772 220.431 325.45 214.881 328.75H231.459C237.59 325.53 243.441 321.848 248.964 317.75H230.739ZM179.071 343.655C187.987 341.358 196.552 338.191 204.672 334.25H219.605C206.944 339.384 193.317 342.635 179.071 343.655ZM157 347.451C152.92 347.814 148.789 348 144.615 348C68.6122 348 7 286.439 7 210.5C7 134.561 68.6122 73 144.615 73C148.789 73 152.92 73.1857 157 73.5493C161.08 73.1857 165.211 73 169.385 73C245.388 73 307 134.561 307 210.5C307 286.439 245.388 348 169.385 348C165.211 348 161.08 347.814 157 347.451Z" fill="#267D7A"/>
<path d="M61.4054 295.75L62.1894 295.129L61.8891 294.75H61.4054V295.75ZM76.8235 312.25V313.25H79.4109L77.496 311.51L76.8235 312.25ZM41.7859 295.75V294.75H39.6541L41.017 296.389L41.7859 295.75ZM58.112 312.25L57.4645 313.012L57.7446 313.25H58.112V312.25ZM65.036 317.75V316.75H62.0099L64.4401 318.553L65.036 317.75ZM83.2612 317.75L83.8872 316.97L83.6129 316.75H83.2612V317.75ZM84.3787 329.697L83.9276 330.589L84.1403 330.697H84.3787V329.697ZM100.737 329.697V330.697H104.475L101.236 328.83L100.737 329.697ZM94.3957 334.25V333.25L94.0199 335.177L94.3957 334.25ZM134.929 343.655L134.858 344.652L135.179 342.686L134.929 343.655ZM109.329 334.25L109.765 333.35L109.559 333.25H109.329V334.25ZM36.4679 246.25V247.25H37.7721L37.4336 245.99L36.4679 246.25ZM33.1086 229.75L34.0989 229.611L33.9781 228.75H33.1086V229.75ZM15.8449 246.25L14.8813 246.517L15.0846 247.25H15.8449V246.25ZM12.3788 229.75V228.75H11.2239L11.3891 229.893L12.3788 229.75ZM38.0706 251.75L39.0245 251.45L38.8045 250.75H38.0706V251.75ZM17.5005 251.75V250.75H16.1242L16.5494 252.059L17.5005 251.75ZM44.4602 268.25V269.25H46.0264L45.3674 267.829L44.4602 268.25ZM24.1145 268.25L23.2133 268.683L23.4858 269.25H24.1145V268.25ZM37.451 290.25L36.6497 290.848L36.9497 291.25H37.451V290.25ZM26.9187 273.75V272.75H25.243L26.0386 274.225L26.9187 273.75ZM57.2688 290.25V291.25H59.2112L58.0827 289.669L57.2688 290.25ZM47.1625 273.75L48.0499 273.289L47.7699 272.75H47.1625V273.75ZM32.4501 224.25V225.25H33.5544L33.4452 224.151L32.4501 224.25ZM31.7976 207.75L32.7974 207.77L32.8174 206.75H31.7976V207.75ZM11.0278 207.75V206.75H10.0478L10.028 207.73L11.0278 207.75ZM11.7001 224.25L10.7053 224.352L10.7973 225.25H11.7001V224.25ZM11.251 202.25L10.2528 202.189L10.1881 203.25H11.251V202.25ZM32.0142 202.25V203.25H32.9567L33.0125 202.309L32.0142 202.25ZM13.2918 185.75V184.75H12.462L12.309 185.566L13.2918 185.75ZM33.994 185.75L34.9778 185.929L35.1923 184.75H33.994V185.75ZM39.9291 163.75L40.8695 164.09L41.3543 162.75H39.9291V163.75ZM35.1116 180.25V181.25H35.9119L36.0873 180.469L35.1116 180.25ZM19.422 163.75V162.75H18.7285L18.4854 163.399L19.422 163.75ZM14.4449 180.25L13.4707 180.024L13.1865 181.25H14.4449V180.25ZM21.6216 158.25L20.7016 157.858L20.1085 159.25H21.6216V158.25ZM42.0545 158.25V159.25H42.7244L42.9793 158.63L42.0545 158.25ZM30.0567 141.75V140.75H29.4917L29.2001 141.234L30.0567 141.75ZM50.181 141.75L51.0464 142.251L51.9155 140.75H50.181V141.75ZM65.9977 119.75L66.7485 120.411L68.2097 118.75H65.9977V119.75ZM53.5398 136.25V137.25H54.0856L54.3808 136.791L53.5398 136.25ZM46.6181 119.75V118.75H46.1819L45.8852 119.07L46.6181 119.75ZM33.5559 136.25L32.7256 135.693L31.6806 137.25H33.5559V136.25ZM90.5988 97.7501L91.1716 98.5697L93.7752 96.7501H90.5988V97.7501ZM71.1087 114.25V115.25H71.5285L71.8225 114.95L71.1087 114.25ZM73.0392 97.7501V96.7501H72.7485L72.5031 96.9059L73.0392 97.7501ZM52.0245 114.25L51.3317 113.529L49.5399 115.25H52.0245V114.25ZM99.1194 92.2501V93.2501H99.3942L99.6304 93.1096L99.1194 92.2501ZM134.929 77.3454L135.179 78.3138L134.858 76.3479L134.929 77.3454ZM82.5415 92.2501L82.0766 91.3647L82.5415 93.2501V92.2501ZM157 343.434L156.909 344.43L157 344.438L157.091 344.43L157 343.434ZM157 77.5659L157.091 76.5701L157 76.5617L156.909 76.5701L157 77.5659ZM271.945 158.25L271.021 158.63L271.276 159.25H271.945V158.25ZM263.819 141.75V140.75H262.084L262.954 142.251L263.819 141.75ZM292.378 158.25V159.25H293.891L293.298 157.858L292.378 158.25ZM283.943 141.75L284.8 141.234L284.508 140.75H283.943V141.75ZM274.071 163.75V162.75H272.646L273.13 164.09L274.071 163.75ZM278.888 180.25L277.913 180.469L278.088 181.25H278.888V180.25ZM294.578 163.75L295.515 163.399L295.271 162.75H294.578V163.75ZM299.555 180.25V181.25H300.813L300.529 180.024L299.555 180.25ZM281.986 202.25L280.987 202.309L281.043 203.25H281.986V202.25ZM280.006 185.75V184.75H278.808L279.022 185.929L280.006 185.75ZM302.749 202.25V203.25H303.812L303.747 202.189L302.749 202.25ZM300.708 185.75L301.691 185.566L301.538 184.75H300.708V185.75ZM282.202 207.75V206.75H281.183L281.203 207.77L282.202 207.75ZM302.972 207.75L303.972 207.73L303.952 206.75H302.972V207.75ZM302.3 224.25V225.25H303.203L303.295 224.352L302.3 224.25ZM281.55 224.25L280.555 224.151L280.446 225.25H281.55V224.25ZM277.532 246.25L276.566 245.99L276.228 247.25H277.532V246.25ZM280.891 229.75V228.75H280.022L279.901 229.611L280.891 229.75ZM298.155 246.25V247.25H298.915L299.119 246.517L298.155 246.25ZM301.621 229.75L302.611 229.893L302.776 228.75H301.621V229.75ZM275.929 251.75V250.75H275.195L274.975 251.45L275.929 251.75ZM269.54 268.25L268.633 267.829L267.974 269.25H269.54V268.25ZM296.499 251.75L297.451 252.059L297.876 250.75H296.499V251.75ZM289.885 268.25V269.25H290.514L290.787 268.683L289.885 268.25ZM266.837 273.75V272.75H266.23L265.95 273.289L266.837 273.75ZM256.731 290.25L255.917 289.669L254.789 291.25H256.731V290.25ZM276.549 290.25V291.25H277.05L277.35 290.848L276.549 290.25ZM287.081 273.75L287.961 274.225L288.757 272.75H287.081V273.75ZM280.444 136.25V137.25H282.319L281.274 135.693L280.444 136.25ZM260.46 136.25L259.619 136.791L259.914 137.25H260.46V136.25ZM267.382 119.75L268.115 119.07L267.818 118.75H267.382V119.75ZM248.002 119.75V118.75H245.79L247.251 120.411L248.002 119.75ZM261.975 114.25V115.25H264.46L262.668 113.529L261.975 114.25ZM242.891 114.25L242.177 114.95L242.471 115.25H242.891V114.25ZM240.961 97.7501L241.497 96.9059L241.251 96.7501H240.961V97.7501ZM223.401 97.7501V96.7501H220.225L222.828 98.5697L223.401 97.7501ZM231.458 92.2501V93.2501L231.923 91.3647L231.458 92.2501ZM179.071 77.3454L179.142 76.3479L178.821 78.3138L179.071 77.3454ZM214.881 92.2501L214.37 93.1096L214.606 93.2501H214.881V92.2501ZM252.595 295.75V294.75H252.111L251.811 295.129L252.595 295.75ZM237.176 312.25L236.504 311.51L234.589 313.25H237.176V312.25ZM272.214 295.75L272.983 296.389L274.346 294.75H272.214V295.75ZM255.888 312.25V313.25H256.255L256.535 313.012L255.888 312.25ZM214.881 328.75L214.37 327.89L211.242 329.75H214.881V328.75ZM230.739 317.75V316.75H230.387L230.113 316.97L230.739 317.75ZM231.459 328.75V329.75H231.705L231.924 329.635L231.459 328.75ZM248.964 317.75L249.56 318.553L251.99 316.75H248.964V317.75ZM204.672 334.25V333.25H204.442L204.235 333.35L204.672 334.25ZM179.071 343.655L178.821 342.686L179.142 344.652L179.071 343.655ZM219.605 334.25L219.981 335.177L219.605 333.25V334.25ZM157 347.451L157.089 346.455L157 346.447L156.911 346.455L157 347.451ZM157 73.5493L156.911 74.5454L157 74.5533L157.089 74.5454L157 73.5493ZM60.6215 296.371C65.3378 302.327 70.5337 307.886 76.1509 312.99L77.496 311.51C71.9593 306.479 66.838 300.999 62.1894 295.129L60.6215 296.371ZM41.7859 296.75H61.4054V294.75H41.7859V296.75ZM58.7594 311.488C52.8966 306.507 47.473 301.026 42.5549 295.111L41.017 296.389C46.0089 302.394 51.5138 307.957 57.4645 313.012L58.7594 311.488ZM76.8235 311.25H58.112V313.25H76.8235V311.25ZM65.036 318.75H83.2612V316.75H65.036V318.75ZM84.8298 328.804C78.0785 325.391 71.6588 321.419 65.6318 316.947L64.4401 318.553C70.5576 323.092 77.0741 327.125 83.9276 330.589L84.8298 328.804ZM100.737 328.697H84.3787V330.697H100.737V328.697ZM82.6352 318.53C88.1697 322.973 94.0529 326.999 100.237 330.563L101.236 328.83C95.1408 325.318 89.3422 321.349 83.8872 316.97L82.6352 318.53ZM94.0199 335.177C106.776 340.35 120.506 343.625 134.858 344.652L135 342.657C120.861 341.645 107.337 338.419 94.7715 333.323L94.0199 335.177ZM109.329 333.25H94.3957V335.25H109.329V333.25ZM135.179 342.686C126.328 340.407 117.826 337.263 109.765 333.35L108.892 335.15C117.071 339.12 125.699 342.31 134.68 344.623L135.179 342.686ZM37.4336 245.99C35.9992 240.653 34.8805 235.186 34.0989 229.611L32.1183 229.889C32.9114 235.546 34.0465 241.093 35.5021 246.509L37.4336 245.99ZM15.8449 247.25H36.4679V245.25H15.8449V247.25ZM11.3891 229.893C12.2077 235.556 13.3794 241.105 14.8813 246.517L16.8084 245.982C15.3291 240.652 14.1749 235.186 13.3686 229.607L11.3891 229.893ZM33.1086 228.75H12.3788V230.75H33.1086V228.75ZM38.0706 250.75H17.5005V252.75H38.0706V250.75ZM45.3674 267.829C42.9158 262.544 40.7928 257.075 39.0245 251.45L37.1166 252.05C38.911 257.758 41.0654 263.307 43.553 268.671L45.3674 267.829ZM24.1145 269.25H44.4602V267.25H24.1145V269.25ZM16.5494 252.059C18.4072 257.778 20.6381 263.329 23.2133 268.683L25.0156 267.817C22.4789 262.542 20.2815 257.074 18.4515 251.441L16.5494 252.059ZM38.2523 289.652C34.3845 284.472 30.887 279 27.7988 273.275L26.0386 274.225C29.1735 280.036 32.7238 285.59 36.6497 290.848L38.2523 289.652ZM57.2688 289.25H37.451V291.25H57.2688V289.25ZM46.2751 274.211C49.2831 280.002 52.6884 285.554 56.4549 290.831L58.0827 289.669C54.3705 284.468 51.0144 278.996 48.0499 273.289L46.2751 274.211ZM26.9187 274.75H47.1625V272.75H26.9187V274.75ZM30.7706 210.5C30.7706 215.174 31.0023 219.794 31.455 224.349L33.4452 224.151C32.999 219.662 32.7706 215.108 32.7706 210.5H30.7706ZM30.7978 207.73C30.7797 208.651 30.7706 209.575 30.7706 210.5H32.7706C32.7706 209.588 32.7795 208.678 32.7974 207.77L30.7978 207.73ZM11.0278 208.75H31.7976V206.75H11.0278V208.75ZM12 210.5C12 209.588 12.0092 208.678 12.0276 207.77L10.028 207.73C10.0094 208.651 10 209.574 10 210.5H12ZM12.6949 224.148C12.2354 219.662 12 215.108 12 210.5H10C10 215.177 10.2389 219.798 10.7053 224.352L12.6949 224.148ZM32.4501 223.25H11.7001V225.25H32.4501V223.25ZM11.251 203.25H32.0142V201.25H11.251V203.25ZM12.309 185.566C11.2895 190.999 10.5971 196.547 10.2528 202.189L12.2491 202.311C12.5883 196.752 13.2705 191.286 14.2747 185.934L12.309 185.566ZM33.994 184.75H13.2918V186.75H33.994V184.75ZM33.0125 202.309C33.3415 196.753 34.0032 191.286 34.9778 185.929L33.0101 185.571C32.0212 191.007 31.3498 196.554 31.016 202.191L33.0125 202.309ZM38.9888 163.41C37.0377 168.802 35.4122 174.351 34.136 180.031L36.0873 180.469C37.345 174.872 38.9468 169.404 40.8695 164.09L38.9888 163.41ZM19.422 164.75H39.9291V162.75H19.422V164.75ZM15.419 180.476C16.7182 174.873 18.373 169.406 20.3585 164.1L18.4854 163.399C16.4697 168.786 14.7896 174.336 13.4707 180.024L15.419 180.476ZM35.1116 179.25H14.4449V181.25H35.1116V179.25ZM21.6216 159.25H42.0545V157.25H21.6216V159.25ZM29.2001 141.234C25.9992 146.547 23.1553 152.1 20.7016 157.858L22.5416 158.642C24.9585 152.97 27.7599 147.5 30.9133 142.266L29.2001 141.234ZM50.181 140.75H30.0567V142.75H50.181V140.75ZM42.9793 158.63C45.3085 152.97 48.0075 147.5 51.0464 142.251L49.3156 141.249C46.2321 146.575 43.4933 152.125 41.1297 157.869L42.9793 158.63ZM65.247 119.089C60.6644 124.297 56.4668 129.852 52.6988 135.709L54.3808 136.791C58.0945 131.019 62.2316 125.544 66.7485 120.411L65.247 119.089ZM46.6181 120.75H65.9977V118.75H46.6181V120.75ZM34.3863 136.807C38.2779 131.008 42.6159 125.533 47.3511 120.43L45.8852 119.07C41.0789 124.248 36.6758 129.806 32.7256 135.693L34.3863 136.807ZM53.5398 135.25H33.5559V137.25H53.5398V135.25ZM90.0259 96.9304C82.9738 101.859 76.402 107.427 70.3949 113.55L71.8225 114.95C77.7435 108.915 84.2209 103.428 91.1716 98.5697L90.0259 96.9304ZM73.0392 98.7501H90.5988V96.7501H73.0392V98.7501ZM52.7172 114.971C59.092 108.848 66.0783 103.355 73.5753 98.5942L72.5031 96.9059C64.8932 101.739 57.8021 107.314 51.3317 113.529L52.7172 114.971ZM71.1087 113.25H52.0245V115.25H71.1087V113.25ZM99.6304 93.1096C110.584 86.5975 122.527 81.5728 135.179 78.3138L134.68 76.377C121.841 79.6841 109.723 84.783 98.6084 91.3905L99.6304 93.1096ZM82.5415 93.2501H99.1194V91.2501H82.5415V93.2501ZM134.858 76.3479C115.91 77.704 98.0469 82.9785 82.0766 91.3647L83.0064 93.1354C98.7379 84.8746 116.334 79.6788 135 78.3428L134.858 76.3479ZM157.091 344.43C225.59 338.139 279.229 280.577 279.229 210.5H277.229C277.229 279.533 224.389 336.241 156.909 342.438L157.091 344.43ZM34.7706 210.5C34.7706 280.577 88.4097 338.139 156.909 344.43L157.091 342.438C89.6111 336.241 36.7706 279.533 36.7706 210.5H34.7706ZM156.909 76.5701C88.4097 82.8605 34.7706 140.423 34.7706 210.5H36.7706C36.7706 141.467 89.6111 84.7586 157.091 78.5617L156.909 76.5701ZM279.229 210.5C279.229 140.423 225.59 82.8605 157.091 76.5701L156.909 78.5617C224.389 84.7586 277.229 141.467 277.229 210.5H279.229ZM272.87 157.869C270.507 152.125 267.768 146.575 264.684 141.249L262.954 142.251C265.992 147.5 268.691 152.97 271.021 158.63L272.87 157.869ZM292.378 157.25H271.945V159.25H292.378V157.25ZM283.087 142.266C286.24 147.5 289.041 152.97 291.458 158.642L293.298 157.858C290.845 152.099 288.001 146.547 284.8 141.234L283.087 142.266ZM263.819 142.75H283.943V140.75H263.819V142.75ZM273.13 164.09C275.053 169.404 276.655 174.872 277.913 180.469L279.864 180.031C278.588 174.351 276.962 168.802 275.011 163.41L273.13 164.09ZM294.578 162.75H274.071V164.75H294.578V162.75ZM300.529 180.024C299.21 174.336 297.53 168.786 295.515 163.399L293.641 164.1C295.627 169.406 297.282 174.873 298.581 180.476L300.529 180.024ZM278.888 181.25H299.555V179.25H278.888V181.25ZM282.984 202.191C282.65 196.554 281.979 191.007 280.99 185.571L279.022 185.929C279.997 191.286 280.658 196.753 280.987 202.309L282.984 202.191ZM302.749 201.25H281.986V203.25H302.749V201.25ZM299.725 185.934C300.729 191.286 301.412 196.752 301.751 202.311L303.747 202.189C303.403 196.547 302.71 190.999 301.691 185.566L299.725 185.934ZM280.006 186.75H300.708V184.75H280.006V186.75ZM281.203 207.77C281.22 208.678 281.229 209.588 281.229 210.5H283.229C283.229 209.575 283.22 208.651 283.202 207.73L281.203 207.77ZM302.972 206.75H282.202V208.75H302.972V206.75ZM304 210.5C304 209.574 303.991 208.651 303.972 207.73L301.972 207.77C301.991 208.678 302 209.588 302 210.5H304ZM303.295 224.352C303.761 219.798 304 215.177 304 210.5H302C302 215.108 301.764 219.662 301.305 224.148L303.295 224.352ZM281.55 225.25H302.3V223.25H281.55V225.25ZM281.229 210.5C281.229 215.108 281.001 219.662 280.555 224.151L282.545 224.349C282.998 219.794 283.229 215.174 283.229 210.5H281.229ZM278.498 246.509C279.953 241.093 281.089 235.546 281.882 229.889L279.901 229.611C279.119 235.186 278.001 240.653 276.566 245.99L278.498 246.509ZM298.155 245.25H277.532V247.25H298.155V245.25ZM300.631 229.607C299.825 235.186 298.671 240.652 297.191 245.982L299.119 246.517C300.621 241.105 301.792 235.556 302.611 229.893L300.631 229.607ZM280.891 230.75H301.621V228.75H280.891V230.75ZM274.975 251.45C273.207 257.075 271.084 262.544 268.633 267.829L270.447 268.671C272.935 263.307 275.089 257.758 276.883 252.05L274.975 251.45ZM296.499 250.75H275.929V252.75H296.499V250.75ZM290.787 268.683C293.362 263.329 295.593 257.778 297.451 252.059L295.548 251.441C293.718 257.074 291.521 262.542 288.984 267.817L290.787 268.683ZM289.885 267.25H269.54V269.25H289.885V267.25ZM265.95 273.289C262.986 278.996 259.629 284.468 255.917 289.669L257.545 290.831C261.311 285.554 264.717 280.002 267.725 274.211L265.95 273.289ZM256.731 291.25H276.549V289.25H256.731V291.25ZM277.35 290.848C281.276 285.59 284.826 280.036 287.961 274.225L286.201 273.275C283.113 279 279.615 284.472 275.748 289.652L277.35 290.848ZM266.837 274.75H287.081V272.75H266.837V274.75ZM280.444 135.25H260.46V137.25H280.444V135.25ZM266.649 120.43C271.384 125.533 275.722 131.008 279.614 136.807L281.274 135.693C277.324 129.806 272.921 124.248 268.115 119.07L266.649 120.43ZM248.002 120.75H267.382V118.75H248.002V120.75ZM261.301 135.709C257.533 129.852 253.336 124.297 248.753 119.089L247.251 120.411C251.768 125.544 255.905 131.019 259.619 136.791L261.301 135.709ZM261.975 113.25H242.891V115.25H261.975V113.25ZM240.425 98.5942C247.922 103.355 254.908 108.848 261.283 114.971L262.668 113.529C256.198 107.314 249.107 101.739 241.497 96.9059L240.425 98.5942ZM223.401 98.7501H240.961V96.7501H223.401V98.7501ZM243.605 113.55C237.598 107.427 231.026 101.859 223.974 96.9304L222.828 98.5697C229.779 103.428 236.256 108.915 242.177 114.95L243.605 113.55ZM231.923 91.3647C215.953 82.9785 198.09 77.704 179.142 76.3479L178.999 78.3428C197.666 79.6788 215.262 84.8746 230.994 93.1354L231.923 91.3647ZM214.881 93.2501H231.458V91.2501H214.881V93.2501ZM178.821 78.3138C191.473 81.5728 203.416 86.5975 214.37 93.1096L215.392 91.3905C204.277 84.783 192.159 79.6841 179.32 76.377L178.821 78.3138ZM251.811 295.129C247.162 300.999 242.041 306.479 236.504 311.51L237.849 312.99C243.466 307.886 248.662 302.327 253.378 296.371L251.811 295.129ZM272.214 294.75H252.595V296.75H272.214V294.75ZM256.535 313.012C262.486 307.957 267.991 302.394 272.983 296.389L271.445 295.111C266.527 301.026 261.103 306.507 255.241 311.488L256.535 313.012ZM237.176 313.25H255.888V311.25H237.176V313.25ZM215.392 329.609C220.982 326.286 226.318 322.581 231.365 318.53L230.113 316.97C225.139 320.963 219.879 324.615 214.37 327.89L215.392 329.609ZM231.459 327.75H214.881V329.75H231.459V327.75ZM248.368 316.947C242.886 321.014 237.079 324.669 230.994 327.864L231.924 329.635C238.101 326.391 243.996 322.682 249.56 318.553L248.368 316.947ZM230.739 318.75H248.964V316.75H230.739V318.75ZM204.235 333.35C196.175 337.263 187.672 340.406 178.821 342.686L179.32 344.623C188.301 342.31 196.93 339.119 205.108 335.149L204.235 333.35ZM219.605 333.25H204.672V335.25H219.605V333.25ZM179.142 344.652C193.494 343.625 207.224 340.35 219.981 335.177L219.229 333.323C206.664 338.419 193.139 341.645 178.999 342.657L179.142 344.652ZM144.615 349C148.819 349 152.979 348.813 157.089 348.447L156.911 346.455C152.861 346.816 148.759 347 144.615 347V349ZM6 210.5C6 286.992 68.0607 349 144.615 349V347C69.1637 347 8 285.886 8 210.5H6ZM144.615 72C68.0607 72 6 134.008 6 210.5H8C8 135.114 69.1637 74 144.615 74V72ZM157.089 72.5533C152.979 72.187 148.819 72 144.615 72V74C148.759 74 152.861 74.1844 156.911 74.5454L157.089 72.5533ZM169.385 72C165.181 72 161.02 72.187 156.911 72.5533L157.089 74.5454C161.139 74.1844 165.24 74 169.385 74V72ZM308 210.5C308 134.008 245.939 72 169.385 72V74C244.836 74 306 135.114 306 210.5H308ZM169.385 349C245.939 349 308 286.992 308 210.5H306C306 285.886 244.836 347 169.385 347V349ZM156.911 348.447C161.02 348.813 165.181 349 169.385 349V347C165.24 347 161.139 346.816 157.089 346.455L156.911 348.447Z" fill="black" mask="url(#path-7-inside-1_444_5675)"/>
<rect x="154.5" y="47.5" width="5" height="26" fill="#267D7A" stroke="black"/>
<rect x="133" width="48" height="48" rx="24" fill="black"/>
<path d="M149 28L157 20L165 28H149Z" fill="#F0F0F0"/>
<path d="M230.546 209.32L191.046 206.313L175.335 230.5C204.912 245.079 225.616 234.276 235.968 226.559L230.546 209.32Z" fill="#B1AA8E" stroke="black"/>
<path d="M249.532 204.938C235.335 194.693 233.175 203.245 230.546 209.32L235.083 227.626C239.848 228.611 247.88 230.46 251.596 220.063C255.037 210.438 252.819 207.893 249.532 204.938Z" fill="#F7EED4" stroke="black"/>
<path d="M155.617 264.485C155.617 242.813 133.434 244.291 127.519 250.693L119.139 262.023L102.378 252.664L90.0542 273.843C92.026 280.739 102.378 294.531 118.646 296.5C145.144 299.708 154.138 277.619 155.617 264.485Z" fill="#134C4C" stroke="black"/>
<path d="M82.6596 252.664C92.1244 238.479 99.5844 246.753 102.378 252.664L90.054 273.844L87.0963 273.351C83.6456 270.888 70.3358 294.531 62.9415 288.62C55.5471 282.71 70.8287 270.396 82.6596 252.664Z" fill="#F7EED4" stroke="black"/>
<path d="M146.506 157.283L146.524 157.273L159.678 153.165C167.155 151.873 178.026 152.524 186.429 158.6C194.804 164.655 200.852 176.191 198.5 196.951L198.495 196.996L198.498 197.041C199.924 218.305 187.041 232.925 173.728 246.283L106.349 217.722C106.735 216.549 107.418 214.191 108.273 211.241C108.926 208.986 109.679 206.384 110.477 203.703C112.486 196.944 114.78 189.659 116.501 185.896C120.007 178.227 127.496 171.07 134.162 165.806C137.488 163.181 140.592 161.039 142.865 159.554C144.001 158.812 144.929 158.234 145.572 157.842C145.894 157.646 146.144 157.497 146.314 157.396C146.399 157.346 146.463 157.308 146.506 157.283Z" fill="#267D7A" stroke="black"/>
<path d="M117.422 191.876C117.422 191.876 139.702 206.591 150.449 213.437C161.213 220.295 184.853 233.813 184.853 233.813L182.101 237.25C182.101 237.25 159.394 224.875 147.009 217.313C136.262 210.751 116.046 196.688 116.046 196.688L117.422 191.876Z" fill="black"/>
<path d="M207.377 318.173C196.729 319.749 194.725 310.621 195.053 305.859L216.25 289.606C221.508 286.486 225.618 278.693 235.083 279.875C241.275 280.649 245.404 293.625 237.835 298.439C231.129 302.703 220.687 316.203 207.377 318.173Z" fill="#F7EED4" stroke="black"/>
<path d="M124.291 264.531L124.265 264.518L124.238 264.508C117.396 262.034 111.128 255.213 106.924 247.5C104.828 243.653 103.259 239.608 102.395 235.813C101.53 232.011 101.378 228.494 102.081 225.685C104.102 217.608 109.728 212.841 116.087 212.311C124.534 211.608 133.007 214.65 140.525 218.93C148.038 223.207 154.548 228.692 159.057 232.808C163.629 236.98 167.914 239.319 172.364 241.431C173.337 241.893 174.316 242.344 175.306 242.799C178.851 244.43 182.545 246.129 186.654 248.675C194.655 253.634 201.936 263.875 207.238 272.952C209.882 277.478 212.02 281.692 213.498 284.774C214.237 286.315 214.81 287.573 215.199 288.445C215.392 288.878 215.539 289.216 215.638 289.446L194.596 305.69C191.048 302.21 187.244 298.333 183.647 294.667C182.169 293.161 180.726 291.69 179.35 290.296C176.94 287.857 174.735 285.654 172.911 283.921C171.098 282.199 169.628 280.907 168.702 280.318C162.186 276.175 154.508 273.96 146.773 271.915C146.051 271.724 145.328 271.534 144.605 271.345C137.566 269.5 130.559 267.663 124.291 264.531Z" fill="#134C4C" stroke="black"/>
<path d="M220.565 154.689C222.387 156.946 223.206 159.871 223.561 162.651C223.853 164.936 223.828 167.075 223.809 168.624C223.806 168.893 223.803 169.144 223.802 169.375L223.714 169.49C218.887 175.779 216.507 178.88 213.13 180.559C211.427 181.407 209.446 181.901 206.722 182.225C204 182.548 200.569 182.698 195.97 182.874C183.56 181.628 175.203 178.034 169.508 171.91C163.804 165.776 160.7 157.034 158.955 145.342C159.12 135.788 165.199 124.908 177.494 123.722C187.545 122.752 193.181 128.146 196.337 131.168C197.077 131.876 197.681 132.454 198.173 132.789C202.052 135.426 203.246 138.199 204.411 140.906C204.44 140.973 204.469 141.041 204.498 141.108C205.097 142.498 205.718 143.898 206.722 145.212C207.732 146.534 209.116 147.752 211.228 148.821C212.763 149.599 213.955 150.15 214.919 150.592C214.996 150.627 215.072 150.662 215.147 150.696C216.002 151.088 216.656 151.388 217.222 151.694C218.414 152.34 219.214 153.016 220.565 154.689Z" fill="#B1AA8E" stroke="black"/>
<path d="M164.955 156.375C163.95 150.375 167.89 150.375 169.954 150.375L174.455 158.875C172.954 166.375 165.557 159.972 164.955 156.375Z" stroke="black"/>
<path d="M190.454 143.875L172.454 154.875L170.954 151.375L187.954 141.875L190.454 143.875Z" fill="#F4E9BD" stroke="black"/>
<path d="M186.454 138.371C186.454 143.371 202.954 152.371 202.954 152.371C202.954 152.371 204.294 150.75 205.954 149.871C207.614 148.992 210.954 148.371 210.954 148.371C210.954 148.371 208.954 127.625 203.954 128.875C199.954 129.875 201.954 132.371 198.954 135.371C196.454 137.871 186.454 133.871 186.454 138.371Z" fill="#F4E9BD" stroke="black"/>
<path d="M191.454 140.375C191.454 144.197 204.454 150.875 204.454 150.875C204.454 150.875 204.802 150.545 205.954 149.873C207.106 149.202 208.454 148.875 208.454 148.875C208.454 148.875 207.311 132.228 204.954 132.875C202.178 133.638 203.036 136.083 200.954 138.375C199.219 140.286 191.454 136.936 191.454 140.375Z" fill="#F7EED4" stroke="black"/>
<path d="M166.71 118.785C177.451 113.682 190.269 118.113 195.588 128.673L156.154 147.404C151.315 136.616 155.968 123.887 166.71 118.785Z" fill="#F2BB05" stroke="black"/>
<path d="M154.257 143.053L193.034 124.633L194.189 127.062L155.057 145.65L154.257 143.053Z" fill="black"/>
<path d="M189.297 124.696C188.183 122.355 189.419 119.264 192.294 117.666L196.646 126.812C193.591 128.031 190.41 127.037 189.297 124.696Z" fill="#F4E9BD" stroke="black"/>
<path d="M76.2036 204.492C75.3519 200.614 82.9459 194.107 86.4941 191.683C92.1697 187.805 99.2687 194.037 100.688 202.068C102.107 210.1 96.3116 213.493 93.2363 214.185C80.8167 218.339 77.2681 209.338 76.2036 204.492Z" fill="#F7EED4" stroke="black"/>
<path d="M124.195 192.402L124.044 192.39L123.912 192.463L103.494 203.771C99.9427 204.353 97.2655 204.154 95.2516 203.481C93.2301 202.806 91.851 201.647 90.9096 200.269C89.0337 197.523 88.8634 193.859 89.0154 191.325C99.3946 171.512 112.153 164.078 123.633 161.895C134.259 159.875 143.85 162.337 149.618 163.817C150.066 163.932 150.492 164.041 150.893 164.142C153.593 166.633 156.006 169.276 157.46 172.289C158.921 175.317 159.422 178.738 158.227 182.797C157.021 186.89 155.114 189.567 152.765 191.291C150.41 193.019 147.565 193.823 144.424 194.085C141.279 194.347 137.871 194.064 134.413 193.643C133.266 193.504 132.111 193.349 130.959 193.194C128.658 192.886 126.372 192.579 124.195 192.402Z" fill="#B1AA8E" stroke="black"/>
<path d="M199.454 165.875C197.698 158.165 202.552 149.173 210.454 148.875C214.454 148.724 218.954 151.375 222.954 158.375C226.455 164.502 224.558 172.334 218.454 175.875C211.201 180.083 201.316 174.051 199.454 165.875Z" fill="#F7EED4" stroke="black"/>
<path d="M207.454 166.375C208.028 166.4 208.706 166.396 209.454 166.349M222.954 159.375C220.91 163.209 216.716 165.069 212.954 165.869M209.454 166.349V163.31C209.454 163.139 209.654 163.047 209.784 163.158L212.954 165.869M209.454 166.349C210.511 166.283 211.709 166.134 212.954 165.869" stroke="black"/>
</svg>
