<svg width="1316" height="278" viewBox="0 0 1316 278" fill="none" xmlns="http://www.w3.org/2000/svg">
<path d="M1 159H1239V277H1V159Z" fill="#267D7A"/>
<path d="M1 159H1239V277H1V159Z" stroke="black" stroke-width="2"/>
<rect x="390" y="218" width="460" height="36" rx="3" fill="black"/>
<rect x="390" y="218" width="460" height="36" rx="3" stroke="black" stroke-width="2"/>
<path d="M407.565 230.818C407.849 230.818 408.033 230.942 408.142 231.206L411.224 238.733H411.344L414.426 231.206C414.536 230.942 414.719 230.818 415.003 230.818H415.952C416.276 230.818 416.45 230.992 416.45 231.315V240.503C416.45 240.826 416.276 241 415.952 241H415.485C415.162 241 414.988 240.826 414.988 240.503V233.632H414.893L412.05 240.597C411.94 240.861 411.756 240.985 411.473 240.985H411.095C410.812 240.985 410.628 240.861 410.518 240.597L407.675 233.627H407.58V240.503C407.58 240.826 407.406 241 407.083 241H406.616C406.293 241 406.119 240.826 406.119 240.503V231.315C406.119 230.992 406.293 230.818 406.616 230.818H407.565ZM421.855 241.154C419.603 241.154 418.221 239.603 418.221 237.232C418.221 234.885 419.623 233.264 421.751 233.264C423.481 233.264 425.131 234.343 425.131 237.102V237.132C425.131 237.455 424.957 237.629 424.634 237.629H419.702C419.742 239.101 420.597 239.926 421.87 239.926C422.551 239.926 423.103 239.688 423.431 239.22C423.6 238.972 423.769 238.857 424.057 238.912L424.495 238.991C424.833 239.056 425.002 239.25 424.888 239.504C424.42 240.513 423.327 241.154 421.855 241.154ZM419.707 236.516H423.675C423.67 235.347 422.914 234.492 421.76 234.492C420.552 234.492 419.767 235.432 419.707 236.516ZM426.781 233.861C426.781 233.538 426.955 233.364 427.278 233.364H427.71C428.033 233.364 428.207 233.538 428.207 233.861V234.607H428.302C428.62 233.766 429.371 233.264 430.38 233.264C431.399 233.264 432.1 233.771 432.433 234.607H432.513C432.881 233.791 433.706 233.264 434.805 233.264C436.187 233.264 437.161 234.134 437.161 235.879V240.503C437.161 240.826 436.987 241 436.664 241H436.172C435.849 241 435.675 240.826 435.675 240.503V236.018C435.675 234.984 435.028 234.547 434.243 234.547C433.273 234.547 432.712 235.213 432.712 236.133V240.503C432.712 240.826 432.538 241 432.214 241H431.727C431.404 241 431.23 240.826 431.23 240.503V235.924C431.23 235.094 430.658 234.547 429.833 234.547C428.988 234.547 428.267 235.263 428.267 236.292V240.503C428.267 240.826 428.093 241 427.77 241H427.278C426.955 241 426.781 240.826 426.781 240.503V233.861ZM439.154 233.861C439.154 233.538 439.328 233.364 439.651 233.364H440.108C440.431 233.364 440.605 233.538 440.605 233.861V234.602H440.73C440.993 234.129 441.505 233.264 442.922 233.264C444.767 233.264 446.129 234.721 446.129 237.197C446.129 239.668 444.786 241.149 442.937 241.149C441.545 241.149 440.998 240.299 440.73 239.812H440.64V243.366C440.64 243.69 440.466 243.864 440.143 243.864H439.651C439.328 243.864 439.154 243.69 439.154 243.366V233.861ZM440.61 237.182C440.61 238.788 441.326 239.881 442.604 239.881C443.931 239.881 444.627 238.713 444.627 237.182C444.627 235.665 443.951 234.527 442.604 234.527C441.306 234.527 440.61 235.586 440.61 237.182ZM451.011 241.154C448.858 241.154 447.451 239.578 447.451 237.217C447.451 234.84 448.858 233.264 451.011 233.264C453.164 233.264 454.57 234.84 454.57 237.217C454.57 239.578 453.164 241.154 451.011 241.154ZM448.953 237.212C448.953 238.678 449.609 239.906 451.016 239.906C452.413 239.906 453.069 238.678 453.069 237.212C453.069 235.75 452.413 234.507 451.016 234.507C449.609 234.507 448.953 235.75 448.953 237.212ZM459.446 241.154C457.294 241.154 455.887 239.578 455.887 237.217C455.887 234.84 457.294 233.264 459.446 233.264C461.599 233.264 463.006 234.84 463.006 237.217C463.006 239.578 461.599 241.154 459.446 241.154ZM457.388 237.212C457.388 238.678 458.044 239.906 459.451 239.906C460.848 239.906 461.505 238.678 461.505 237.212C461.505 235.75 460.848 234.507 459.451 234.507C458.044 234.507 457.388 235.75 457.388 237.212ZM466.152 240.503C466.152 240.826 465.978 241 465.655 241H465.162C464.839 241 464.665 240.826 464.665 240.503V231.315C464.665 230.992 464.839 230.818 465.162 230.818H465.655C465.978 230.818 466.152 230.992 466.152 231.315V240.503ZM477.972 233.493C477.678 233.493 477.534 233.349 477.42 233.065C477.142 232.389 476.401 232.006 475.421 232.006C474.169 232.006 473.378 232.648 473.378 233.513C473.373 234.487 474.432 234.86 475.227 235.064L476.222 235.322C477.514 235.641 479.15 236.352 479.15 238.186C479.15 239.911 477.773 241.169 475.382 241.169C473.323 241.169 471.966 240.244 471.643 238.713C471.573 238.38 471.767 238.186 472.105 238.186H472.662C472.96 238.186 473.105 238.335 473.204 238.629C473.487 239.434 474.357 239.822 475.372 239.822C476.679 239.822 477.629 239.165 477.629 238.171C477.629 237.266 476.789 236.908 475.7 236.62L474.497 236.292C472.861 235.849 471.847 235.019 471.847 233.602C471.847 231.847 473.413 230.679 475.456 230.679C477.296 230.679 478.638 231.614 478.946 232.971C479.021 233.299 478.812 233.493 478.479 233.493H477.972ZM481.617 232.185C481.1 232.185 480.678 231.788 480.678 231.3C480.678 230.813 481.1 230.411 481.617 230.411C482.129 230.411 482.557 230.813 482.557 231.3C482.557 231.788 482.129 232.185 481.617 232.185ZM480.866 240.503V233.861C480.866 233.538 481.04 233.364 481.364 233.364H481.856C482.179 233.364 482.353 233.538 482.353 233.861V240.503C482.353 240.826 482.179 241 481.856 241H481.364C481.04 241 480.866 240.826 480.866 240.503ZM484.194 240.329C484.194 240.085 484.253 239.901 484.407 239.707L488.33 234.726V234.656H484.825C484.502 234.656 484.328 234.482 484.328 234.159V233.861C484.328 233.538 484.502 233.364 484.825 233.364H489.687C490.01 233.364 490.184 233.538 490.184 233.861V234.104C490.184 234.348 490.125 234.522 489.976 234.721L486.207 239.638V239.707H489.827C490.15 239.707 490.324 239.881 490.324 240.205V240.503C490.324 240.826 490.15 241 489.827 241H484.691C484.368 241 484.194 240.826 484.194 240.503V240.329ZM495.15 241.154C492.898 241.154 491.516 239.603 491.516 237.232C491.516 234.885 492.918 233.264 495.045 233.264C496.776 233.264 498.426 234.343 498.426 237.102V237.132C498.426 237.455 498.252 237.629 497.929 237.629H492.997C493.037 239.101 493.892 239.926 495.165 239.926C495.846 239.926 496.398 239.688 496.726 239.22C496.895 238.972 497.064 238.857 497.352 238.912L497.79 238.991C498.128 239.056 498.297 239.25 498.183 239.504C497.715 240.513 496.621 241.154 495.15 241.154ZM493.002 236.516H496.969C496.964 235.347 496.209 234.492 495.055 234.492C493.847 234.492 493.062 235.432 493.002 236.516ZM504.213 236.774C504.213 234.428 504.805 232.449 505.928 230.749C506.072 230.525 506.261 230.435 506.525 230.435H506.803C507.201 230.435 507.325 230.669 507.131 231.017C506.336 232.444 505.754 234.721 505.754 236.774C505.754 238.832 506.336 241.109 507.131 242.536C507.325 242.884 507.211 243.118 506.823 243.118H506.525C506.261 243.118 506.082 243.038 505.948 242.839C504.81 241.129 504.213 239.141 504.213 236.774ZM510.638 230.818C510.921 230.818 511.105 230.942 511.214 231.206L514.297 238.733H514.416L517.498 231.206C517.608 230.942 517.792 230.818 518.075 230.818H519.025C519.348 230.818 519.522 230.992 519.522 231.315V240.503C519.522 240.826 519.348 241 519.025 241H518.557C518.234 241 518.06 240.826 518.06 240.503V233.632H517.966L515.122 240.597C515.013 240.861 514.829 240.985 514.545 240.985H514.167C513.884 240.985 513.7 240.861 513.591 240.597L510.747 233.627H510.653V240.503C510.653 240.826 510.479 241 510.155 241H509.688C509.365 241 509.191 240.826 509.191 240.503V231.315C509.191 230.992 509.365 230.818 509.688 230.818H510.638ZM521.755 231.315C521.755 230.992 521.929 230.818 522.252 230.818H525.484C527.652 230.818 528.696 231.987 528.696 233.493C528.696 234.766 527.915 235.402 526.98 235.641V235.74C527.99 235.795 529.093 236.685 529.093 238.261C529.093 239.822 528.025 241 525.658 241H522.252C521.929 241 521.755 240.826 521.755 240.503V231.315ZM523.292 239.683H525.509C526.985 239.683 527.567 239.041 527.567 238.186C527.567 237.217 526.797 236.421 525.564 236.421H523.292V239.683ZM523.292 235.223H525.35C526.384 235.223 527.189 234.597 527.189 233.612C527.189 232.767 526.608 232.126 525.39 232.126H523.292V235.223ZM533.655 236.779C533.655 239.126 533.063 241.104 531.94 242.805C531.795 243.028 531.607 243.118 531.343 243.118H531.065C530.667 243.118 530.543 242.884 530.737 242.536C531.532 241.109 532.114 238.832 532.114 236.779C532.114 234.721 531.532 232.444 530.737 231.017C530.543 230.669 530.657 230.435 531.045 230.435H531.343C531.607 230.435 531.786 230.515 531.92 230.714C533.058 232.424 533.655 234.413 533.655 236.779Z" fill="#F0F0F0"/>
<path d="M542.478 243.982L543.92 242.47H547.378L548.736 243.982H542.478ZM542.058 237.108L543.57 238.564V241.994L542.058 243.366V237.108ZM543.682 237.612C543.355 237.351 543.024 237.094 542.688 236.842L543.682 236.1H547.504L548.484 236.842L547.504 237.612H543.682ZM542.464 229.758H548.722L547.336 231.27H543.906L542.464 229.758ZM549.142 230.36V236.618L547.63 235.26V231.802L549.142 230.36ZM551.197 239.684H552.975V241.476H551.197V239.684ZM552.989 241.938C552.784 242.022 552.588 242.167 552.401 242.372C552.224 242.577 552.079 242.792 551.967 243.016C551.855 243.249 551.757 243.473 551.673 243.688C551.589 243.903 551.519 244.08 551.463 244.22C551.407 244.36 551.365 244.43 551.337 244.43C551.3 244.43 551.272 244.267 551.253 243.94C551.244 243.613 551.23 242.946 551.211 241.938H552.989ZM561.776 243.366L560.264 241.924V238.48L561.776 237.108V243.366ZM556.274 237.612C555.947 237.351 555.616 237.094 555.28 236.842L556.274 236.1H560.096L561.076 236.842L560.096 237.612H556.274ZM554.608 236.618V230.36L556.12 231.718V235.19L554.608 236.618ZM561.734 230.36V236.618L560.222 235.26V231.802L561.734 230.36ZM566.267 243.982L567.709 242.47H571.167L572.525 243.982H566.267ZM572.973 243.366L571.461 241.924V238.48L572.973 237.108V243.366ZM567.471 237.612C567.144 237.351 566.813 237.094 566.477 236.842L567.471 236.1H571.293L572.273 236.842L571.293 237.612H567.471ZM566.253 229.758H572.511L571.125 231.27H567.695L566.253 229.758ZM565.805 236.618V230.36L567.317 231.718V235.19L565.805 236.618ZM577.464 243.982L578.906 242.47H582.364L583.722 243.982H577.464ZM577.044 237.108L578.556 238.564V241.994L577.044 243.366V237.108ZM584.17 243.366L582.658 241.924V238.48L584.17 237.108V243.366ZM577.45 229.758H583.708L582.322 231.27H578.892L577.45 229.758ZM577.002 236.618V230.36L578.514 231.718V235.19L577.002 236.618ZM584.128 230.36V236.618L582.616 235.26V231.802L584.128 230.36ZM586.184 239.684H587.962V241.476H586.184V239.684ZM587.976 241.938C587.77 242.022 587.574 242.167 587.388 242.372C587.21 242.577 587.066 242.792 586.954 243.016C586.842 243.249 586.744 243.473 586.66 243.688C586.576 243.903 586.506 244.08 586.45 244.22C586.394 244.36 586.352 244.43 586.324 244.43C586.286 244.43 586.258 244.267 586.24 243.94C586.23 243.613 586.216 242.946 586.198 241.938H587.976ZM590.056 243.982L591.498 242.47H594.956L596.314 243.982H590.056ZM589.636 237.108L591.148 238.564V241.994L589.636 243.366V237.108ZM596.762 243.366L595.25 241.924V238.48L596.762 237.108V243.366ZM591.26 237.612C590.933 237.351 590.602 237.094 590.266 236.842L591.26 236.1H595.082L596.062 236.842L595.082 237.612H591.26ZM590.042 229.758H596.3L594.914 231.27H591.484L590.042 229.758ZM589.594 236.618V230.36L591.106 231.718V235.19L589.594 236.618ZM608.015 243.366L606.517 241.924V238.48L608.015 237.108V243.366ZM601.295 229.758H607.567L606.195 231.27H602.737L601.295 229.758ZM607.973 230.36V236.618L606.475 235.26V231.802L607.973 230.36ZM612.451 243.982L613.893 242.47H617.351L618.709 243.982H612.451ZM612.031 237.108L613.543 238.564V241.994L612.031 243.366V237.108ZM619.157 243.366L617.645 241.924V238.48L619.157 237.108V243.366ZM613.655 237.612C613.328 237.351 612.997 237.094 612.661 236.842L613.655 236.1H617.477L618.457 236.842L617.477 237.612H613.655ZM612.437 229.758H618.695L617.309 231.27H613.879L612.437 229.758ZM611.989 236.618V230.36L613.501 231.718V235.19L611.989 236.618ZM619.115 230.36V236.618L617.603 235.26V231.802L619.115 230.36Z" fill="#A0CDB9"/>
<path d="M638.616 231.315C638.616 230.992 638.79 230.818 639.114 230.818H645.999C646.322 230.818 646.496 230.992 646.496 231.315V231.643C646.496 231.967 646.322 232.141 645.999 232.141H643.32V240.503C643.32 240.826 643.146 241 642.822 241H642.286C641.962 241 641.788 240.826 641.788 240.503V232.141H639.114C638.79 232.141 638.616 231.967 638.616 231.643V231.315ZM650.228 241.154C648.075 241.154 646.668 239.578 646.668 237.217C646.668 234.84 648.075 233.264 650.228 233.264C652.38 233.264 653.787 234.84 653.787 237.217C653.787 239.578 652.38 241.154 650.228 241.154ZM648.169 237.212C648.169 238.678 648.826 239.906 650.233 239.906C651.63 239.906 652.286 238.678 652.286 237.212C652.286 235.75 651.63 234.507 650.233 234.507C648.826 234.507 648.169 235.75 648.169 237.212ZM659.011 234.06C659.011 234.383 658.837 234.557 658.514 234.557H657.445V238.758C657.445 239.618 657.878 239.777 658.36 239.777H658.41C658.723 239.767 658.917 239.871 658.981 240.18L659.046 240.463C659.116 240.771 658.996 241.01 658.678 241.06C658.539 241.08 658.375 241.099 658.186 241.099C657.013 241.124 655.954 240.453 655.959 239.066V234.557H655.337C655.014 234.557 654.84 234.383 654.84 234.06V233.861C654.84 233.538 655.014 233.364 655.337 233.364H655.959V232.031C655.959 231.708 656.133 231.534 656.456 231.534H656.948C657.271 231.534 657.445 231.708 657.445 232.031V233.364H658.514C658.837 233.364 659.011 233.538 659.011 233.861V234.06ZM662.878 241.169C661.426 241.169 660.298 240.344 660.298 238.842C660.298 237.107 661.779 236.729 663.226 236.56C664.598 236.401 665.155 236.411 665.155 235.869V235.835C665.155 234.969 664.663 234.467 663.703 234.467C662.938 234.467 662.435 234.771 662.142 235.158C661.963 235.397 661.789 235.501 661.506 235.437L661.073 235.337C660.735 235.258 660.591 235.014 660.765 234.706C661.366 233.682 662.485 233.264 663.683 233.264C664.896 233.264 666.646 233.707 666.646 235.929V240.503C666.646 240.826 666.472 241 666.149 241H665.692C665.369 241 665.195 240.826 665.195 240.503V239.956H665.135C664.852 240.528 664.141 241.169 662.878 241.169ZM661.754 238.862C661.754 239.598 662.361 239.976 663.201 239.976C664.439 239.976 665.16 239.151 665.16 238.246V237.261C664.946 237.475 663.803 237.604 663.32 237.669C662.46 237.783 661.754 238.067 661.754 238.862ZM670.113 240.503C670.113 240.826 669.939 241 669.616 241H669.123C668.8 241 668.626 240.826 668.626 240.503V231.315C668.626 230.992 668.8 230.818 669.123 230.818H669.616C669.939 230.818 670.113 230.992 670.113 231.315V240.503ZM675.435 231.315C675.435 230.992 675.609 230.818 675.932 230.818H682.818C683.141 230.818 683.315 230.992 683.315 231.315V231.643C683.315 231.967 683.141 232.141 682.818 232.141H680.138V240.503C680.138 240.826 679.964 241 679.641 241H679.104C678.781 241 678.607 240.826 678.607 240.503V232.141H675.932C675.609 232.141 675.435 231.967 675.435 231.643V231.315ZM684.144 233.861C684.144 233.538 684.318 233.364 684.641 233.364H685.083C685.407 233.364 685.581 233.538 685.581 233.861V234.577H685.66C685.939 233.756 686.704 233.249 687.599 233.249C687.644 233.249 687.699 233.249 687.753 233.254C688.066 233.259 688.23 233.453 688.23 233.766V234.174C688.23 234.512 688.091 234.666 687.848 234.641C687.723 234.626 687.584 234.616 687.455 234.616C686.401 234.616 685.63 235.337 685.63 236.337V240.503C685.63 240.826 685.456 241 685.133 241H684.641C684.318 241 684.144 240.826 684.144 240.503V233.861ZM691.671 241.169C690.219 241.169 689.091 240.344 689.091 238.842C689.091 237.107 690.572 236.729 692.019 236.56C693.391 236.401 693.948 236.411 693.948 235.869V235.835C693.948 234.969 693.456 234.467 692.496 234.467C691.73 234.467 691.228 234.771 690.935 235.158C690.756 235.397 690.582 235.501 690.299 235.437L689.866 235.337C689.528 235.258 689.384 235.014 689.558 234.706C690.159 233.682 691.278 233.264 692.476 233.264C693.689 233.264 695.439 233.707 695.439 235.929V240.503C695.439 240.826 695.265 241 694.942 241H694.485C694.162 241 693.988 240.826 693.988 240.503V239.956H693.928C693.645 240.528 692.934 241.169 691.671 241.169ZM690.547 238.862C690.547 239.598 691.154 239.976 691.994 239.976C693.232 239.976 693.953 239.151 693.953 238.246V237.261C693.739 237.475 692.596 237.604 692.113 237.669C691.253 237.783 690.547 238.067 690.547 238.862ZM698.906 240.503C698.906 240.826 698.732 241 698.409 241H697.916C697.593 241 697.419 240.826 697.419 240.503V233.861C697.419 233.538 697.593 233.364 697.916 233.364H698.349C698.672 233.364 698.846 233.538 698.846 233.861V234.607H698.941C699.294 233.796 700.044 233.264 701.193 233.264C702.754 233.264 703.793 234.254 703.793 236.143V240.503C703.793 240.826 703.619 241 703.296 241H702.803C702.48 241 702.306 240.826 702.306 240.503V236.322C702.306 235.213 701.695 234.552 700.686 234.552C699.651 234.552 698.906 235.248 698.906 236.466V240.503ZM710.589 235.392C710.301 235.442 710.137 235.327 709.972 235.079C709.734 234.726 709.321 234.442 708.635 234.442C707.79 234.442 707.154 234.86 707.159 235.447C707.154 235.964 707.517 236.247 708.357 236.446L709.57 236.724C710.972 237.048 711.658 237.714 711.658 238.793C711.658 240.175 710.38 241.154 708.536 241.154C707.049 241.154 706.005 240.582 705.593 239.548C705.468 239.235 705.642 239.011 705.975 238.962L706.443 238.892C706.736 238.847 706.895 238.972 707.044 239.24C707.313 239.712 707.82 239.956 708.526 239.956C709.5 239.956 710.132 239.494 710.132 238.902C710.132 238.425 709.789 238.097 709.053 237.933L707.76 237.649C706.328 237.331 705.672 236.61 705.672 235.526C705.672 234.174 706.895 233.264 708.62 233.264C710.022 233.264 710.902 233.821 711.325 234.721C711.474 235.034 711.31 235.263 710.972 235.322L710.589 235.392ZM715.515 241.169C714.063 241.169 712.934 240.344 712.934 238.842C712.934 237.107 714.416 236.729 715.863 236.56C717.235 236.401 717.792 236.411 717.792 235.869V235.835C717.792 234.969 717.299 234.467 716.34 234.467C715.574 234.467 715.072 234.771 714.779 235.158C714.6 235.397 714.426 235.501 714.142 235.437L713.71 235.337C713.372 235.258 713.228 235.014 713.402 234.706C714.003 233.682 715.122 233.264 716.32 233.264C717.533 233.264 719.283 233.707 719.283 235.929V240.503C719.283 240.826 719.109 241 718.786 241H718.328C718.005 241 717.831 240.826 717.831 240.503V239.956H717.772C717.488 240.528 716.777 241.169 715.515 241.169ZM714.391 238.862C714.391 239.598 714.998 239.976 715.838 239.976C717.076 239.976 717.797 239.151 717.797 238.246V237.261C717.583 237.475 716.439 237.604 715.957 237.669C715.097 237.783 714.391 238.067 714.391 238.862ZM724.48 241.154C722.262 241.154 720.92 239.518 720.92 237.217C720.92 234.885 722.312 233.264 724.465 233.264C725.986 233.264 727.144 234.055 727.512 235.288C727.607 235.621 727.408 235.83 727.065 235.83H726.597C726.309 235.83 726.155 235.695 726.031 235.427C725.772 234.905 725.25 234.517 724.49 234.517C723.247 234.517 722.421 235.546 722.421 237.182C722.421 238.847 723.232 239.896 724.49 239.896C725.191 239.896 725.747 239.568 726.031 238.987C726.155 238.723 726.309 238.584 726.597 238.584H727.065C727.408 238.584 727.607 238.758 727.527 239.046C727.194 240.289 726.09 241.154 724.48 241.154ZM732.771 234.06C732.771 234.383 732.597 234.557 732.274 234.557H731.205V238.758C731.205 239.618 731.637 239.777 732.12 239.777H732.169C732.483 239.767 732.676 239.871 732.741 240.18L732.806 240.463C732.875 240.771 732.756 241.01 732.438 241.06C732.299 241.08 732.135 241.099 731.946 241.099C730.772 241.124 729.713 240.453 729.718 239.066V234.557H729.097C728.774 234.557 728.6 234.383 728.6 234.06V233.861C728.6 233.538 728.774 233.364 729.097 233.364H729.718V232.031C729.718 231.708 729.892 231.534 730.216 231.534H730.708C731.031 231.534 731.205 231.708 731.205 232.031V233.364H732.274C732.597 233.364 732.771 233.538 732.771 233.861V234.06ZM735.166 232.185C734.649 232.185 734.226 231.788 734.226 231.3C734.226 230.813 734.649 230.411 735.166 230.411C735.678 230.411 736.106 230.813 736.106 231.3C736.106 231.788 735.678 232.185 735.166 232.185ZM734.415 240.503V233.861C734.415 233.538 734.589 233.364 734.912 233.364H735.405C735.728 233.364 735.902 233.538 735.902 233.861V240.503C735.902 240.826 735.728 241 735.405 241H734.912C734.589 241 734.415 240.826 734.415 240.503ZM741.118 241.154C738.966 241.154 737.559 239.578 737.559 237.217C737.559 234.84 738.966 233.264 741.118 233.264C743.271 233.264 744.678 234.84 744.678 237.217C744.678 239.578 743.271 241.154 741.118 241.154ZM739.06 237.212C739.06 238.678 739.716 239.906 741.123 239.906C742.52 239.906 743.176 238.678 743.176 237.212C743.176 235.75 742.52 234.507 741.123 234.507C739.716 234.507 739.06 235.75 739.06 237.212ZM747.824 240.503C747.824 240.826 747.65 241 747.327 241H746.834C746.511 241 746.337 240.826 746.337 240.503V233.861C746.337 233.538 746.511 233.364 746.834 233.364H747.267C747.59 233.364 747.764 233.538 747.764 233.861V234.607H747.858C748.211 233.796 748.962 233.264 750.111 233.264C751.672 233.264 752.711 234.254 752.711 236.143V240.503C752.711 240.826 752.537 241 752.214 241H751.721C751.398 241 751.224 240.826 751.224 240.503V236.322C751.224 235.213 750.613 234.552 749.604 234.552C748.569 234.552 747.824 235.248 747.824 236.466V240.503ZM759.507 235.392C759.219 235.442 759.055 235.327 758.89 235.079C758.652 234.726 758.239 234.442 757.553 234.442C756.708 234.442 756.072 234.86 756.077 235.447C756.072 235.964 756.434 236.247 757.275 236.446L758.488 236.724C759.89 237.048 760.576 237.714 760.576 238.793C760.576 240.175 759.298 241.154 757.454 241.154C755.967 241.154 754.923 240.582 754.51 239.548C754.386 239.235 754.56 239.011 754.893 238.962L755.361 238.892C755.654 238.847 755.813 238.972 755.962 239.24C756.231 239.712 756.738 239.956 757.444 239.956C758.418 239.956 759.05 239.494 759.05 238.902C759.05 238.425 758.706 238.097 757.971 237.933L756.678 237.649C755.246 237.331 754.59 236.61 754.59 235.526C754.59 234.174 755.813 233.264 757.538 233.264C758.94 233.264 759.82 233.821 760.243 234.721C760.392 235.034 760.228 235.263 759.89 235.322L759.507 235.392Z" fill="#F0F0F0"/>
<path d="M775.184 243.366L773.672 241.924V238.48L775.184 237.108V243.366ZM769.682 237.612C769.355 237.351 769.024 237.094 768.688 236.842L769.682 236.1H773.504L774.484 236.842L773.504 237.612H769.682ZM768.464 229.758H774.722L773.336 231.27H769.906L768.464 229.758ZM768.016 236.618V230.36L769.528 231.718V235.19L768.016 236.618ZM775.142 230.36V236.618L773.63 235.26V231.802L775.142 230.36ZM779.675 243.982L781.117 242.47H784.575L785.933 243.982H779.675ZM779.255 237.108L780.767 238.564V241.994L779.255 243.366V237.108ZM786.381 243.366L784.869 241.924V238.48L786.381 237.108V243.366ZM780.879 237.612C780.553 237.351 780.221 237.094 779.885 236.842L780.879 236.1H784.701L785.681 236.842L784.701 237.612H780.879ZM779.661 229.758H785.919L784.533 231.27H781.103L779.661 229.758ZM779.213 236.618V230.36L780.725 231.718V235.19L779.213 236.618ZM786.339 230.36V236.618L784.827 235.26V231.802L786.339 230.36ZM790.873 243.982L792.315 242.47H795.773L797.131 243.982H790.873ZM790.453 237.108L791.965 238.564V241.994L790.453 243.366V237.108ZM792.077 237.612C791.75 237.351 791.419 237.094 791.083 236.842L792.077 236.1H795.899L796.879 236.842L795.899 237.612H792.077ZM790.859 229.758H797.117L795.731 231.27H792.301L790.859 229.758ZM797.537 230.36V236.618L796.025 235.26V231.802L797.537 230.36ZM799.592 239.684H801.37V241.476H799.592V239.684ZM801.384 241.938C801.178 242.022 800.982 242.167 800.796 242.372C800.618 242.577 800.474 242.792 800.362 243.016C800.25 243.249 800.152 243.473 800.068 243.688C799.984 243.903 799.914 244.08 799.858 244.22C799.802 244.36 799.76 244.43 799.732 244.43C799.694 244.43 799.666 244.267 799.648 243.94C799.638 243.613 799.624 242.946 799.606 241.938H801.384ZM810.17 243.366L808.658 241.924V238.48L810.17 237.108V243.366ZM804.668 237.612C804.342 237.351 804.01 237.094 803.674 236.842L804.668 236.1H808.49L809.47 236.842L808.49 237.612H804.668ZM803.002 236.618V230.36L804.514 231.718V235.19L803.002 236.618ZM810.128 230.36V236.618L808.616 235.26V231.802L810.128 230.36ZM814.662 243.982L816.104 242.47H819.562L820.92 243.982H814.662ZM821.368 243.366L819.856 241.924V238.48L821.368 237.108V243.366ZM815.866 237.612C815.539 237.351 815.208 237.094 814.872 236.842L815.866 236.1H819.688L820.668 236.842L819.688 237.612H815.866ZM814.648 229.758H820.906L819.52 231.27H816.09L814.648 229.758ZM814.2 236.618V230.36L815.712 231.718V235.19L814.2 236.618ZM825.859 243.982L827.301 242.47H830.759L832.117 243.982H825.859ZM825.439 237.108L826.951 238.564V241.994L825.439 243.366V237.108ZM832.565 243.366L831.053 241.924V238.48L832.565 237.108V243.366ZM827.063 237.612C826.736 237.351 826.405 237.094 826.069 236.842L827.063 236.1H830.885L831.865 236.842L830.885 237.612H827.063ZM825.845 229.758H832.103L830.717 231.27H827.287L825.845 229.758ZM825.397 236.618V230.36L826.909 231.718V235.19L825.397 236.618Z" fill="#A0CDB9"/>
<rect x="33" y="182" width="164" height="18" fill="#F2BB05" stroke="black" stroke-width="2"/>
<path d="M38.4091 224.727C39.125 224.727 39.5795 225.023 39.8523 225.693L46.3636 241.591H46.6364L53.1477 225.693C53.4205 225.023 53.875 224.727 54.5909 224.727H57.4545C58.2614 224.727 58.7045 225.17 58.7045 225.977V246.75C58.7045 247.557 58.2614 248 57.4545 248H55.9091C55.1023 248 54.6591 247.557 54.6591 246.75V232.011H54.4432L48.4091 246.955C48.1364 247.614 47.6818 247.932 46.9659 247.932H46.0341C45.3182 247.932 44.8523 247.614 44.5909 246.955L38.5568 231.977H38.3409V246.75C38.3409 247.557 37.8977 248 37.0909 248H35.5455C34.7386 248 34.2955 247.557 34.2955 246.75V225.977C34.2955 225.17 34.7386 224.727 35.5455 224.727H38.4091ZM63.2955 225.977C63.2955 225.17 63.7386 224.727 64.5455 224.727H77.1818C77.9886 224.727 78.4318 225.17 78.4318 225.977V227.011C78.4318 227.818 77.9886 228.261 77.1818 228.261H67.5114V234.58H76.3977C77.2045 234.58 77.6477 235.023 77.6477 235.83V236.864C77.6477 237.67 77.2045 238.114 76.3977 238.114H67.5114V244.466H77.2727C78.0795 244.466 78.5227 244.909 78.5227 245.716V246.75C78.5227 247.557 78.0795 248 77.2727 248H64.5455C63.7386 248 63.2955 247.557 63.2955 246.75V225.977ZM86.8466 224.727C87.5625 224.727 88.017 225.023 88.2898 225.693L94.8011 241.591H95.0739L101.585 225.693C101.858 225.023 102.312 224.727 103.028 224.727H105.892C106.699 224.727 107.142 225.17 107.142 225.977V246.75C107.142 247.557 106.699 248 105.892 248H104.347C103.54 248 103.097 247.557 103.097 246.75V232.011H102.881L96.8466 246.955C96.5739 247.614 96.1193 247.932 95.4034 247.932H94.4716C93.7557 247.932 93.2898 247.614 93.0284 246.955L86.9943 231.977H86.7784V246.75C86.7784 247.557 86.3352 248 85.5284 248H83.983C83.1761 248 82.733 247.557 82.733 246.75V225.977C82.733 225.17 83.1761 224.727 83.983 224.727H86.8466ZM111.733 225.977C111.733 225.17 112.176 224.727 112.983 224.727H120.46C125.812 224.727 128.665 227.989 128.665 232.432C128.665 236.909 125.778 240.136 120.403 240.136H115.949V246.75C115.949 247.557 115.506 248 114.699 248H112.983C112.176 248 111.733 247.557 111.733 246.75V225.977ZM115.949 236.67H119.835C122.972 236.67 124.369 234.909 124.369 232.432C124.369 229.955 122.972 228.25 119.812 228.25H115.949V236.67ZM153.122 236.364C153.122 243.886 148.531 248.318 142.429 248.318C136.315 248.318 131.736 243.875 131.736 236.364C131.736 228.841 136.315 224.409 142.429 224.409C148.531 224.409 153.122 228.841 153.122 236.364ZM135.974 236.364C135.974 241.659 138.645 244.534 142.429 244.534C146.224 244.534 148.884 241.659 148.884 236.364C148.884 231.068 146.224 228.193 142.429 228.193C138.645 228.193 135.974 231.068 135.974 236.364ZM177.903 236.364C177.903 243.886 173.312 248.318 167.21 248.318C161.097 248.318 156.517 243.875 156.517 236.364C156.517 228.841 161.097 224.409 167.21 224.409C173.312 224.409 177.903 228.841 177.903 236.364ZM160.756 236.364C160.756 241.659 163.426 244.534 167.21 244.534C171.006 244.534 173.665 241.659 173.665 236.364C173.665 231.068 171.006 228.193 167.21 228.193C163.426 228.193 160.756 231.068 160.756 236.364ZM181.889 225.977C181.889 225.17 182.332 224.727 183.139 224.727H184.855C185.662 224.727 186.105 225.17 186.105 225.977V244.466H195.105C195.912 244.466 196.355 244.909 196.355 245.716V246.75C196.355 247.557 195.912 248 195.105 248H183.139C182.332 248 181.889 247.557 181.889 246.75V225.977Z" fill="black"/>
<path d="M1240.07 15.4438L1241.07 15.6412L1241.25 14.635C1242.6 6.88805 1249.37 1 1257.5 1C1264.2 1 1269.97 4.99627 1272.56 10.7402L1272.87 11.4424L1273.63 11.3167C1274.89 11.1084 1276.18 11 1277.5 11C1289.1 11 1298.73 19.4022 1300.65 30.4516L1300.77 31.1401L1301.46 31.2646C1309.16 32.6586 1315 39.3984 1315 47.5C1315 56.6127 1307.61 64 1298.5 64C1296.18 64 1293.97 63.5217 1291.97 62.6592L1289.66 61.6631L1290.66 63.9734C1291.52 65.9738 1292 68.1797 1292 70.5C1292 79.6127 1284.61 87 1275.5 87C1269.31 87 1263.91 83.588 1261.09 78.5363L1260.6 77.6724L1259.73 78.1462C1256.4 79.9657 1252.57 81 1248.5 81C1237.99 81 1229.1 74.1052 1226.09 64.5911L1225.26 61.9786L1224.21 64.5089C1220.68 73.0188 1212.29 79 1202.5 79C1197.15 79 1192.22 77.2137 1188.27 74.2046L1188 74H1187.67H1166H1165V75V95H1121V58C1121 54.134 1124.13 51 1128 51H1178.62H1179.42L1179.59 50.2236C1181.79 40.6569 1189.83 33.3175 1199.74 32.1597L1200.9 32.0245L1200.59 30.9004C1200.21 29.5006 1200 28.0253 1200 26.5C1200 17.3873 1207.39 10 1216.5 10C1221.35 10 1225.71 12.0894 1228.73 15.42L1229.13 15.8652L1229.71 15.7177C1231.56 15.2492 1233.5 15 1235.5 15C1237.06 15 1238.59 15.1527 1240.07 15.4438Z" fill="white" stroke="black" stroke-width="2"/>
<path d="M1083.06 277L1092.94 105H1191.06L1200.94 277H1083.06Z" fill="#88BEA6" stroke="black" stroke-width="2"/>
<rect x="1086" y="86" width="111" height="21" rx="9" fill="#88BEA6" stroke="black" stroke-width="2"/>
<path d="M1086 223H1198L1199 243H1085L1086 223Z" fill="black"/>
</svg>
