<svg width="240" height="403" viewBox="0 0 240 403" fill="none" xmlns="http://www.w3.org/2000/svg">
<path d="M111 60V59H110H43V1H61V40V41H62H184H185V40V1H203V59H130H129V60V182H111V60Z" fill="#267D7A" stroke="black" stroke-width="2"/>
<rect x="1" y="175" width="238" height="227" fill="#267D7A" stroke="black" stroke-width="2"/>
<path d="M80 170C80 165.582 83.5817 162 88 162H152C156.418 162 160 165.582 160 170V174H80V170Z" fill="black"/>
<circle cx="72" cy="218" r="11.5" fill="#F0F0F0" stroke="black"/>
<circle cx="68" cy="240" r="2" fill="black"/>
<circle cx="76" cy="240" r="2" fill="black"/>
<circle cx="68" cy="248" r="2" fill="black"/>
<circle cx="76" cy="248" r="2" fill="black"/>
<circle cx="68" cy="256" r="2" fill="black"/>
<circle cx="76" cy="256" r="2" fill="black"/>
<circle cx="120" cy="218" r="11.5" fill="#0BB859" stroke="black"/>
<circle cx="116" cy="240" r="2" fill="black"/>
<circle cx="124" cy="240" r="2" fill="black"/>
<circle cx="116" cy="248" r="2" fill="black"/>
<circle cx="124" cy="248" r="2" fill="black"/>
<circle cx="116" cy="256" r="2" fill="black"/>
<circle cx="124" cy="256" r="2" fill="black"/>
<circle cx="168" cy="218" r="11.5" fill="#0BB859" stroke="black"/>
<circle cx="164" cy="240" r="2" fill="black"/>
<circle cx="172" cy="240" r="2" fill="black"/>
<circle cx="164" cy="248" r="2" fill="black"/>
<circle cx="172" cy="248" r="2" fill="black"/>
<circle cx="164" cy="256" r="2" fill="black"/>
<circle cx="172" cy="256" r="2" fill="black"/>
</svg>
