<svg width="206" height="213" viewBox="0 0 206 213" fill="none" xmlns="http://www.w3.org/2000/svg">
<path d="M119.067 198.468C122.98 199.199 125.792 201.721 125.792 201.721H164.737V212H123.141C123.141 212 114.42 210.258 113.429 205.798C112.301 200.723 113.909 197.504 119.067 198.468Z" fill="#F7EED4" stroke="black"/>
<path d="M120.067 144.577L174.204 151.563L165.113 176.63L165.083 176.713V176.801V202.479H126.448L120.067 144.577Z" fill="#134C4C" stroke="black"/>
<path d="M72.7182 91.0289L112.603 87.9922L128.466 112.414C98.6012 127.135 77.6959 116.227 67.2432 108.436L72.7182 91.0289Z" fill="#B1AA8E" stroke="black"/>
<path d="M47.4603 86.2661L73.3965 90.7766L68.322 108.819C68.322 108.819 61.9911 107.153 55.3543 104.308C51.4079 102.617 53.6624 93.0319 53.6624 93.0319L45.205 91.3405C41.8223 89.085 43.5138 85.702 47.4603 86.2661Z" fill="#F7EED4" stroke="black"/>
<path d="M111.193 98.1711C109.613 117.507 112.819 139.291 116.797 151H183.843C183.81 150.816 183.778 150.608 183.747 150.381C183.662 149.779 183.572 148.991 183.476 148.045C183.283 146.153 183.066 143.611 182.827 140.628C182.626 138.117 182.408 135.296 182.176 132.283C181.856 128.126 181.508 123.602 181.134 119.024C180.49 111.133 179.771 103.105 178.995 96.5713C178.606 93.3042 178.204 90.4169 177.791 88.1105C177.377 85.8004 176.959 84.1225 176.552 83.2236C168.115 67.7586 161.611 62.1063 155.292 60.2335C152.12 59.2933 148.95 59.2909 145.519 59.5342C144.509 59.6058 143.473 59.6991 142.408 59.7951C139.885 60.0225 137.201 60.2644 134.318 60.266C126.785 61.0971 121.419 65.6546 117.718 72.4759C114.004 79.3203 111.99 88.4102 111.193 98.1711Z" fill="#267D7A" stroke="black"/>
<path d="M180.394 115.7C180.394 115.7 161.547 119.142 148.76 120.574C135.954 122.008 111.896 123.76 111.896 123.76L111.736 128.1C111.736 128.1 135.567 126.969 150.157 125.616C162.818 124.442 180.63 120.675 180.63 120.675L180.394 115.7Z" fill="black"/>
<path d="M91.8139 47.1403C89.9734 49.4199 89.1465 52.3743 88.7877 55.1823C88.4929 57.4894 88.5184 59.6494 88.5369 61.2134C88.5401 61.4854 88.5432 61.7394 88.5442 61.973L88.725 62.2085L88.3283 62.5129L88.725 62.2085C93.5854 68.5422 95.9818 71.645 99.4223 73.3183C101.137 74.1522 103.135 74.6399 105.874 74.9606C108.611 75.2809 112.053 75.4314 116.652 75.6072C129.184 74.349 137.623 70.7196 143.375 64.5345C149.136 58.3403 152.269 49.5119 154.032 37.7059C153.865 28.0573 147.726 17.0677 135.308 15.8696C125.156 14.8902 119.464 20.3397 116.278 23.3899C115.531 24.105 114.921 24.6882 114.425 25.0258C110.506 27.6894 109.301 30.4902 108.124 33.224C108.095 33.2921 108.066 33.3601 108.036 33.4281C107.432 34.8316 106.805 36.2451 105.792 37.571C104.772 38.9056 103.375 40.1344 101.243 41.2139C99.6931 41.9989 98.49 42.5555 97.5169 43.0015C97.4384 43.0375 97.3616 43.0727 97.2863 43.1072C96.4226 43.5027 95.7622 43.8051 95.1908 44.1148C93.9864 44.7675 93.1782 45.4504 91.8139 47.1403Z" fill="#B1AA8E" stroke="black"/>
<path d="M147.969 48.8455C148.983 42.7871 145.004 42.787 142.92 42.787L138.376 51.3698C139.892 58.9428 147.361 52.4773 147.969 48.8455Z" stroke="black"/>
<path d="M122.221 36.224L140.396 47.331L141.911 43.797L124.746 34.2046L122.221 36.224Z" fill="#F4E9BD" stroke="black"/>
<path d="M126.26 30.6669C126.26 35.7155 109.6 44.803 109.6 44.803C109.6 44.803 108.246 43.1655 106.571 42.2783C104.895 41.3911 101.522 40.7636 101.522 40.7636C101.522 40.7636 103.541 19.8159 108.59 21.0783C112.629 22.0882 110.609 24.6085 113.639 27.6372C116.163 30.1613 126.26 26.1232 126.26 30.6669Z" fill="#F4E9BD" stroke="black"/>
<path d="M121.212 32.69C121.212 36.5487 108.085 43.2921 108.085 43.2921C108.085 43.2921 107.734 42.9587 106.571 42.2806C105.408 41.6025 104.046 41.2728 104.046 41.2728C104.046 41.2728 105.2 24.4634 107.58 25.1172C110.383 25.8872 109.517 28.3558 111.619 30.6707C113.371 32.5998 121.212 29.2172 121.212 32.69Z" fill="#F7EED4" stroke="black"/>
<path d="M146.199 10.8849C135.349 5.73107 122.402 10.2073 117.031 20.8757L156.858 39.7938C161.748 28.8972 157.048 16.0387 146.199 10.8849Z" fill="#F2BB05" stroke="black"/>
<path d="M158.77 35.3938L119.616 16.7953L118.45 19.2475L157.962 38.0166L158.77 35.3938Z" fill="black"/>
<path d="M123.394 16.8605C124.521 14.4925 123.268 11.3663 120.361 9.75262L115.963 18.9976C119.05 20.2315 122.267 19.2285 123.394 16.8605Z" fill="#F4E9BD" stroke="black"/>
<path d="M113.134 58.438C114.907 50.653 110.005 41.5735 102.027 41.2727C97.9879 41.1205 93.4441 43.797 89.4051 50.8651C85.87 57.0514 87.7858 64.9597 93.9489 68.5352C101.272 72.7838 111.253 66.693 113.134 58.438Z" fill="#F7EED4" stroke="black"/>
<path d="M105.056 58.9431C104.477 58.9683 103.792 58.9633 103.037 58.9163M89.4055 51.875C91.4696 55.7453 95.7041 57.6239 99.5027 58.4321M103.037 58.9163V55.8433C103.037 55.6725 102.836 55.5803 102.707 55.6913L99.5027 58.4321M103.037 58.9163C101.969 58.8499 100.76 58.6996 99.5027 58.4321" stroke="black"/>
<path d="M174.979 153.929C178.276 151.65 177.142 141.616 176.188 137.383C174.662 130.613 165.128 130.333 158.553 135.291C151.978 140.25 153.926 146.745 155.722 149.373C162.042 160.988 170.857 156.779 174.979 153.929Z" fill="#F7EED4" stroke="black"/>
<path d="M147.83 111.978L147.949 112.071L147.995 112.215L155.304 134.622C157.528 137.496 159.644 139.192 161.596 140.081C163.555 140.974 165.373 141.066 167.018 140.695C170.296 139.956 172.944 137.364 174.575 135.387C180.539 113.602 176.226 99.3273 169.243 89.8137C162.78 81.0084 153.998 76.2277 148.717 73.353C148.306 73.1292 147.916 72.917 147.551 72.7154C143.84 72.6979 140.237 72.9905 137.089 74.2172C133.924 75.4502 131.199 77.634 129.289 81.457C127.363 85.3128 126.93 88.604 127.48 91.4953C128.032 94.3935 129.582 96.9464 131.723 99.3016C133.867 101.659 136.581 103.796 139.425 105.865C140.369 106.551 141.329 107.231 142.287 107.909C144.199 109.264 146.1 110.611 147.83 111.978Z" fill="#B1AA8E" stroke="black"/>
<rect x="0.5" y="56.5" width="39" height="155" fill="#F2BB05" stroke="black"/>
<rect x="39.5" y="79.5" width="5" height="30" fill="#FC3A25" stroke="black"/>
<path d="M25.9886 101.455C25.9886 105.686 23.4062 108.179 19.9737 108.179C16.5348 108.179 13.9588 105.68 13.9588 101.455C13.9588 97.223 16.5348 94.7301 19.9737 94.7301C23.4062 94.7301 25.9886 97.223 25.9886 101.455ZM16.343 101.455C16.343 104.433 17.8452 106.05 19.9737 106.05C22.1087 106.05 23.6044 104.433 23.6044 101.455C23.6044 98.4759 22.1087 96.8587 19.9737 96.8587C17.8452 96.8587 16.343 98.4759 16.343 101.455ZM14.2912 117.612C14.2912 117.158 14.5405 116.909 14.9943 116.909H19.2003C22.2109 116.909 23.8153 118.744 23.8153 121.243C23.8153 123.761 22.1918 125.577 19.1683 125.577H16.6626V129.297C16.6626 129.751 16.4134 130 15.9595 130H14.9943C14.5405 130 14.2912 129.751 14.2912 129.297V117.612ZM16.6626 123.627H18.8487C20.6129 123.627 21.3991 122.636 21.3991 121.243C21.3991 119.849 20.6129 118.891 18.8359 118.891H16.6626V123.627ZM14.2912 139.612C14.2912 139.158 14.5405 138.909 14.9943 138.909H22.1023C22.5561 138.909 22.8054 139.158 22.8054 139.612V140.194C22.8054 140.648 22.5561 140.897 22.1023 140.897H16.6626V144.451H21.6612C22.1151 144.451 22.3643 144.7 22.3643 145.154V145.736C22.3643 146.19 22.1151 146.439 21.6612 146.439H16.6626V150.012H22.1534C22.6072 150.012 22.8565 150.261 22.8565 150.715V151.297C22.8565 151.751 22.6072 152 22.1534 152H14.9943C14.5405 152 14.2912 151.751 14.2912 151.297V139.612ZM25.049 173.297C25.049 173.751 24.7997 174 24.3459 174H23.483C23.1058 174 22.8501 173.859 22.6328 173.553L16.7713 165.083H16.6626V173.297C16.6626 173.751 16.4134 174 15.9595 174H14.9943C14.5405 174 14.2912 173.751 14.2912 173.297V161.612C14.2912 161.158 14.5405 160.909 14.9943 160.909H15.87C16.2472 160.909 16.5092 161.05 16.7202 161.357L22.5753 169.832H22.6903V161.612C22.6903 161.158 22.9396 160.909 23.3935 160.909H24.3459C24.7997 160.909 25.049 161.158 25.049 161.612V173.297Z" fill="black"/>
</svg>
