<svg width="99" height="119" viewBox="0 0 99 119" fill="none" xmlns="http://www.w3.org/2000/svg">
<path d="M0.5 2.13548C0.525145 2.09625 0.55929 2.04595 0.603125 1.9875C0.722659 1.82812 0.912808 1.61007 1.18735 1.39043C1.73008 0.956246 2.62146 0.5 4 0.5C5.37854 0.5 6.26992 0.956246 6.81265 1.39043C7.08719 1.61007 7.27734 1.82812 7.39687 1.9875C7.44071 2.04595 7.47485 2.09625 7.5 2.13548V118.5H0.5V2.13548Z" fill="#134C4C" stroke="black"/>
<path d="M7.5 2.13548C7.52515 2.09625 7.55929 2.04595 7.60312 1.9875C7.72266 1.82812 7.91281 1.61007 8.18735 1.39043C8.73008 0.956246 9.62146 0.5 11 0.5C12.3785 0.5 13.2699 0.956246 13.8127 1.39043C14.0872 1.61007 14.2773 1.82812 14.3969 1.9875C14.4407 2.04595 14.4749 2.09625 14.5 2.13548V118.5H7.5V2.13548Z" fill="#134C4C" stroke="black"/>
<path d="M14.5 2.13548C14.5251 2.09625 14.5593 2.04595 14.6031 1.9875C14.7227 1.82812 14.9128 1.61007 15.1873 1.39043C15.7301 0.956246 16.6215 0.5 18 0.5C19.3785 0.5 20.2699 0.956246 20.8127 1.39043C21.0872 1.61007 21.2773 1.82812 21.3969 1.9875C21.4407 2.04595 21.4749 2.09625 21.5 2.13548V118.5H14.5V2.13548Z" fill="#134C4C" stroke="black"/>
<path d="M21.5 2.13548C21.5251 2.09625 21.5593 2.04595 21.6031 1.9875C21.7227 1.82812 21.9128 1.61007 22.1873 1.39043C22.7301 0.956246 23.6215 0.5 25 0.5C26.3785 0.5 27.2699 0.956246 27.8127 1.39043C28.0872 1.61007 28.2773 1.82812 28.3969 1.9875C28.4407 2.04595 28.4749 2.09625 28.5 2.13548V118.5H21.5V2.13548Z" fill="#134C4C" stroke="black"/>
<path d="M28.5 2.13548C28.5251 2.09625 28.5593 2.04595 28.6031 1.9875C28.7227 1.82812 28.9128 1.61007 29.1873 1.39043C29.7301 0.956246 30.6215 0.5 32 0.5C33.3785 0.5 34.2699 0.956246 34.8127 1.39043C35.0872 1.61007 35.2773 1.82812 35.3969 1.9875C35.4407 2.04595 35.4749 2.09625 35.5 2.13548V118.5H28.5V2.13548Z" fill="#134C4C" stroke="black"/>
<path d="M35.5 2.13548C35.5251 2.09625 35.5593 2.04595 35.6031 1.9875C35.7227 1.82812 35.9128 1.61007 36.1873 1.39043C36.7301 0.956246 37.6215 0.5 39 0.5C40.3785 0.5 41.2699 0.956246 41.8127 1.39043C42.0872 1.61007 42.2773 1.82812 42.3969 1.9875C42.4407 2.04595 42.4749 2.09625 42.5 2.13548V118.5H35.5V2.13548Z" fill="#134C4C" stroke="black"/>
<path d="M42.5 2.13548C42.5251 2.09625 42.5593 2.04595 42.6031 1.9875C42.7227 1.82812 42.9128 1.61007 43.1873 1.39043C43.7301 0.956246 44.6215 0.5 46 0.5C47.3785 0.5 48.2699 0.956246 48.8127 1.39043C49.0872 1.61007 49.2773 1.82812 49.3969 1.9875C49.4407 2.04595 49.4749 2.09625 49.5 2.13548V118.5H42.5V2.13548Z" fill="#134C4C" stroke="black"/>
<path d="M49.5 2.13548C49.5251 2.09625 49.5593 2.04595 49.6031 1.9875C49.7227 1.82812 49.9128 1.61007 50.1873 1.39043C50.7301 0.956246 51.6215 0.5 53 0.5C54.3785 0.5 55.2699 0.956246 55.8127 1.39043C56.0872 1.61007 56.2773 1.82812 56.3969 1.9875C56.4407 2.04595 56.4749 2.09625 56.5 2.13548V118.5H49.5V2.13548Z" fill="#134C4C" stroke="black"/>
<path d="M56.5 2.13548C56.5251 2.09625 56.5593 2.04595 56.6031 1.9875C56.7227 1.82812 56.9128 1.61007 57.1873 1.39043C57.7301 0.956246 58.6215 0.5 60 0.5C61.3785 0.5 62.2699 0.956246 62.8127 1.39043C63.0872 1.61007 63.2773 1.82812 63.3969 1.9875C63.4407 2.04595 63.4749 2.09625 63.5 2.13548V118.5H56.5V2.13548Z" fill="#134C4C" stroke="black"/>
<path d="M63.5 2.13548C63.5251 2.09625 63.5593 2.04595 63.6031 1.9875C63.7227 1.82812 63.9128 1.61007 64.1873 1.39043C64.7301 0.956246 65.6215 0.5 67 0.5C68.3785 0.5 69.2699 0.956246 69.8127 1.39043C70.0872 1.61007 70.2773 1.82812 70.3969 1.9875C70.4407 2.04595 70.4749 2.09625 70.5 2.13548V118.5H63.5V2.13548Z" fill="#134C4C" stroke="black"/>
<path d="M70.5 2.13548C70.5251 2.09625 70.5593 2.04595 70.6031 1.9875C70.7227 1.82812 70.9128 1.61007 71.1873 1.39043C71.7301 0.956246 72.6215 0.5 74 0.5C75.3785 0.5 76.2699 0.956246 76.8127 1.39043C77.0872 1.61007 77.2773 1.82812 77.3969 1.9875C77.4407 2.04595 77.4749 2.09625 77.5 2.13548V118.5H70.5V2.13548Z" fill="#134C4C" stroke="black"/>
<path d="M77.5 2.13548C77.5251 2.09625 77.5593 2.04595 77.6031 1.9875C77.7227 1.82812 77.9128 1.61007 78.1873 1.39043C78.7301 0.956246 79.6215 0.5 81 0.5C82.3785 0.5 83.2699 0.956246 83.8127 1.39043C84.0872 1.61007 84.2773 1.82812 84.3969 1.9875C84.4407 2.04595 84.4749 2.09625 84.5 2.13548V118.5H77.5V2.13548Z" fill="#134C4C" stroke="black"/>
<path d="M84.5 2.13548C84.5251 2.09625 84.5593 2.04595 84.6031 1.9875C84.7227 1.82812 84.9128 1.61007 85.1873 1.39043C85.7301 0.956246 86.6215 0.5 88 0.5C89.3785 0.5 90.2699 0.956246 90.8127 1.39043C91.0872 1.61007 91.2773 1.82812 91.3969 1.9875C91.4407 2.04595 91.4749 2.09625 91.5 2.13548V118.5H84.5V2.13548Z" fill="#134C4C" stroke="black"/>
<path d="M91.5 2.13548C91.5251 2.09625 91.5593 2.04595 91.6031 1.9875C91.7227 1.82812 91.9128 1.61007 92.1873 1.39043C92.7301 0.956246 93.6215 0.5 95 0.5C96.3785 0.5 97.2699 0.956246 97.8127 1.39043C98.0872 1.61007 98.2773 1.82812 98.3969 1.9875C98.4407 2.04595 98.4749 2.09625 98.5 2.13548V118.5H91.5V2.13548Z" fill="#134C4C" stroke="black"/>
</svg>
