<svg width="207" height="213" viewBox="0 0 207 213" fill="none" xmlns="http://www.w3.org/2000/svg">
<path d="M86.5313 198.468C82.6185 199.199 79.8062 201.721 79.8062 201.721H40.8611V212H82.4577C82.4577 212 91.1787 210.258 92.1696 205.798C93.2971 200.723 91.6892 197.504 86.5313 198.468Z" fill="#F7EED4" stroke="black"/>
<path d="M85.5316 144.577L31.3947 151.563L40.4852 176.63L40.5152 176.713V176.801V202.479H79.1503L85.5316 144.577Z" fill="#134C4C" stroke="black"/>
<path d="M132.88 91.0289L92.9956 87.9922L77.1321 112.414C106.997 127.135 127.902 116.227 138.355 108.436L132.88 91.0289Z" fill="#B1AA8E" stroke="black"/>
<path d="M158.138 86.2665L132.202 90.7771L137.276 108.82C137.276 108.82 143.607 107.153 150.244 104.309C154.19 102.617 151.936 93.0324 151.936 93.0324L160.393 91.341C163.776 89.0855 162.084 85.7025 158.138 86.2665Z" fill="#F7EED4" stroke="black"/>
<path d="M94.4053 98.1711C95.985 117.507 92.7795 139.291 88.8015 151H21.7554C21.7879 150.816 21.8198 150.608 21.8516 150.381C21.9361 149.779 22.0265 148.991 22.1226 148.045C22.3149 146.153 22.5318 143.611 22.7711 140.628C22.9726 138.117 23.1898 135.296 23.4218 132.283C23.7419 128.126 24.0902 123.602 24.4641 119.024C25.1086 111.133 25.8272 103.105 26.6036 96.5713C26.9919 93.3042 27.3939 90.4169 27.8073 88.1105C28.2213 85.8004 28.6388 84.1225 29.0459 83.2236C37.4837 67.7586 43.9877 62.1063 50.3065 60.2335C53.4785 59.2933 56.6481 59.2909 60.0796 59.5342C61.0894 59.6058 62.1254 59.6991 63.1902 59.7951C65.713 60.0225 68.3977 60.2644 71.2803 60.266C78.8133 61.0971 84.1796 65.6546 87.8806 72.4759C91.5943 79.3203 93.6078 88.4102 94.4053 98.1711Z" fill="#267D7A" stroke="black"/>
<path d="M25.2045 115.7C25.2045 115.7 44.0508 119.142 56.8378 120.574C69.6445 122.008 93.7025 123.76 93.7025 123.76L93.8622 128.1C93.8622 128.1 70.0309 126.969 55.4408 125.616C42.7805 124.442 24.9677 120.675 24.9677 120.675L25.2045 115.7Z" fill="black"/>
<path d="M113.784 47.1403C115.625 49.4199 116.452 52.3743 116.811 55.1823C117.105 57.4894 117.08 59.6494 117.061 61.2134C117.058 61.4854 117.055 61.7394 117.054 61.973L116.873 62.2085L117.27 62.5129L116.873 62.2085C112.013 68.5422 109.616 71.645 106.176 73.3183C104.461 74.1522 102.463 74.6399 99.7241 74.9606C96.9876 75.2809 93.5456 75.4314 88.9459 75.6072C76.4143 74.349 67.9755 70.7196 62.2233 64.5345C56.4627 58.3403 53.3289 49.5119 51.5664 37.7059C51.7333 28.0573 57.8721 17.0677 70.29 15.8696C80.442 14.8902 86.1345 20.3397 89.3207 23.3899C90.0677 24.105 90.6769 24.6882 91.1736 25.0258C95.0919 27.6894 96.2973 30.4902 97.4739 33.224C97.5032 33.2921 97.5325 33.3601 97.5618 33.4281C98.1667 34.8316 98.7932 36.2451 99.8064 37.571C100.826 38.9056 102.224 40.1344 104.355 41.2139C105.905 41.9989 107.108 42.5555 108.081 43.0015C108.16 43.0375 108.237 43.0727 108.312 43.1072C109.176 43.5027 109.836 43.8051 110.408 44.1148C111.612 44.7675 112.42 45.4504 113.784 47.1403Z" fill="#B1AA8E" stroke="black"/>
<path d="M57.6296 48.8455C56.6155 42.7871 60.5938 42.787 62.678 42.787L67.2226 51.3698C65.7067 58.9428 58.2375 52.4773 57.6296 48.8455Z" stroke="black"/>
<path d="M83.3768 36.2245L65.2018 47.3315L63.6873 43.7974L80.8525 34.2051L83.3768 36.2245Z" fill="#F4E9BD" stroke="black"/>
<path d="M79.338 30.6669C79.338 35.7155 95.9986 44.803 95.9986 44.803C95.9986 44.803 97.3519 43.1655 99.0277 42.2783C100.704 41.3911 104.076 40.7636 104.076 40.7636C104.076 40.7636 102.057 19.8159 97.0082 21.0783C92.9692 22.0882 94.9888 24.6085 91.9596 27.6372C89.4352 30.1613 79.338 26.1232 79.338 30.6669Z" fill="#F4E9BD" stroke="black"/>
<path d="M84.3866 32.69C84.3866 36.5487 97.513 43.2921 97.513 43.2921C97.513 43.2921 97.8647 42.9587 99.0276 42.2806C100.19 41.6025 101.552 41.2728 101.552 41.2728C101.552 41.2728 100.398 24.4634 98.0179 25.1172C95.2148 25.8872 96.0809 28.3558 93.979 30.6707C92.2273 32.5998 84.3866 29.2172 84.3866 32.69Z" fill="#F7EED4" stroke="black"/>
<path d="M59.3996 10.8849C70.2493 5.73107 83.1966 10.2073 88.5673 20.8757L48.7409 39.7938C43.8507 28.8972 48.5499 16.0387 59.3996 10.8849Z" fill="#F2BB05" stroke="black"/>
<path d="M46.8286 35.3938L85.982 16.7953L87.1487 19.2475L47.6361 38.0166L46.8286 35.3938Z" fill="black"/>
<path d="M82.2042 16.8605C81.0775 14.4925 82.3299 11.3663 85.237 9.75262L89.6358 18.9976C86.5481 20.2315 83.3309 19.2285 82.2042 16.8605Z" fill="#F4E9BD" stroke="black"/>
<path d="M92.4645 58.438C90.6913 50.653 95.5928 41.5735 103.571 41.2727C107.61 41.1205 112.154 43.797 116.193 50.8651C119.728 57.0514 117.812 64.9597 111.649 68.5352C104.326 72.7838 94.3449 66.693 92.4645 58.438Z" fill="#F7EED4" stroke="black"/>
<path d="M100.542 58.9431C101.122 58.9683 101.806 58.9633 102.562 58.9163M116.193 51.875C114.129 55.7453 109.894 57.6239 106.096 58.4321M102.562 58.9163V55.8433C102.562 55.6725 102.762 55.5803 102.892 55.6913L106.096 58.4321M102.562 58.9163C103.629 58.8499 104.838 58.6996 106.096 58.4321" stroke="black"/>
<path d="M30.6193 153.929C27.3221 151.65 28.4562 141.616 29.4103 137.383C30.9364 130.613 40.4702 130.333 47.0454 135.291C53.6206 140.25 51.672 146.745 49.8757 149.373C43.5563 160.988 34.7408 156.779 30.6193 153.929Z" fill="#F7EED4" stroke="black"/>
<path d="M57.7681 111.978L57.6496 112.071L57.6027 112.215L50.2946 134.622C48.0704 137.496 45.9539 139.192 44.002 140.081C42.0427 140.974 40.2247 141.066 38.5798 140.695C35.3019 139.956 32.6541 137.364 31.0228 135.387C25.0592 113.602 29.3724 99.3273 36.355 89.8137C42.8177 81.0084 51.5999 76.2277 56.8809 73.353C57.2919 73.1292 57.6817 72.917 58.0476 72.7154C61.7582 72.6979 65.3609 72.9905 68.5095 74.2172C71.6744 75.4502 74.3993 77.634 76.3088 81.457C78.2348 85.3128 78.6681 88.604 78.118 91.4953C77.5665 94.3935 76.0161 96.9464 73.875 99.3016C71.7315 101.659 69.0176 103.796 66.1727 105.865C65.2293 106.551 64.2689 107.231 63.3115 107.909C61.3988 109.264 59.498 110.611 57.7681 111.978Z" fill="#B1AA8E" stroke="black"/>
<rect x="167.5" y="57.5" width="39" height="155" fill="#F2BB05" stroke="black"/>
<rect x="162.5" y="80.5" width="5" height="30" fill="#FC3A25" stroke="black"/>
<path d="M192.989 102.455C192.989 106.686 190.406 109.179 186.974 109.179C183.535 109.179 180.959 106.68 180.959 102.455C180.959 98.223 183.535 95.7301 186.974 95.7301C190.406 95.7301 192.989 98.223 192.989 102.455ZM183.343 102.455C183.343 105.433 184.845 107.05 186.974 107.05C189.109 107.05 190.604 105.433 190.604 102.455C190.604 99.4759 189.109 97.8587 186.974 97.8587C184.845 97.8587 183.343 99.4759 183.343 102.455ZM181.291 118.612C181.291 118.158 181.54 117.909 181.994 117.909H186.2C189.211 117.909 190.815 119.744 190.815 122.243C190.815 124.761 189.192 126.577 186.168 126.577H183.663V130.297C183.663 130.751 183.413 131 182.96 131H181.994C181.54 131 181.291 130.751 181.291 130.297V118.612ZM183.663 124.627H185.849C187.613 124.627 188.399 123.636 188.399 122.243C188.399 120.849 187.613 119.891 185.836 119.891H183.663V124.627ZM181.291 140.612C181.291 140.158 181.54 139.909 181.994 139.909H189.102C189.556 139.909 189.805 140.158 189.805 140.612V141.194C189.805 141.648 189.556 141.897 189.102 141.897H183.663V145.451H188.661C189.115 145.451 189.364 145.7 189.364 146.154V146.736C189.364 147.19 189.115 147.439 188.661 147.439H183.663V151.012H189.153C189.607 151.012 189.857 151.261 189.857 151.715V152.297C189.857 152.751 189.607 153 189.153 153H181.994C181.54 153 181.291 152.751 181.291 152.297V140.612ZM192.049 174.297C192.049 174.751 191.8 175 191.346 175H190.483C190.106 175 189.85 174.859 189.633 174.553L183.771 166.083H183.663V174.297C183.663 174.751 183.413 175 182.96 175H181.994C181.54 175 181.291 174.751 181.291 174.297V162.612C181.291 162.158 181.54 161.909 181.994 161.909H182.87C183.247 161.909 183.509 162.05 183.72 162.357L189.575 170.832H189.69V162.612C189.69 162.158 189.94 161.909 190.393 161.909H191.346C191.8 161.909 192.049 162.158 192.049 162.612V174.297Z" fill="black"/>
</svg>
