<svg width="18" height="18" viewBox="0 0 18 18" fill="none" xmlns="http://www.w3.org/2000/svg">
<path d="M4.275 11.025H3.6C3.24196 11.025 2.89858 10.8828 2.64541 10.6296C2.39223 10.3764 2.25 10.033 2.25 9.675V3.6C2.25 3.24196 2.39223 2.89858 2.64541 2.64541C2.89858 2.39223 3.24196 2.25 3.6 2.25H9.675C10.033 2.25 10.3764 2.39223 10.6296 2.64541C10.8828 2.89858 11.025 3.24196 11.025 3.6V4.275M8.325 6.975H14.4C15.1456 6.975 15.75 7.57942 15.75 8.325V14.4C15.75 15.1456 15.1456 15.75 14.4 15.75H8.325C7.57942 15.75 6.975 15.1456 6.975 14.4V8.325C6.975 7.57942 7.57942 6.975 8.325 6.975Z" stroke="black" stroke-width="1.5" stroke-linecap="round" stroke-linejoin="round"/>
</svg>
