<svg width="19" height="20" viewBox="0 0 19 20" fill="none" xmlns="http://www.w3.org/2000/svg">
<path d="M6.99235 16.4318C2.7121 17.7159 2.7121 14.2917 1 13.8637M12.9847 19V15.6871C13.0168 15.2789 12.9617 14.8685 12.8229 14.4833C12.6842 14.0981 12.465 13.7468 12.18 13.4528C14.868 13.1532 17.693 12.1345 17.693 7.46044C17.6928 6.26524 17.233 5.11588 16.4089 4.25025C16.7991 3.20459 16.7716 2.04878 16.3319 1.02294C16.3319 1.02294 15.3217 0.723319 12.9847 2.28989C11.0226 1.75813 8.95441 1.75813 6.99235 2.28989C4.65534 0.723319 3.6452 1.02294 3.6452 1.02294C3.20551 2.04878 3.17792 3.20459 3.56815 4.25025C2.73789 5.12231 2.27767 6.28205 2.28408 7.48612C2.28408 12.1259 5.10904 13.1446 7.79704 13.4785C7.5154 13.7695 7.29819 14.1166 7.15955 14.4971C7.02091 14.8776 6.96394 15.2831 6.99235 15.6871V19" stroke="#F0F0F0" stroke-width="1.5" stroke-linecap="round" stroke-linejoin="round"/>
</svg>
