<svg width="194" height="226" viewBox="0 0 194 226" fill="none" xmlns="http://www.w3.org/2000/svg">
<path d="M10.0692 118.088C9.21575 114.218 19.5412 107.532 23.097 105.112C28.7847 101.242 35.8333 112.623 34.1206 120.583C32.6174 127.57 30.7877 127.563 27.7058 128.254C15.2596 132.4 11.136 122.926 10.0692 118.088Z" fill="#F7EED4" stroke="black"/>
<path d="M113.778 6.25474C103.52 14.4871 107.608 18.9068 111.009 25.1652L132.488 26.9021C134.942 22.7051 137.501 15.9179 128.806 9.1014C120.757 2.79088 117.633 4.08258 113.778 6.25474Z" fill="#F7EED4" stroke="black"/>
<path d="M132.487 26.9014L110.5 25.213L106.611 38.8696L90.6563 52.3275L123.663 69.6589C141.15 41.7306 139.15 37.9495 132.487 26.9014Z" fill="#C6C2AB" stroke="black"/>
<path d="M109.732 177.197C109.732 155.565 89.1036 154.837 83.1755 161.227L53.7582 179.693L42.4123 169.033L30.062 190.174C32.0381 197.056 37.4559 206.507 53.7582 208.472C80.3129 211.674 108.25 190.308 109.732 177.197Z" fill="#FF7A1E" stroke="black"/>
<path d="M22.706 169.045C32.191 154.886 39.667 163.145 42.4664 169.045L30.1162 190.185L27.1521 189.694C23.6941 187.235 10.3558 210.834 2.94561 204.934C-4.46454 199.035 10.8498 186.744 22.706 169.045Z" fill="#F7EED4" stroke="black"/>
<path d="M97.251 33.7404C109.529 30.374 115.481 38.5465 118.136 39.7422C121.114 41.083 125.133 39.0349 127.366 40.1674C129.598 41.2999 130.802 48.1833 133.614 49.7218C141.433 53.9995 143.948 53.9839 147.547 62.5024C147.547 62.5024 146.175 63.9058 146.582 65.7093C146.987 67.4997 148.493 67.9108 148.493 67.9108C148.493 67.9108 149.269 84.2864 131.177 88.1392C131.177 88.1392 135.829 107.317 134.534 118.966C132.975 132.981 119.839 148.365 119.839 148.365L45.0354 136.519L49.0422 109.987L33.2265 121.343C33.2265 121.343 26.8509 118.96 24.1246 115.83C21.729 113.08 20.1087 107.408 20.1087 107.408C20.1087 107.408 31.2021 83.3297 46.3293 77.0229C53.9105 73.8621 69.0366 73.0835 69.0366 73.0835C74.0459 66.1076 78.388 60.1665 84.2282 55.2501C82.7051 45.6604 84.9732 37.1068 97.251 33.7404Z" fill="#C6C2AB"/>
<path d="M131.177 88.1392C149.269 84.2864 148.493 67.9108 148.493 67.9108C148.493 67.9108 146.987 67.4997 146.582 65.7093C146.175 63.9058 147.547 62.5024 147.547 62.5024C143.948 53.9839 141.433 53.9996 133.614 49.7218C130.802 48.1833 129.598 41.2999 127.366 40.1674C125.133 39.0349 121.114 41.083 118.136 39.7422C115.481 38.5465 109.529 30.374 97.251 33.7404C84.9732 37.1068 82.7051 45.6604 84.2282 55.2501C78.388 60.1665 74.0459 66.1076 69.0366 73.0835C69.0366 73.0835 53.9105 73.8621 46.3293 77.0229C31.2021 83.3297 20.1087 107.408 20.1087 107.408C20.1087 107.408 21.729 113.08 24.1246 115.83C26.8509 118.96 33.2265 121.343 33.2265 121.343L49.0422 109.987M131.177 88.1392C128.216 88.653 121.69 86.2389 120.445 84.9352M131.177 88.1392C131.177 88.1392 135.829 107.317 134.534 118.966C132.975 132.981 119.839 148.364 119.839 148.364L45.0354 136.519L49.0422 109.987M49.0422 109.987C58.9595 114.346 75.8291 111.926 83.1032 104.078" stroke="black"/>
<path d="M163.418 212.874C150.59 224.121 145.503 214.221 144.325 207.802L162.345 189.674C171.38 193.755 185.461 174.719 191.797 183.269C197.43 190.872 179.453 198.817 163.418 212.874Z" fill="#F7EED4" stroke="black"/>
<path d="M87.1029 28.8468C97.2854 22.6782 110.519 25.7622 116.908 35.7002L79.5281 58.3454C73.5941 48.1314 76.9203 35.0155 87.1029 28.8468Z" fill="#F2BB05" stroke="black"/>
<path d="M77.19 54.2195L113.946 31.9525L115.348 34.2451L78.2548 56.7165L77.19 54.2195Z" fill="black"/>
<path d="M110.227 32.3986C108.875 30.1892 109.789 26.9923 112.491 25.1102L117.771 33.7446C114.851 35.2686 111.578 34.6079 110.227 32.3986Z" fill="#F4E9BD" stroke="black"/>
<path d="M71.8905 69.0423L68.5432 73.1692C82.9828 80.1205 95.4638 93.3219 93.6641 106.299C92.1821 116.985 61.9741 120.747 46.6632 122.558C46.0519 125.46 44.981 134.3 44.5421 136.604C36.7389 173.42 77.5375 187.619 102.978 185.738C110.945 184.761 134.033 200.445 144.581 208.41L162.648 189.571C153.629 172.898 136.82 161.123 129.543 157.32C134.307 155.48 139.694 122.127 139.47 118.109C138.996 109.58 133.884 93.9177 130.684 88.2248L127.55 87.7553L134.467 109.859L113.454 108.945C106.856 89.8258 81.9649 72.3605 71.8905 69.0423Z" fill="#FF7A1E"/>
<path d="M129.543 157.32C134.307 155.48 139.694 122.127 139.47 118.109C138.996 109.58 133.884 93.9177 130.684 88.2248L127.55 87.7553L134.467 109.859L113.454 108.945C106.856 89.8258 81.9649 72.3605 71.8905 69.0423L68.5432 73.1692C82.9828 80.1205 95.4638 93.3219 93.6641 106.299C92.1821 116.985 61.9741 120.747 46.6632 122.558C46.0519 125.46 44.981 134.3 44.5421 136.604C36.7389 173.42 77.5375 187.619 102.978 185.738C110.945 184.761 134.033 200.445 144.581 208.41L162.648 189.571C153.629 172.898 136.82 161.123 129.543 157.32ZM129.543 157.32L105.352 149.865" stroke="black"/>
<path d="M135.287 123.129L114.743 119.636V130.116L132.781 132.612L135.287 123.129Z" fill="#B4500C" stroke="black"/>
</svg>
