<svg width="194" height="219" viewBox="0 0 194 219" fill="none" xmlns="http://www.w3.org/2000/svg">
<path d="M14.5 88.3325C13.6484 84.4552 23.9518 77.7564 27.5 75.3323C33.1756 71.4548 40.2091 82.857 38.5001 90.8319C37.0001 97.8316 35.1743 97.8244 32.0989 98.5168C19.6793 102.671 15.5645 93.1791 14.5 88.3325Z" fill="#F7EED4" stroke="black"/>
<path d="M188.725 100.697C179.5 91.3325 175.5 95.8324 169.599 99.8325L170 121.332C174.428 123.351 181.448 125.215 187.38 115.903C192.871 107.282 191.273 104.308 188.725 100.697Z" fill="#F7EED4" stroke="black"/>
<path d="M170 121.333L169.5 99.3325L155.5 96.8325L140.5 82.3325L126.5 116.833C156.077 131.412 159.648 129.049 170 121.333Z" fill="#C6C2AB" stroke="black"/>
<path d="M95.6171 156.318C95.6171 134.646 73.4155 134.43 67.5 140.833L59.1385 152.856L42.3781 144.497L30.0542 165.676C32.026 172.572 42.3781 186.364 58.6456 188.333C85.1435 191.541 94.1383 169.452 95.6171 156.318Z" fill="#FF7A1E" stroke="black"/>
<path d="M22.6596 144.497C32.1244 130.312 39.5844 138.586 42.3778 144.497L30.054 165.677L27.0963 165.184C23.6456 162.721 10.3358 186.364 2.94145 180.453C-4.45286 174.543 10.8287 162.229 22.6596 144.497Z" fill="#F7EED4" stroke="black"/>
<path d="M116.5 15.8326C129.148 14.6123 133.595 23.6977 136 25.3325C138.697 27.1657 143 25.8325 145 27.3325C147 28.8325 147 35.8324 149.5 37.8324C156.451 43.3934 158.926 43.8086 161 52.8324C161 52.8324 159.41 53.9826 159.5 55.8324C159.59 57.6687 161 58.3324 161 58.3324C161 58.3324 158.947 74.6276 140.5 75.3325C140.5 75.3325 141.776 95.057 138.5 106.333C134.559 119.898 119 132.833 119 132.833L47.5 108.333L56 82.8325L38.5 91.3325C38.5 91.3325 32.642 87.8885 30.5 84.3325C28.6178 81.2078 28 75.3325 28 75.3325C28 75.3325 43.0448 53.467 59 49.8325C66.9962 48.011 82 49.8325 82 49.8325C88.1236 43.8052 93.4136 38.6849 100 34.8325C100.151 25.1067 103.852 17.0529 116.5 15.8326Z" fill="#C6C2AB"/>
<path d="M140.5 75.3325C158.947 74.6276 161 58.3324 161 58.3324C161 58.3324 159.59 57.6687 159.5 55.8324C159.41 53.9826 161 52.8324 161 52.8324C158.926 43.8086 156.451 43.3934 149.5 37.8324C147 35.8324 147 28.8325 145 27.3325C143 25.8325 138.697 27.1657 136 25.3325C133.595 23.6977 129.149 14.6123 116.5 15.8326C103.851 17.0529 100.151 25.1067 100 34.8325C93.4136 38.6849 88.1236 43.8052 82 49.8325C82 49.8325 66.9962 48.011 59 49.8325C43.0448 53.467 28 75.3325 28 75.3325C28 75.3325 28.6178 81.2078 30.5 84.3325C32.642 87.8885 38.5 91.3325 38.5 91.3325L56 82.8325M140.5 75.3325C137.5 75.3325 131.5 71.8325 130.5 70.3325M140.5 75.3325C140.5 75.3325 141.776 95.057 138.5 106.333C134.559 119.898 119 132.833 119 132.833L47.5 108.333L56 82.8325M56 82.8325C65 88.8325 82 89.3325 90.5 82.8325" stroke="black"/>
<path d="M153.217 203.421C139.166 213.084 135.307 202.632 134.906 196.107L154.207 181.01L156.771 182.565C159.062 186.132 180.192 169.114 184.866 177.346C189.541 185.577 170.782 191.344 153.217 203.421Z" fill="#F7EED4" stroke="black"/>
<path d="M107.365 9.26383C118.434 4.91935 130.914 10.2285 135.487 21.1324L94.8479 37.082C90.7697 25.9838 96.2951 13.6083 107.365 9.26383Z" fill="#F2BB05" stroke="black"/>
<path d="M93.2582 32.609L133.22 16.9255L134.204 19.4284L93.8758 35.2558L93.2582 32.609Z" fill="black"/>
<path d="M129.487 16.7291C128.538 14.3164 129.987 11.3181 132.965 9.92339L136.672 19.3501C133.54 20.3536 130.436 19.1418 129.487 16.7291Z" fill="#F4E9BD" stroke="black"/>
<path d="M85.5002 46.3325L81.5001 49.8325C94.5001 59.1659 104.5 74.3325 100.5 86.8325C97.2062 97.1257 66.8632 95.6659 51.5001 94.8325C50.4003 97.5919 47.8279 106.133 47.0003 108.333C33.0002 143.333 70.6669 164.333 96.0002 166.833C104 167.233 124 186.666 133 196.333L154 180.833C148 162.833 133.5 148.333 127 143.333C132 142.333 143.029 110.336 143.5 106.333C144.5 97.8325 142.167 81.4992 140 75.3325L137 74.3325L140 97.3325L119.5 92.8325C116.3 72.8325 94.8336 51.3325 85.5002 46.3325Z" fill="#FF7A1E"/>
<path d="M127 143.333C132 142.333 143.029 110.336 143.5 106.333C144.5 97.8325 142.167 81.4992 140 75.3325L137 74.3325L140 97.3325L119.5 92.8325C116.3 72.8325 94.8336 51.3325 85.5002 46.3325L81.5001 49.8325C94.5001 59.1659 104.5 74.3325 100.5 86.8325C97.2062 97.1257 66.8632 95.6659 51.5001 94.8325C50.4003 97.5919 47.8279 106.133 47.0003 108.333C33.0002 143.333 70.6669 164.333 96.0002 166.833C104 167.233 124 186.666 133 196.333L154 180.833C148 162.833 133.5 148.333 127 143.333ZM127 143.333L104.5 131.833" stroke="black"/>
<path d="M140 102.833L119.5 99.3325V109.833L137.5 112.333L140 102.833Z" fill="#B4500C" stroke="black"/>
</svg>
